<?xml version="1.0" encoding="UTF-8" standalone="no"?>
<!-- Created with Inkscape (http://www.inkscape.org/) -->

<svg
   xmlns:dc="http://purl.org/dc/elements/1.1/"
   xmlns:cc="http://creativecommons.org/ns#"
   xmlns:rdf="http://www.w3.org/1999/02/22-rdf-syntax-ns#"
   xmlns:svg="http://www.w3.org/2000/svg"
   xmlns="http://www.w3.org/2000/svg"
   xmlns:sodipodi="http://sodipodi.sourceforge.net/DTD/sodipodi-0.dtd"
   xmlns:inkscape="http://www.inkscape.org/namespaces/inkscape"
   version="1.1"
   id="svg2"
   xml:space="preserve"
   width="106.0565"
   height="102.49024"
   viewBox="0 0 106.0565 102.49024"
   sodipodi:docname="02.svg"
   inkscape:version="0.92.3 (2405546, 2018-03-11)"><metadata
     id="metadata8"><rdf:RDF><cc:Work
         rdf:about=""><dc:format>image/svg+xml</dc:format><dc:type
           rdf:resource="http://purl.org/dc/dcmitype/StillImage" /><dc:title></dc:title></cc:Work></rdf:RDF></metadata><defs
     id="defs6"><clipPath
       clipPathUnits="userSpaceOnUse"
       id="clipPath22"><path
         d="m 712.887,3719.58 c -16.11,0 -32.356,6.92 -43.657,21.58 l -389.917,505.95 c -26.825,34.8 -4.356,85.48 39.449,88.97 l 598.722,59.41 c 1.543,0.13 3.063,0.19 4.571,0.19 37.476,0 64.691,-37.19 52.144,-73.46 L 765.391,3756.86 c -8.344,-24.13 -30.289,-37.28 -52.504,-37.28"
         id="path20"
         inkscape:connector-curvature="0" /></clipPath><linearGradient
       x1="0"
       y1="0"
       x2="1"
       y2="0"
       gradientUnits="userSpaceOnUse"
       gradientTransform="matrix(620.005,-216.022,-216.022,-620.005,255.017,4253.59)"
       spreadMethod="pad"
       id="linearGradient28"><stop
         style="stop-opacity:1;stop-color:#cd97d1"
         offset="0"
         id="stop24" /><stop
         style="stop-opacity:1;stop-color:#f393ce"
         offset="1"
         id="stop26" /></linearGradient><clipPath
       clipPathUnits="userSpaceOnUse"
       id="clipPath38"><path
         d="m 1018.81,4228.5 -557.974,225.09 c -40.422,17.23 -83.832,-17.24 -76.219,-60.52 l 110.735,-629.09 c 7.636,-43.37 60.41,-60.89 92.476,-30.69 l 447.242,403.99 c 29.06,27.37 20.47,75.57 -16.26,91.22 z"
         id="path36"
         inkscape:connector-curvature="0" /></clipPath><linearGradient
       x1="0"
       y1="0"
       x2="1"
       y2="0"
       gradientUnits="userSpaceOnUse"
       gradientTransform="matrix(720.122,661.733,661.733,-720.122,390.277,3988.86)"
       spreadMethod="pad"
       id="linearGradient44"><stop
         style="stop-opacity:1;stop-color:#8742a6"
         offset="0"
         id="stop40" /><stop
         style="stop-opacity:1;stop-color:#e8259c"
         offset="1"
         id="stop42" /></linearGradient><clipPath
       clipPathUnits="userSpaceOnUse"
       id="clipPath62"><path
         d="m 1956.68,3719.8 c -15.09,0 -30.37,6.11 -41.69,19.23 l -417.27,483.63 c -28.7,33.26 -9.07,85.11 34.47,91.01 l 594.53,92.4 c 2.59,0.36 5.14,0.52 7.66,0.52 35.91,0 63.25,-34.66 53.02,-70.54 l -177.25,-576.04 c -7.33,-25.69 -30.19,-40.21 -53.47,-40.21"
         id="path60"
         inkscape:connector-curvature="0" /></clipPath><linearGradient
       x1="0"
       y1="0"
       x2="1"
       y2="0"
       gradientUnits="userSpaceOnUse"
       gradientTransform="matrix(630.993,-181.437,-181.437,-630.993,1473.11,4227.79)"
       spreadMethod="pad"
       id="linearGradient68"><stop
         style="stop-opacity:1;stop-color:#f393ce"
         offset="0"
         id="stop64" /><stop
         style="stop-opacity:1;stop-color:#f9a9be"
         offset="1"
         id="stop66" /></linearGradient><clipPath
       clipPathUnits="userSpaceOnUse"
       id="clipPath78"><path
         d="m 2240.05,4228.5 -557.98,225.09 c -40.42,17.23 -83.83,-17.24 -76.22,-60.52 l 110.74,-629.09 c 7.63,-43.37 60.41,-60.89 92.47,-30.69 l 447.24,403.99 c 29.06,27.37 20.48,75.57 -16.25,91.22 z"
         id="path76"
         inkscape:connector-curvature="0" /></clipPath><linearGradient
       x1="0"
       y1="0"
       x2="1"
       y2="0"
       gradientUnits="userSpaceOnUse"
       gradientTransform="matrix(720.122,661.733,661.733,-720.122,1611.51,3988.86)"
       spreadMethod="pad"
       id="linearGradient84"><stop
         style="stop-opacity:1;stop-color:#e8259c"
         offset="0"
         id="stop80" /><stop
         style="stop-opacity:1;stop-color:#f24e79"
         offset="1"
         id="stop82" /></linearGradient><clipPath
       clipPathUnits="userSpaceOnUse"
       id="clipPath102"><path
         d="m 3175.48,3719.9 c -16.58,0 -33.28,7.31 -44.53,22.71 l -376.85,515.75 c -25.93,35.48 -2.17,85.57 41.71,87.94 l 600.05,44.08 c 1.05,0.05 2.08,0.08 3.11,0.08 38.24,0 65.36,-38.38 51.71,-74.78 l -223.2,-559.83 c -8.77,-23.4 -30.28,-35.95 -52,-35.95"
         id="path100"
         inkscape:connector-curvature="0" /></clipPath><linearGradient
       x1="0"
       y1="0"
       x2="1"
       y2="0"
       gradientUnits="userSpaceOnUse"
       gradientTransform="matrix(614.276,-231.811,-231.811,-614.276,2729.98,4265.46)"
       spreadMethod="pad"
       id="linearGradient108"><stop
         style="stop-opacity:1;stop-color:#f89db7"
         offset="0"
         id="stop104" /><stop
         style="stop-opacity:1;stop-color:#fbc29b"
         offset="1"
         id="stop106" /></linearGradient><clipPath
       clipPathUnits="userSpaceOnUse"
       id="clipPath118"><path
         d="m 3491.84,4228.5 -557.97,225.09 c -40.43,17.23 -83.84,-17.24 -76.22,-60.52 l 110.73,-629.09 c 7.64,-43.37 60.41,-60.89 92.47,-30.69 l 447.25,403.99 c 29.06,27.37 20.46,75.57 -16.26,91.22 z"
         id="path116"
         inkscape:connector-curvature="0" /></clipPath><linearGradient
       x1="0"
       y1="0"
       x2="1"
       y2="0"
       gradientUnits="userSpaceOnUse"
       gradientTransform="matrix(668.741,0,0,-668.741,2856.77,4088.15)"
       spreadMethod="pad"
       id="linearGradient124"><stop
         style="stop-opacity:1;stop-color:#f03a67"
         offset="0"
         id="stop120" /><stop
         style="stop-opacity:1;stop-color:#f57c38"
         offset="1"
         id="stop122" /></linearGradient><clipPath
       clipPathUnits="userSpaceOnUse"
       id="clipPath142"><path
         d="m 4404.77,3719.63 c -16.22,0 -32.57,7.01 -43.86,21.83 l -386.97,508.22 c -26.61,34.96 -3.84,85.51 39.98,88.74 l 599.06,55.92 c 1.42,0.11 2.83,0.16 4.23,0.16 37.65,0 64.85,-37.46 52.06,-73.76 l -212.11,-564.13 c -8.45,-23.97 -30.29,-36.98 -52.39,-36.98"
         id="path140"
         inkscape:connector-curvature="0" /></clipPath><linearGradient
       x1="0"
       y1="0"
       x2="1"
       y2="0"
       gradientUnits="userSpaceOnUse"
       gradientTransform="matrix(618.733,-219.637,-219.637,-618.733,3949.69,4256.3)"
       spreadMethod="pad"
       id="linearGradient148"><stop
         style="stop-opacity:1;stop-color:#fbc29b"
         offset="0"
         id="stop144" /><stop
         style="stop-opacity:1;stop-color:#f3eda6"
         offset="1"
         id="stop146" /></linearGradient><clipPath
       clipPathUnits="userSpaceOnUse"
       id="clipPath158"><path
         d="m 4713.08,4228.5 -557.98,225.09 c -40.42,17.23 -83.84,-17.24 -76.22,-60.52 l 110.73,-629.09 c 7.64,-43.37 60.42,-60.89 92.48,-30.69 l 447.24,403.99 c 29.06,27.37 20.47,75.57 -16.25,91.22 z"
         id="path156"
         inkscape:connector-curvature="0" /></clipPath><linearGradient
       x1="0"
       y1="0"
       x2="1"
       y2="0"
       gradientUnits="userSpaceOnUse"
       gradientTransform="matrix(720.122,661.733,661.733,-720.122,4084.54,3988.86)"
       spreadMethod="pad"
       id="linearGradient164"><stop
         style="stop-opacity:1;stop-color:#f57c38"
         offset="0"
         id="stop160" /><stop
         style="stop-opacity:1;stop-color:#efdc47"
         offset="1"
         id="stop162" /></linearGradient><clipPath
       clipPathUnits="userSpaceOnUse"
       id="clipPath182"><path
         d="m 847.84,2263.1 c -10.145,0 -20.551,2.85 -30.141,9.12 L 283.023,2621.7 c -36.777,24.04 -32.234,79.29 7.977,97 l 545.848,253.1 c 7.382,3.25 14.953,4.76 22.328,4.76 29.121,0 55.262,-23.44 55.336,-55.29 L 903.34,2318.68 c 0.078,-32.58 -26.656,-55.58 -55.5,-55.58"
         id="path180"
         inkscape:connector-curvature="0" /></clipPath><linearGradient
       x1="0"
       y1="0"
       x2="1"
       y2="0"
       gradientUnits="userSpaceOnUse"
       gradientTransform="matrix(656.56,0,0,-656.56,257.951,2619.83)"
       spreadMethod="pad"
       id="linearGradient188"><stop
         style="stop-opacity:1;stop-color:#f1ea8f"
         offset="0"
         id="stop184" /><stop
         style="stop-opacity:1;stop-color:#c8e892"
         offset="1"
         id="stop186" /></linearGradient><clipPath
       clipPathUnits="userSpaceOnUse"
       id="clipPath198"><path
         d="m 1018.81,2751.66 -557.974,225.09 c -40.422,17.22 -83.832,-17.25 -76.219,-60.52 l 110.735,-629.09 c 7.636,-43.38 60.41,-60.9 92.476,-30.69 l 447.242,403.98 c 29.06,27.38 20.47,75.58 -16.26,91.23 z"
         id="path196"
         inkscape:connector-curvature="0" /></clipPath><linearGradient
       x1="0"
       y1="0"
       x2="1"
       y2="0"
       gradientUnits="userSpaceOnUse"
       gradientTransform="matrix(720.122,661.733,661.733,-720.122,390.277,2512.02)"
       spreadMethod="pad"
       id="linearGradient204"><stop
         style="stop-opacity:1;stop-color:#ecd125"
         offset="0"
         id="stop200" /><stop
         style="stop-opacity:1;stop-color:#8fd131"
         offset="1"
         id="stop202" /></linearGradient><clipPath
       clipPathUnits="userSpaceOnUse"
       id="clipPath222"><path
         d="m 1906.51,2244.16 c -17.37,0 -34.82,8.01 -45.92,24.62 l -354.74,531.2 c -24.4,36.54 1.44,85.58 45.39,86.1 l 601.37,18.71 c 0.23,0.01 0.46,0.01 0.69,0.01 39.54,0 66.42,-40.41 50.93,-76.95 L 1957.6,2277.93 c -9.39,-22.16 -30.17,-33.77 -51.09,-33.77"
         id="path220"
         inkscape:connector-curvature="0" /></clipPath><linearGradient
       x1="0"
       y1="0"
       x2="1"
       y2="0"
       gradientUnits="userSpaceOnUse"
       gradientTransform="matrix(603.945,-257.531,-257.531,-603.945,1482.05,2808.1)"
       spreadMethod="pad"
       id="linearGradient228"><stop
         style="stop-opacity:1;stop-color:#c8e892"
         offset="0"
         id="stop224" /><stop
         style="stop-opacity:1;stop-color:#9adcbd"
         offset="1"
         id="stop226" /></linearGradient><clipPath
       clipPathUnits="userSpaceOnUse"
       id="clipPath238"><path
         d="m 2240.05,2751.66 -557.98,225.09 c -40.42,17.22 -83.83,-17.25 -76.22,-60.52 l 110.74,-629.09 c 7.63,-43.38 60.41,-60.9 92.47,-30.69 l 447.24,403.98 c 29.06,27.38 20.48,75.58 -16.25,91.23 z"
         id="path236"
         inkscape:connector-curvature="0" /></clipPath><linearGradient
       x1="0"
       y1="0"
       x2="1"
       y2="0"
       gradientUnits="userSpaceOnUse"
       gradientTransform="matrix(720.122,661.733,661.733,-720.122,1611.51,2512.02)"
       spreadMethod="pad"
       id="linearGradient244"><stop
         style="stop-opacity:1;stop-color:#8fd131"
         offset="0"
         id="stop240" /><stop
         style="stop-opacity:1;stop-color:#50c285"
         offset="1"
         id="stop242" /></linearGradient><clipPath
       clipPathUnits="userSpaceOnUse"
       id="clipPath262"><path
         d="m 3152.16,2244.73 c -17.64,0 -35.37,8.26 -46.39,25.32 l -346.68,536.5 c -23.81,36.85 2.66,85.4 46.48,85.4 0.07,0 0.14,0 0.2,0 l 601.59,9.63 c 39.93,-0.13 66.59,-41.2 50.46,-77.72 L 3202.9,2277.73 c -9.59,-21.71 -30.11,-33 -50.74,-33"
         id="path260"
         inkscape:connector-curvature="0" /></clipPath><linearGradient
       x1="0"
       y1="0"
       x2="1"
       y2="0"
       gradientUnits="userSpaceOnUse"
       gradientTransform="matrix(599.986,-266.624,-266.624,-599.986,2735.42,2815.02)"
       spreadMethod="pad"
       id="linearGradient268"><stop
         style="stop-opacity:1;stop-color:#9adcbd"
         offset="0"
         id="stop264" /><stop
         style="stop-opacity:1;stop-color:#afe4df"
         offset="1"
         id="stop266" /></linearGradient><clipPath
       clipPathUnits="userSpaceOnUse"
       id="clipPath278"><path
         d="m 3491.84,2751.66 -557.97,225.09 c -40.43,17.22 -83.84,-17.25 -76.22,-60.52 l 110.73,-629.09 c 7.64,-43.38 60.41,-60.9 92.47,-30.69 l 447.25,403.98 c 29.06,27.38 20.46,75.58 -16.26,91.23 z"
         id="path276"
         inkscape:connector-curvature="0" /></clipPath><linearGradient
       x1="0"
       y1="0"
       x2="1"
       y2="0"
       gradientUnits="userSpaceOnUse"
       gradientTransform="matrix(720.122,661.733,661.733,-720.122,2863.3,2512.02)"
       spreadMethod="pad"
       id="linearGradient284"><stop
         style="stop-opacity:1;stop-color:#50c285"
         offset="0"
         id="stop280" /><stop
         style="stop-opacity:1;stop-color:#69ccc6"
         offset="1"
         id="stop282" /></linearGradient><clipPath
       clipPathUnits="userSpaceOnUse"
       id="clipPath302"><path
         d="m 4400.15,2242.92 c -16.42,0 -32.98,7.18 -44.24,22.33 l -381.18,512.56 c -26.22,35.26 -2.89,85.55 40.96,88.29 l 599.66,49.13 c 1.21,0.08 2.41,0.12 3.6,0.12 37.98,0 65.13,-37.99 51.85,-74.35 l -218.48,-561.69 c -8.63,-23.64 -30.28,-36.39 -52.17,-36.39"
         id="path300"
         inkscape:connector-curvature="0" /></clipPath><linearGradient
       x1="0"
       y1="0"
       x2="1"
       y2="0"
       gradientUnits="userSpaceOnUse"
       gradientTransform="matrix(616.209,-226.624,-226.624,-616.209,3950.54,2784.71)"
       spreadMethod="pad"
       id="linearGradient308"><stop
         style="stop-opacity:1;stop-color:#9dded9"
         offset="0"
         id="stop304" /><stop
         style="stop-opacity:1;stop-color:#c4ecf4"
         offset="1"
         id="stop306" /></linearGradient><clipPath
       clipPathUnits="userSpaceOnUse"
       id="clipPath318"><path
         d="m 4713.08,2751.66 -557.98,225.09 c -40.42,17.22 -83.84,-17.25 -76.22,-60.52 l 110.73,-629.09 c 7.64,-43.38 60.42,-60.9 92.48,-30.69 l 447.24,403.98 c 29.06,27.38 20.47,75.58 -16.25,91.23 z"
         id="path316"
         inkscape:connector-curvature="0" /></clipPath><linearGradient
       x1="0"
       y1="0"
       x2="1"
       y2="0"
       gradientUnits="userSpaceOnUse"
       gradientTransform="matrix(720.122,661.733,661.733,-720.122,4084.54,2512.02)"
       spreadMethod="pad"
       id="linearGradient324"><stop
         style="stop-opacity:1;stop-color:#53c5be"
         offset="0"
         id="stop320" /><stop
         style="stop-opacity:1;stop-color:#86d8ee"
         offset="1"
         id="stop322" /></linearGradient><clipPath
       clipPathUnits="userSpaceOnUse"
       id="clipPath342"><path
         d="m 739.801,811.52 c -14.899,0 -29.981,5.96 -41.285,18.781 L 276.094,1309.45 c -29.055,32.96 -9.977,85 33.5,91.38 l 593.511,98.75 c 2.79,0.41 5.54,0.61 8.247,0.61 35.617,0 62.964,-34.2 53.175,-69.99 L 793.434,852.301 c -7.11,-25.992 -30.149,-40.781 -53.633,-40.781"
         id="path340"
         inkscape:connector-curvature="0" /></clipPath><linearGradient
       x1="0"
       y1="0"
       x2="1"
       y2="0"
       gradientUnits="userSpaceOnUse"
       gradientTransform="matrix(632.896,-174.684,-174.684,-632.896,251.429,1314.32)"
       spreadMethod="pad"
       id="linearGradient348"><stop
         style="stop-opacity:1;stop-color:#9adeee"
         offset="0"
         id="stop344" /><stop
         style="stop-opacity:1;stop-color:#97cdee"
         offset="1"
         id="stop346" /></linearGradient><clipPath
       clipPathUnits="userSpaceOnUse"
       id="clipPath358"><path
         d="m 1018.81,1320.04 -557.974,225.09 c -40.422,17.22 -83.832,-17.25 -76.219,-60.52 L 495.352,855.52 c 7.636,-43.379 60.41,-60.899 92.476,-30.7 l 447.242,404 c 29.06,27.36 20.47,75.56 -16.26,91.22 z"
         id="path356"
         inkscape:connector-curvature="0" /></clipPath><linearGradient
       x1="0"
       y1="0"
       x2="1"
       y2="0"
       gradientUnits="userSpaceOnUse"
       gradientTransform="matrix(720.122,661.733,661.733,-720.122,390.277,1080.4)"
       spreadMethod="pad"
       id="linearGradient364"><stop
         style="stop-opacity:1;stop-color:#4db5e8"
         offset="0"
         id="stop360" /><stop
         style="stop-opacity:1;stop-color:#4385cd"
         offset="1"
         id="stop362" /></linearGradient><clipPath
       clipPathUnits="userSpaceOnUse"
       id="clipPath382"><path
         d="m 1959.29,811.449 c -14.97,0 -30.13,6.012 -41.44,18.949 l -420.37,480.942 c -28.92,33.08 -9.61,85.06 33.89,91.24 l 593.92,96.22 c 2.71,0.38 5.38,0.57 8.01,0.57 35.74,0 63.08,-34.38 53.12,-70.21 L 2012.87,852 c -7.2,-25.871 -30.17,-40.559 -53.58,-40.551"
         id="path380"
         inkscape:connector-curvature="0" /></clipPath><linearGradient
       x1="0"
       y1="0"
       x2="1"
       y2="0"
       gradientUnits="userSpaceOnUse"
       gradientTransform="matrix(632.145,-177.382,-177.382,-632.145,1472.84,1316.31)"
       spreadMethod="pad"
       id="linearGradient388"><stop
         style="stop-opacity:1;stop-color:#97cdee"
         offset="0"
         id="stop384" /><stop
         style="stop-opacity:1;stop-color:#aca7db"
         offset="1"
         id="stop386" /></linearGradient><clipPath
       clipPathUnits="userSpaceOnUse"
       id="clipPath398"><path
         d="m 2240.05,1320.04 -557.98,225.09 c -40.42,17.22 -83.83,-17.25 -76.22,-60.52 l 110.74,-629.09 c 7.63,-43.379 60.41,-60.899 92.47,-30.7 l 447.24,404 c 29.06,27.36 20.48,75.56 -16.25,91.22 z"
         id="path396"
         inkscape:connector-curvature="0" /></clipPath><linearGradient
       x1="0"
       y1="0"
       x2="1"
       y2="0"
       gradientUnits="userSpaceOnUse"
       gradientTransform="matrix(720.122,661.733,661.733,-720.122,1611.51,1080.4)"
       spreadMethod="pad"
       id="linearGradient404"><stop
         style="stop-opacity:1;stop-color:#4385cd"
         offset="0"
         id="stop400" /><stop
         style="stop-opacity:1;stop-color:#4655ae"
         offset="1"
         id="stop402" /></linearGradient><clipPath
       clipPathUnits="userSpaceOnUse"
       id="clipPath422"><path
         d="m 3182.5,811.191 c -16.26,0 -32.66,7.051 -43.95,21.938 l -385.67,509.191 c -26.53,35.03 -3.63,85.52 40.2,88.65 l 599.19,54.4 c 1.39,0.1 2.75,0.15 4.1,0.15 37.73,0 64.9,-37.58 52.01,-73.89 L 3234.84,848.039 c -8.48,-23.891 -30.29,-36.848 -52.34,-36.848"
         id="path420"
         inkscape:connector-curvature="0" /></clipPath><linearGradient
       x1="0"
       y1="0"
       x2="1"
       y2="0"
       gradientUnits="userSpaceOnUse"
       gradientTransform="matrix(618.177,-221.197,-221.197,-618.177,2728.64,1349.01)"
       spreadMethod="pad"
       id="linearGradient428"><stop
         style="stop-opacity:1;stop-color:#aca7db"
         offset="0"
         id="stop424" /><stop
         style="stop-opacity:1;stop-color:#ccb9e2"
         offset="1"
         id="stop426" /></linearGradient><clipPath
       clipPathUnits="userSpaceOnUse"
       id="clipPath438"><path
         d="m 3491.84,1320.04 -557.97,225.09 c -40.43,17.22 -83.84,-17.25 -76.22,-60.52 l 110.73,-629.09 c 7.64,-43.379 60.41,-60.899 92.47,-30.7 l 447.25,404 c 29.06,27.36 20.46,75.56 -16.26,91.22 z"
         id="path436"
         inkscape:connector-curvature="0" /></clipPath><linearGradient
       x1="0"
       y1="0"
       x2="1"
       y2="0"
       gradientUnits="userSpaceOnUse"
       gradientTransform="matrix(720.122,661.733,661.733,-720.122,2863.3,1080.4)"
       spreadMethod="pad"
       id="linearGradient444"><stop
         style="stop-opacity:1;stop-color:#4655ae"
         offset="0"
         id="stop440" /><stop
         style="stop-opacity:1;stop-color:#7f73c1"
         offset="1"
         id="stop442" /></linearGradient><clipPath
       clipPathUnits="userSpaceOnUse"
       id="clipPath462"><path
         d="m 4411.57,811.059 c -15.91,0 -31.96,6.75 -43.28,21.113 l -395.38,501.688 c -27.2,34.51 -5.27,85.43 38.49,89.39 l 598.04,65.91 c 1.75,0.16 3.47,0.24 5.18,0.24 37.16,0 64.41,-36.69 52.32,-72.9 L 4464.28,848.922 c -8.16,-24.453 -30.29,-37.863 -52.71,-37.863"
         id="path460"
         inkscape:connector-curvature="0" /></clipPath><linearGradient
       x1="0"
       y1="0"
       x2="1"
       y2="0"
       gradientUnits="userSpaceOnUse"
       gradientTransform="matrix(622.311,-209.285,-209.285,-622.311,3948.55,1340.08)"
       spreadMethod="pad"
       id="linearGradient468"><stop
         style="stop-opacity:1;stop-color:#b09cd5"
         offset="0"
         id="stop464" /><stop
         style="stop-opacity:1;stop-color:#dbaddb"
         offset="1"
         id="stop466" /></linearGradient><clipPath
       clipPathUnits="userSpaceOnUse"
       id="clipPath478"><path
         d="m 4713.08,1320.04 -557.98,225.09 c -40.42,17.22 -83.84,-17.25 -76.22,-60.52 l 110.73,-629.09 c 7.64,-43.379 60.42,-60.899 92.48,-30.7 l 447.24,404 c 29.06,27.36 20.47,75.56 -16.25,91.22 z"
         id="path476"
         inkscape:connector-curvature="0" /></clipPath><linearGradient
       x1="0"
       y1="0"
       x2="1"
       y2="0"
       gradientUnits="userSpaceOnUse"
       gradientTransform="matrix(720.122,661.733,661.733,-720.122,4084.54,1080.4)"
       spreadMethod="pad"
       id="linearGradient484"><stop
         style="stop-opacity:1;stop-color:#4c4daa"
         offset="0"
         id="stop480" /><stop
         style="stop-opacity:1;stop-color:#a35fb6"
         offset="1"
         id="stop482" /></linearGradient><clipPath
       id="clipPath894"
       clipPathUnits="userSpaceOnUse"><path
         inkscape:connector-curvature="0"
         id="path892"
         d="m 712.887,3719.58 c -16.11,0 -32.356,6.92 -43.657,21.58 l -389.917,505.95 c -26.825,34.8 -4.356,85.48 39.449,88.97 l 598.722,59.41 c 1.543,0.13 3.063,0.19 4.571,0.19 37.476,0 64.691,-37.19 52.144,-73.46 L 765.391,3756.86 c -8.344,-24.13 -30.289,-37.28 -52.504,-37.28" /></clipPath><clipPath
       id="clipPath910"
       clipPathUnits="userSpaceOnUse"><path
         inkscape:connector-curvature="0"
         id="path908"
         d="m 1018.81,4228.5 -557.974,225.09 c -40.422,17.23 -83.832,-17.24 -76.219,-60.52 l 110.735,-629.09 c 7.636,-43.37 60.41,-60.89 92.476,-30.69 l 447.242,403.99 c 29.06,27.37 20.47,75.57 -16.26,91.22 z" /></clipPath><clipPath
       id="clipPath934"
       clipPathUnits="userSpaceOnUse"><path
         inkscape:connector-curvature="0"
         id="path932"
         d="m 1956.68,3719.8 c -15.09,0 -30.37,6.11 -41.69,19.23 l -417.27,483.63 c -28.7,33.26 -9.07,85.11 34.47,91.01 l 594.53,92.4 c 2.59,0.36 5.14,0.52 7.66,0.52 35.91,0 63.25,-34.66 53.02,-70.54 l -177.25,-576.04 c -7.33,-25.69 -30.19,-40.21 -53.47,-40.21" /></clipPath><clipPath
       id="clipPath950"
       clipPathUnits="userSpaceOnUse"><path
         inkscape:connector-curvature="0"
         id="path948"
         d="m 2240.05,4228.5 -557.98,225.09 c -40.42,17.23 -83.83,-17.24 -76.22,-60.52 l 110.74,-629.09 c 7.63,-43.37 60.41,-60.89 92.47,-30.69 l 447.24,403.99 c 29.06,27.37 20.48,75.57 -16.25,91.22 z" /></clipPath><clipPath
       id="clipPath974"
       clipPathUnits="userSpaceOnUse"><path
         inkscape:connector-curvature="0"
         id="path972"
         d="m 3175.48,3719.9 c -16.58,0 -33.28,7.31 -44.53,22.71 l -376.85,515.75 c -25.93,35.48 -2.17,85.57 41.71,87.94 l 600.05,44.08 c 1.05,0.05 2.08,0.08 3.11,0.08 38.24,0 65.36,-38.38 51.71,-74.78 l -223.2,-559.83 c -8.77,-23.4 -30.28,-35.95 -52,-35.95" /></clipPath><clipPath
       id="clipPath990"
       clipPathUnits="userSpaceOnUse"><path
         inkscape:connector-curvature="0"
         id="path988"
         d="m 3491.84,4228.5 -557.97,225.09 c -40.43,17.23 -83.84,-17.24 -76.22,-60.52 l 110.73,-629.09 c 7.64,-43.37 60.41,-60.89 92.47,-30.69 l 447.25,403.99 c 29.06,27.37 20.46,75.57 -16.26,91.22 z" /></clipPath><clipPath
       id="clipPath1014"
       clipPathUnits="userSpaceOnUse"><path
         inkscape:connector-curvature="0"
         id="path1012"
         d="m 4404.77,3719.63 c -16.22,0 -32.57,7.01 -43.86,21.83 l -386.97,508.22 c -26.61,34.96 -3.84,85.51 39.98,88.74 l 599.06,55.92 c 1.42,0.11 2.83,0.16 4.23,0.16 37.65,0 64.85,-37.46 52.06,-73.76 l -212.11,-564.13 c -8.45,-23.97 -30.29,-36.98 -52.39,-36.98" /></clipPath><clipPath
       id="clipPath1030"
       clipPathUnits="userSpaceOnUse"><path
         inkscape:connector-curvature="0"
         id="path1028"
         d="m 4713.08,4228.5 -557.98,225.09 c -40.42,17.23 -83.84,-17.24 -76.22,-60.52 l 110.73,-629.09 c 7.64,-43.37 60.42,-60.89 92.48,-30.69 l 447.24,403.99 c 29.06,27.37 20.47,75.57 -16.25,91.22 z" /></clipPath><clipPath
       id="clipPath1054"
       clipPathUnits="userSpaceOnUse"><path
         inkscape:connector-curvature="0"
         id="path1052"
         d="m 847.84,2263.1 c -10.145,0 -20.551,2.85 -30.141,9.12 L 283.023,2621.7 c -36.777,24.04 -32.234,79.29 7.977,97 l 545.848,253.1 c 7.382,3.25 14.953,4.76 22.328,4.76 29.121,0 55.262,-23.44 55.336,-55.29 L 903.34,2318.68 c 0.078,-32.58 -26.656,-55.58 -55.5,-55.58" /></clipPath><clipPath
       id="clipPath1070"
       clipPathUnits="userSpaceOnUse"><path
         inkscape:connector-curvature="0"
         id="path1068"
         d="m 1018.81,2751.66 -557.974,225.09 c -40.422,17.22 -83.832,-17.25 -76.219,-60.52 l 110.735,-629.09 c 7.636,-43.38 60.41,-60.9 92.476,-30.69 l 447.242,403.98 c 29.06,27.38 20.47,75.58 -16.26,91.23 z" /></clipPath><clipPath
       id="clipPath1094"
       clipPathUnits="userSpaceOnUse"><path
         inkscape:connector-curvature="0"
         id="path1092"
         d="m 1906.51,2244.16 c -17.37,0 -34.82,8.01 -45.92,24.62 l -354.74,531.2 c -24.4,36.54 1.44,85.58 45.39,86.1 l 601.37,18.71 c 0.23,0.01 0.46,0.01 0.69,0.01 39.54,0 66.42,-40.41 50.93,-76.95 L 1957.6,2277.93 c -9.39,-22.16 -30.17,-33.77 -51.09,-33.77" /></clipPath><clipPath
       id="clipPath1110"
       clipPathUnits="userSpaceOnUse"><path
         inkscape:connector-curvature="0"
         id="path1108"
         d="m 2240.05,2751.66 -557.98,225.09 c -40.42,17.22 -83.83,-17.25 -76.22,-60.52 l 110.74,-629.09 c 7.63,-43.38 60.41,-60.9 92.47,-30.69 l 447.24,403.98 c 29.06,27.38 20.48,75.58 -16.25,91.23 z" /></clipPath><clipPath
       id="clipPath1134"
       clipPathUnits="userSpaceOnUse"><path
         inkscape:connector-curvature="0"
         id="path1132"
         d="m 3152.16,2244.73 c -17.64,0 -35.37,8.26 -46.39,25.32 l -346.68,536.5 c -23.81,36.85 2.66,85.4 46.48,85.4 0.07,0 0.14,0 0.2,0 l 601.59,9.63 c 39.93,-0.13 66.59,-41.2 50.46,-77.72 L 3202.9,2277.73 c -9.59,-21.71 -30.11,-33 -50.74,-33" /></clipPath><clipPath
       id="clipPath1150"
       clipPathUnits="userSpaceOnUse"><path
         inkscape:connector-curvature="0"
         id="path1148"
         d="m 3491.84,2751.66 -557.97,225.09 c -40.43,17.22 -83.84,-17.25 -76.22,-60.52 l 110.73,-629.09 c 7.64,-43.38 60.41,-60.9 92.47,-30.69 l 447.25,403.98 c 29.06,27.38 20.46,75.58 -16.26,91.23 z" /></clipPath><clipPath
       id="clipPath1174"
       clipPathUnits="userSpaceOnUse"><path
         inkscape:connector-curvature="0"
         id="path1172"
         d="m 4400.15,2242.92 c -16.42,0 -32.98,7.18 -44.24,22.33 l -381.18,512.56 c -26.22,35.26 -2.89,85.55 40.96,88.29 l 599.66,49.13 c 1.21,0.08 2.41,0.12 3.6,0.12 37.98,0 65.13,-37.99 51.85,-74.35 l -218.48,-561.69 c -8.63,-23.64 -30.28,-36.39 -52.17,-36.39" /></clipPath><clipPath
       id="clipPath1190"
       clipPathUnits="userSpaceOnUse"><path
         inkscape:connector-curvature="0"
         id="path1188"
         d="m 4713.08,2751.66 -557.98,225.09 c -40.42,17.22 -83.84,-17.25 -76.22,-60.52 l 110.73,-629.09 c 7.64,-43.38 60.42,-60.9 92.48,-30.69 l 447.24,403.98 c 29.06,27.38 20.47,75.58 -16.25,91.23 z" /></clipPath><clipPath
       id="clipPath1214"
       clipPathUnits="userSpaceOnUse"><path
         inkscape:connector-curvature="0"
         id="path1212"
         d="m 739.801,811.52 c -14.899,0 -29.981,5.96 -41.285,18.781 L 276.094,1309.45 c -29.055,32.96 -9.977,85 33.5,91.38 l 593.511,98.75 c 2.79,0.41 5.54,0.61 8.247,0.61 35.617,0 62.964,-34.2 53.175,-69.99 L 793.434,852.301 c -7.11,-25.992 -30.149,-40.781 -53.633,-40.781" /></clipPath><clipPath
       id="clipPath1230"
       clipPathUnits="userSpaceOnUse"><path
         inkscape:connector-curvature="0"
         id="path1228"
         d="m 1018.81,1320.04 -557.974,225.09 c -40.422,17.22 -83.832,-17.25 -76.219,-60.52 L 495.352,855.52 c 7.636,-43.379 60.41,-60.899 92.476,-30.7 l 447.242,404 c 29.06,27.36 20.47,75.56 -16.26,91.22 z" /></clipPath><clipPath
       id="clipPath1254"
       clipPathUnits="userSpaceOnUse"><path
         inkscape:connector-curvature="0"
         id="path1252"
         d="m 1959.29,811.449 c -14.97,0 -30.13,6.012 -41.44,18.949 l -420.37,480.942 c -28.92,33.08 -9.61,85.06 33.89,91.24 l 593.92,96.22 c 2.71,0.38 5.38,0.57 8.01,0.57 35.74,0 63.08,-34.38 53.12,-70.21 L 2012.87,852 c -7.2,-25.871 -30.17,-40.559 -53.58,-40.551" /></clipPath><clipPath
       id="clipPath1270"
       clipPathUnits="userSpaceOnUse"><path
         inkscape:connector-curvature="0"
         id="path1268"
         d="m 2240.05,1320.04 -557.98,225.09 c -40.42,17.22 -83.83,-17.25 -76.22,-60.52 l 110.74,-629.09 c 7.63,-43.379 60.41,-60.899 92.47,-30.7 l 447.24,404 c 29.06,27.36 20.48,75.56 -16.25,91.22 z" /></clipPath><clipPath
       id="clipPath1294"
       clipPathUnits="userSpaceOnUse"><path
         inkscape:connector-curvature="0"
         id="path1292"
         d="m 3182.5,811.191 c -16.26,0 -32.66,7.051 -43.95,21.938 l -385.67,509.191 c -26.53,35.03 -3.63,85.52 40.2,88.65 l 599.19,54.4 c 1.39,0.1 2.75,0.15 4.1,0.15 37.73,0 64.9,-37.58 52.01,-73.89 L 3234.84,848.039 c -8.48,-23.891 -30.29,-36.848 -52.34,-36.848" /></clipPath><clipPath
       id="clipPath1310"
       clipPathUnits="userSpaceOnUse"><path
         inkscape:connector-curvature="0"
         id="path1308"
         d="m 3491.84,1320.04 -557.97,225.09 c -40.43,17.22 -83.84,-17.25 -76.22,-60.52 l 110.73,-629.09 c 7.64,-43.379 60.41,-60.899 92.47,-30.7 l 447.25,404 c 29.06,27.36 20.46,75.56 -16.26,91.22 z" /></clipPath><clipPath
       id="clipPath1334"
       clipPathUnits="userSpaceOnUse"><path
         inkscape:connector-curvature="0"
         id="path1332"
         d="m 4411.57,811.059 c -15.91,0 -31.96,6.75 -43.28,21.113 l -395.38,501.688 c -27.2,34.51 -5.27,85.43 38.49,89.39 l 598.04,65.91 c 1.75,0.16 3.47,0.24 5.18,0.24 37.16,0 64.41,-36.69 52.32,-72.9 L 4464.28,848.922 c -8.16,-24.453 -30.29,-37.863 -52.71,-37.863" /></clipPath><clipPath
       id="clipPath1350"
       clipPathUnits="userSpaceOnUse"><path
         inkscape:connector-curvature="0"
         id="path1348"
         d="m 4713.08,1320.04 -557.98,225.09 c -40.42,17.22 -83.84,-17.25 -76.22,-60.52 l 110.73,-629.09 c 7.64,-43.379 60.42,-60.899 92.48,-30.7 l 447.24,404 c 29.06,27.36 20.47,75.56 -16.25,91.22 z" /></clipPath></defs><sodipodi:namedview
     pagecolor="#ffffff"
     bordercolor="#666666"
     borderopacity="1"
     objecttolerance="10"
     gridtolerance="10"
     guidetolerance="10"
     inkscape:pageopacity="0"
     inkscape:pageshadow="2"
     inkscape:window-width="1920"
     inkscape:window-height="1015"
     id="namedview4"
     showgrid="false"
     fit-margin-top="0"
     fit-margin-left="0"
     fit-margin-right="0"
     fit-margin-bottom="0"
     inkscape:zoom="0.76107044"
     inkscape:cx="24.541454"
     inkscape:cy="-105.13722"
     inkscape:window-x="0"
     inkscape:window-y="0"
     inkscape:window-maximized="1"
     inkscape:current-layer="g10"
     inkscape:lockguides="true" /><g
     id="g10"
     inkscape:groupmode="layer"
     inkscape:label="ink_ext_XXXXXX"
     transform="matrix(1.3333333,0,0,-1.3333333,-140.45813,732.5564)"><g
       id="g1908"
       transform="translate(-79.542376,76.867686)"><g
         transform="matrix(0.1,0,0,0.1,36.464629,23.864513)"
         id="g928"><g
           id="g930"
           clip-path="url(#clipPath934)"><path
             d="m 1956.68,3719.8 c -15.09,0 -30.37,6.11 -41.69,19.23 l -417.27,483.63 c -28.7,33.26 -9.07,85.11 34.47,91.01 l 594.53,92.4 c 2.59,0.36 5.14,0.52 7.66,0.52 35.91,0 63.25,-34.66 53.02,-70.54 l -177.25,-576.04 c -7.33,-25.69 -30.19,-40.21 -53.47,-40.21"
             style="fill:url(#linearGradient68);fill-opacity:1;fill-rule:nonzero;stroke:none"
             id="path942"
             inkscape:connector-curvature="0" /></g></g><g
         transform="matrix(0.1,0,0,0.1,36.464629,23.864513)"
         id="g944"><g
           id="g946"
           clip-path="url(#clipPath950)"><path
             d="m 2240.05,4228.5 -557.98,225.09 c -40.42,17.23 -83.83,-17.24 -76.22,-60.52 l 110.74,-629.09 c 7.63,-43.37 60.41,-60.89 92.47,-30.69 l 447.24,403.99 c 29.06,27.37 20.48,75.57 -16.25,91.22"
             style="fill:url(#linearGradient84);fill-opacity:1;fill-rule:nonzero;stroke:none"
             id="path958"
             inkscape:connector-curvature="0" /></g></g><path
         d="m 209.97163,472.04851 c -0.741,0 -1.489,-0.161 -2.203,-0.485 -1.794,-0.815 -2.948,-2.475 -3.086,-4.44 l -4.488,-63.718 c -0.138,-1.971 0.775,-3.778 2.443,-4.836 1.667,-1.058 3.691,-1.111 5.415,-0.146 l 53.179,28.371 c 1.557,0.873 2.563,2.462 2.684,4.248 0.122,1.785 -0.657,3.495 -2.083,4.574 l -48.686,35.349 c -0.948,0.717 -2.054,1.083 -3.175,1.083 z m -4.507,-74.814 c -1.069,0 -2.136,0.305 -3.095,0.913 -1.825,1.157 -2.825,3.136 -2.674,5.293 l 4.488,63.718 c 0.152,2.151 1.414,3.968 3.378,4.86 1.965,0.894 4.164,0.648 5.883,-0.652 l 48.687,-35.349 c 1.563,-1.182 2.417,-3.055 2.283,-5.009 -0.133,-1.955 -1.234,-3.694 -2.943,-4.653 l -53.179,-28.371 c -0.893,-0.501 -1.862,-0.75 -2.828,-0.75"
         style="fill:#e7259c;fill-opacity:1;fill-rule:nonzero;stroke:none;stroke-width:0.1"
         id="path960"
         inkscape:connector-curvature="0" /><g
         id="g962"
         transform="translate(36.464629,23.864513)"><g
           id="text966"
           style="font-variant:normal;font-weight:500;font-size:29px;font-family:AdventPro;-inkscape-font-specification:AdventPro-Medium;writing-mode:lr-tb;fill:#ffffff;fill-opacity:1;fill-rule:nonzero;stroke:none"
           transform="matrix(1,0,0,-1,176.241,401.096)"
           aria-label="02"><path
             inkscape:connector-curvature="0"
             id="path1892"
             d="m 9.2182617,-19.257812 q -2.2089844,0 -3.3276367,2.180664 -1.1044922,2.166503 -1.1044922,6.527832 0,4.3471676 1.1044922,6.5278316 1.1186523,2.1665039 3.3276367,2.1665039 2.2231443,0 3.3276363,-2.1665039 1.118653,-2.180664 1.118653,-6.5278316 0,-4.361329 -1.118653,-6.527832 -1.104492,-2.180664 -3.3276363,-2.180664 z m 0,-2.265625 q 3.5541993,0 5.4233403,2.817871 1.8833,2.803711 1.8833,8.15625 0,5.3383785 -1.8833,8.1562496 -1.869141,2.80371093 -5.4233403,2.80371093 -3.5541992,0 -5.4375,-2.80371093 -1.8691406,-2.8178711 -1.8691406,-8.1562496 0,-5.352539 1.8691406,-8.15625 1.8833008,-2.817871 5.4375,-2.817871 z" /><path
             inkscape:connector-curvature="0"
             id="path1894"
             d="m 21.485941,-2.4072266 h 9.98291 V 0 H 18.045023 v -2.4072266 q 1.628418,-1.6850586 4.432129,-4.5170898 2.817871,-2.8461914 3.540039,-3.6674806 1.373535,-1.543457 1.911621,-2.605469 0.552246,-1.076172 0.552246,-2.109863 0,-1.685058 -1.189453,-2.74707 -1.175293,-1.062012 -3.072754,-1.062012 -1.345215,0 -2.846191,0.467285 -1.486817,0.467285 -3.186035,1.416016 v -2.888672 q 1.727539,-0.693848 3.228515,-1.047852 1.500977,-0.354003 2.74707,-0.354003 3.285157,0 5.239258,1.642578 1.954102,1.642578 1.954102,4.389648 0,1.302734 -0.495606,2.478027 -0.481445,1.161133 -1.770019,2.747071 -0.354004,0.4106442 -2.251465,2.378906 -1.897461,1.9541015 -5.352539,5.4799804 z" /></g></g></g></g></svg>