<?xml version="1.0" encoding="UTF-8" standalone="no"?>
<!-- Created with Inkscape (http://www.inkscape.org/) -->

<svg
   xmlns:dc="http://purl.org/dc/elements/1.1/"
   xmlns:cc="http://creativecommons.org/ns#"
   xmlns:rdf="http://www.w3.org/1999/02/22-rdf-syntax-ns#"
   xmlns:svg="http://www.w3.org/2000/svg"
   xmlns="http://www.w3.org/2000/svg"
   xmlns:sodipodi="http://sodipodi.sourceforge.net/DTD/sodipodi-0.dtd"
   xmlns:inkscape="http://www.inkscape.org/namespaces/inkscape"
   version="1.1"
   id="svg2"
   xml:space="preserve"
   width="106.72732"
   height="102.49058"
   viewBox="0 0 106.72732 102.49059"
   sodipodi:docname="05.svg"
   inkscape:version="0.92.3 (2405546, 2018-03-11)"><metadata
     id="metadata8"><rdf:RDF><cc:Work
         rdf:about=""><dc:format>image/svg+xml</dc:format><dc:type
           rdf:resource="http://purl.org/dc/dcmitype/StillImage" /><dc:title></dc:title></cc:Work></rdf:RDF></metadata><defs
     id="defs6"><clipPath
       clipPathUnits="userSpaceOnUse"
       id="clipPath22"><path
         d="m 712.887,3719.58 c -16.11,0 -32.356,6.92 -43.657,21.58 l -389.917,505.95 c -26.825,34.8 -4.356,85.48 39.449,88.97 l 598.722,59.41 c 1.543,0.13 3.063,0.19 4.571,0.19 37.476,0 64.691,-37.19 52.144,-73.46 L 765.391,3756.86 c -8.344,-24.13 -30.289,-37.28 -52.504,-37.28"
         id="path20"
         inkscape:connector-curvature="0" /></clipPath><linearGradient
       x1="0"
       y1="0"
       x2="1"
       y2="0"
       gradientUnits="userSpaceOnUse"
       gradientTransform="matrix(62.0005,-21.6022,-21.6022,-62.0005,-902.77311,445.44445)"
       spreadMethod="pad"
       id="linearGradient28"><stop
         style="stop-opacity:1;stop-color:#cd97d1"
         offset="0"
         id="stop24" /><stop
         style="stop-opacity:1;stop-color:#f393ce"
         offset="1"
         id="stop26" /></linearGradient><clipPath
       clipPathUnits="userSpaceOnUse"
       id="clipPath38"><path
         d="m 1018.81,4228.5 -557.974,225.09 c -40.422,17.23 -83.832,-17.24 -76.219,-60.52 l 110.735,-629.09 c 7.636,-43.37 60.41,-60.89 92.476,-30.69 l 447.242,403.99 c 29.06,27.37 20.47,75.57 -16.26,91.22 z"
         id="path36"
         inkscape:connector-curvature="0" /></clipPath><linearGradient
       x1="0"
       y1="0"
       x2="1"
       y2="0"
       gradientUnits="userSpaceOnUse"
       gradientTransform="matrix(72.0122,66.1733,66.1733,-72.0122,-889.24711,418.97145)"
       spreadMethod="pad"
       id="linearGradient44"><stop
         style="stop-opacity:1;stop-color:#8742a6"
         offset="0"
         id="stop40" /><stop
         style="stop-opacity:1;stop-color:#e8259c"
         offset="1"
         id="stop42" /></linearGradient><clipPath
       clipPathUnits="userSpaceOnUse"
       id="clipPath62"><path
         d="m 1956.68,3719.8 c -15.09,0 -30.37,6.11 -41.69,19.23 l -417.27,483.63 c -28.7,33.26 -9.07,85.11 34.47,91.01 l 594.53,92.4 c 2.59,0.36 5.14,0.52 7.66,0.52 35.91,0 63.25,-34.66 53.02,-70.54 l -177.25,-576.04 c -7.33,-25.69 -30.19,-40.21 -53.47,-40.21"
         id="path60"
         inkscape:connector-curvature="0" /></clipPath><linearGradient
       x1="0"
       y1="0"
       x2="1"
       y2="0"
       gradientUnits="userSpaceOnUse"
       gradientTransform="matrix(63.0993,-18.1437,-18.1437,-63.0993,-780.96381,442.86445)"
       spreadMethod="pad"
       id="linearGradient68"><stop
         style="stop-opacity:1;stop-color:#f393ce"
         offset="0"
         id="stop64" /><stop
         style="stop-opacity:1;stop-color:#f9a9be"
         offset="1"
         id="stop66" /></linearGradient><clipPath
       clipPathUnits="userSpaceOnUse"
       id="clipPath78"><path
         d="m 2240.05,4228.5 -557.98,225.09 c -40.42,17.23 -83.83,-17.24 -76.22,-60.52 l 110.74,-629.09 c 7.63,-43.37 60.41,-60.89 92.47,-30.69 l 447.24,403.99 c 29.06,27.37 20.48,75.57 -16.25,91.22 z"
         id="path76"
         inkscape:connector-curvature="0" /></clipPath><linearGradient
       x1="0"
       y1="0"
       x2="1"
       y2="0"
       gradientUnits="userSpaceOnUse"
       gradientTransform="matrix(72.0122,66.1733,66.1733,-72.0122,-767.12381,418.97145)"
       spreadMethod="pad"
       id="linearGradient84"><stop
         style="stop-opacity:1;stop-color:#e8259c"
         offset="0"
         id="stop80" /><stop
         style="stop-opacity:1;stop-color:#f24e79"
         offset="1"
         id="stop82" /></linearGradient><clipPath
       clipPathUnits="userSpaceOnUse"
       id="clipPath102"><path
         d="m 3175.48,3719.9 c -16.58,0 -33.28,7.31 -44.53,22.71 l -376.85,515.75 c -25.93,35.48 -2.17,85.57 41.71,87.94 l 600.05,44.08 c 1.05,0.05 2.08,0.08 3.11,0.08 38.24,0 65.36,-38.38 51.71,-74.78 l -223.2,-559.83 c -8.77,-23.4 -30.28,-35.95 -52,-35.95"
         id="path100"
         inkscape:connector-curvature="0" /></clipPath><linearGradient
       x1="0"
       y1="0"
       x2="1"
       y2="0"
       gradientUnits="userSpaceOnUse"
       gradientTransform="matrix(614.276,-231.811,-231.811,-614.276,2729.98,4265.46)"
       spreadMethod="pad"
       id="linearGradient108"><stop
         style="stop-opacity:1;stop-color:#f89db7"
         offset="0"
         id="stop104" /><stop
         style="stop-opacity:1;stop-color:#fbc29b"
         offset="1"
         id="stop106" /></linearGradient><clipPath
       clipPathUnits="userSpaceOnUse"
       id="clipPath118"><path
         d="m 3491.84,4228.5 -557.97,225.09 c -40.43,17.23 -83.84,-17.24 -76.22,-60.52 l 110.73,-629.09 c 7.64,-43.37 60.41,-60.89 92.47,-30.69 l 447.25,403.99 c 29.06,27.37 20.46,75.57 -16.26,91.22 z"
         id="path116"
         inkscape:connector-curvature="0" /></clipPath><linearGradient
       x1="0"
       y1="0"
       x2="1"
       y2="0"
       gradientUnits="userSpaceOnUse"
       gradientTransform="matrix(668.741,0,0,-668.741,2856.77,4088.15)"
       spreadMethod="pad"
       id="linearGradient124"><stop
         style="stop-opacity:1;stop-color:#f03a67"
         offset="0"
         id="stop120" /><stop
         style="stop-opacity:1;stop-color:#f57c38"
         offset="1"
         id="stop122" /></linearGradient><clipPath
       clipPathUnits="userSpaceOnUse"
       id="clipPath142"><path
         d="m 4404.77,3719.63 c -16.22,0 -32.57,7.01 -43.86,21.83 l -386.97,508.22 c -26.61,34.96 -3.84,85.51 39.98,88.74 l 599.06,55.92 c 1.42,0.11 2.83,0.16 4.23,0.16 37.65,0 64.85,-37.46 52.06,-73.76 l -212.11,-564.13 c -8.45,-23.97 -30.29,-36.98 -52.39,-36.98"
         id="path140"
         inkscape:connector-curvature="0" /></clipPath><linearGradient
       x1="0"
       y1="0"
       x2="1"
       y2="0"
       gradientUnits="userSpaceOnUse"
       gradientTransform="matrix(618.733,-219.637,-219.637,-618.733,3949.69,4256.3)"
       spreadMethod="pad"
       id="linearGradient148"><stop
         style="stop-opacity:1;stop-color:#fbc29b"
         offset="0"
         id="stop144" /><stop
         style="stop-opacity:1;stop-color:#f3eda6"
         offset="1"
         id="stop146" /></linearGradient><clipPath
       clipPathUnits="userSpaceOnUse"
       id="clipPath158"><path
         d="m 4713.08,4228.5 -557.98,225.09 c -40.42,17.23 -83.84,-17.24 -76.22,-60.52 l 110.73,-629.09 c 7.64,-43.37 60.42,-60.89 92.48,-30.69 l 447.24,403.99 c 29.06,27.37 20.47,75.57 -16.25,91.22 z"
         id="path156"
         inkscape:connector-curvature="0" /></clipPath><linearGradient
       x1="0"
       y1="0"
       x2="1"
       y2="0"
       gradientUnits="userSpaceOnUse"
       gradientTransform="matrix(720.122,661.733,661.733,-720.122,4084.54,3988.86)"
       spreadMethod="pad"
       id="linearGradient164"><stop
         style="stop-opacity:1;stop-color:#f57c38"
         offset="0"
         id="stop160" /><stop
         style="stop-opacity:1;stop-color:#efdc47"
         offset="1"
         id="stop162" /></linearGradient><clipPath
       clipPathUnits="userSpaceOnUse"
       id="clipPath182"><path
         d="m 847.84,2263.1 c -10.145,0 -20.551,2.85 -30.141,9.12 L 283.023,2621.7 c -36.777,24.04 -32.234,79.29 7.977,97 l 545.848,253.1 c 7.382,3.25 14.953,4.76 22.328,4.76 29.121,0 55.262,-23.44 55.336,-55.29 L 903.34,2318.68 c 0.078,-32.58 -26.656,-55.58 -55.5,-55.58"
         id="path180"
         inkscape:connector-curvature="0" /></clipPath><linearGradient
       x1="0"
       y1="0"
       x2="1"
       y2="0"
       gradientUnits="userSpaceOnUse"
       gradientTransform="matrix(65.656,0,0,-65.656,-902.47971,282.06845)"
       spreadMethod="pad"
       id="linearGradient188"><stop
         style="stop-opacity:1;stop-color:#f1ea8f"
         offset="0"
         id="stop184" /><stop
         style="stop-opacity:1;stop-color:#c8e892"
         offset="1"
         id="stop186" /></linearGradient><clipPath
       clipPathUnits="userSpaceOnUse"
       id="clipPath198"><path
         d="m 1018.81,2751.66 -557.974,225.09 c -40.422,17.22 -83.832,-17.25 -76.219,-60.52 l 110.735,-629.09 c 7.636,-43.38 60.41,-60.9 92.476,-30.69 l 447.242,403.98 c 29.06,27.38 20.47,75.58 -16.26,91.23 z"
         id="path196"
         inkscape:connector-curvature="0" /></clipPath><linearGradient
       x1="0"
       y1="0"
       x2="1"
       y2="0"
       gradientUnits="userSpaceOnUse"
       gradientTransform="matrix(72.0122,66.1733,66.1733,-72.0122,-889.24711,271.28745)"
       spreadMethod="pad"
       id="linearGradient204"><stop
         style="stop-opacity:1;stop-color:#ecd125"
         offset="0"
         id="stop200" /><stop
         style="stop-opacity:1;stop-color:#8fd131"
         offset="1"
         id="stop202" /></linearGradient><clipPath
       clipPathUnits="userSpaceOnUse"
       id="clipPath222"><path
         d="m 1906.51,2244.16 c -17.37,0 -34.82,8.01 -45.92,24.62 l -354.74,531.2 c -24.4,36.54 1.44,85.58 45.39,86.1 l 601.37,18.71 c 0.23,0.01 0.46,0.01 0.69,0.01 39.54,0 66.42,-40.41 50.93,-76.95 L 1957.6,2277.93 c -9.39,-22.16 -30.17,-33.77 -51.09,-33.77"
         id="path220"
         inkscape:connector-curvature="0" /></clipPath><linearGradient
       x1="0"
       y1="0"
       x2="1"
       y2="0"
       gradientUnits="userSpaceOnUse"
       gradientTransform="matrix(60.3945,-25.7531,-25.7531,-60.3945,-780.06981,300.89545)"
       spreadMethod="pad"
       id="linearGradient228"><stop
         style="stop-opacity:1;stop-color:#c8e892"
         offset="0"
         id="stop224" /><stop
         style="stop-opacity:1;stop-color:#9adcbd"
         offset="1"
         id="stop226" /></linearGradient><clipPath
       clipPathUnits="userSpaceOnUse"
       id="clipPath238"><path
         d="m 2240.05,2751.66 -557.98,225.09 c -40.42,17.22 -83.83,-17.25 -76.22,-60.52 l 110.74,-629.09 c 7.63,-43.38 60.41,-60.9 92.47,-30.69 l 447.24,403.98 c 29.06,27.38 20.48,75.58 -16.25,91.23 z"
         id="path236"
         inkscape:connector-curvature="0" /></clipPath><linearGradient
       x1="0"
       y1="0"
       x2="1"
       y2="0"
       gradientUnits="userSpaceOnUse"
       gradientTransform="matrix(72.0122,66.1733,66.1733,-72.0122,-767.12381,271.28745)"
       spreadMethod="pad"
       id="linearGradient244"><stop
         style="stop-opacity:1;stop-color:#8fd131"
         offset="0"
         id="stop240" /><stop
         style="stop-opacity:1;stop-color:#50c285"
         offset="1"
         id="stop242" /></linearGradient><clipPath
       clipPathUnits="userSpaceOnUse"
       id="clipPath262"><path
         d="m 3152.16,2244.73 c -17.64,0 -35.37,8.26 -46.39,25.32 l -346.68,536.5 c -23.81,36.85 2.66,85.4 46.48,85.4 0.07,0 0.14,0 0.2,0 l 601.59,9.63 c 39.93,-0.13 66.59,-41.2 50.46,-77.72 L 3202.9,2277.73 c -9.59,-21.71 -30.11,-33 -50.74,-33"
         id="path260"
         inkscape:connector-curvature="0" /></clipPath><linearGradient
       x1="0"
       y1="0"
       x2="1"
       y2="0"
       gradientUnits="userSpaceOnUse"
       gradientTransform="matrix(59.9986,-26.6624,-26.6624,-59.9986,-654.73281,301.58745)"
       spreadMethod="pad"
       id="linearGradient268"><stop
         style="stop-opacity:1;stop-color:#9adcbd"
         offset="0"
         id="stop264" /><stop
         style="stop-opacity:1;stop-color:#afe4df"
         offset="1"
         id="stop266" /></linearGradient><clipPath
       clipPathUnits="userSpaceOnUse"
       id="clipPath278"><path
         d="m 3491.84,2751.66 -557.97,225.09 c -40.43,17.22 -83.84,-17.25 -76.22,-60.52 l 110.73,-629.09 c 7.64,-43.38 60.41,-60.9 92.47,-30.69 l 447.25,403.98 c 29.06,27.38 20.46,75.58 -16.26,91.23 z"
         id="path276"
         inkscape:connector-curvature="0" /></clipPath><linearGradient
       x1="0"
       y1="0"
       x2="1"
       y2="0"
       gradientUnits="userSpaceOnUse"
       gradientTransform="matrix(72.0122,66.1733,66.1733,-72.0122,-641.94481,271.28745)"
       spreadMethod="pad"
       id="linearGradient284"><stop
         style="stop-opacity:1;stop-color:#50c285"
         offset="0"
         id="stop280" /><stop
         style="stop-opacity:1;stop-color:#69ccc6"
         offset="1"
         id="stop282" /></linearGradient><clipPath
       clipPathUnits="userSpaceOnUse"
       id="clipPath302"><path
         d="m 4400.15,2242.92 c -16.42,0 -32.98,7.18 -44.24,22.33 l -381.18,512.56 c -26.22,35.26 -2.89,85.55 40.96,88.29 l 599.66,49.13 c 1.21,0.08 2.41,0.12 3.6,0.12 37.98,0 65.13,-37.99 51.85,-74.35 l -218.48,-561.69 c -8.63,-23.64 -30.28,-36.39 -52.17,-36.39"
         id="path300"
         inkscape:connector-curvature="0" /></clipPath><linearGradient
       x1="0"
       y1="0"
       x2="1"
       y2="0"
       gradientUnits="userSpaceOnUse"
       gradientTransform="matrix(61.6209,-22.6624,-22.6624,-61.6209,-533.22081,298.55645)"
       spreadMethod="pad"
       id="linearGradient308"><stop
         style="stop-opacity:1;stop-color:#9dded9"
         offset="0"
         id="stop304" /><stop
         style="stop-opacity:1;stop-color:#c4ecf4"
         offset="1"
         id="stop306" /></linearGradient><clipPath
       clipPathUnits="userSpaceOnUse"
       id="clipPath318"><path
         d="m 4713.08,2751.66 -557.98,225.09 c -40.42,17.22 -83.84,-17.25 -76.22,-60.52 l 110.73,-629.09 c 7.64,-43.38 60.42,-60.9 92.48,-30.69 l 447.24,403.98 c 29.06,27.38 20.47,75.58 -16.25,91.23 z"
         id="path316"
         inkscape:connector-curvature="0" /></clipPath><linearGradient
       x1="0"
       y1="0"
       x2="1"
       y2="0"
       gradientUnits="userSpaceOnUse"
       gradientTransform="matrix(72.0122,66.1733,66.1733,-72.0122,-519.82081,271.28745)"
       spreadMethod="pad"
       id="linearGradient324"><stop
         style="stop-opacity:1;stop-color:#53c5be"
         offset="0"
         id="stop320" /><stop
         style="stop-opacity:1;stop-color:#86d8ee"
         offset="1"
         id="stop322" /></linearGradient><clipPath
       clipPathUnits="userSpaceOnUse"
       id="clipPath342"><path
         d="m 739.801,811.52 c -14.899,0 -29.981,5.96 -41.285,18.781 L 276.094,1309.45 c -29.055,32.96 -9.977,85 33.5,91.38 l 593.511,98.75 c 2.79,0.41 5.54,0.61 8.247,0.61 35.617,0 62.964,-34.2 53.175,-69.99 L 793.434,852.301 c -7.11,-25.992 -30.149,-40.781 -53.633,-40.781"
         id="path340"
         inkscape:connector-curvature="0" /></clipPath><linearGradient
       x1="0"
       y1="0"
       x2="1"
       y2="0"
       gradientUnits="userSpaceOnUse"
       gradientTransform="matrix(63.2896,-17.4684,-17.4684,-63.2896,-903.13191,151.51745)"
       spreadMethod="pad"
       id="linearGradient348"><stop
         style="stop-opacity:1;stop-color:#9adeee"
         offset="0"
         id="stop344" /><stop
         style="stop-opacity:1;stop-color:#97cdee"
         offset="1"
         id="stop346" /></linearGradient><clipPath
       clipPathUnits="userSpaceOnUse"
       id="clipPath358"><path
         d="m 1018.81,1320.04 -557.974,225.09 c -40.422,17.22 -83.832,-17.25 -76.219,-60.52 L 495.352,855.52 c 7.636,-43.379 60.41,-60.899 92.476,-30.7 l 447.242,404 c 29.06,27.36 20.47,75.56 -16.26,91.22 z"
         id="path356"
         inkscape:connector-curvature="0" /></clipPath><linearGradient
       x1="0"
       y1="0"
       x2="1"
       y2="0"
       gradientUnits="userSpaceOnUse"
       gradientTransform="matrix(72.0122,66.1733,66.1733,-72.0122,-889.24711,128.12545)"
       spreadMethod="pad"
       id="linearGradient364"><stop
         style="stop-opacity:1;stop-color:#4db5e8"
         offset="0"
         id="stop360" /><stop
         style="stop-opacity:1;stop-color:#4385cd"
         offset="1"
         id="stop362" /></linearGradient><clipPath
       clipPathUnits="userSpaceOnUse"
       id="clipPath382"><path
         d="m 1959.29,811.449 c -14.97,0 -30.13,6.012 -41.44,18.949 l -420.37,480.942 c -28.92,33.08 -9.61,85.06 33.89,91.24 l 593.92,96.22 c 2.71,0.38 5.38,0.57 8.01,0.57 35.74,0 63.08,-34.38 53.12,-70.21 L 2012.87,852 c -7.2,-25.871 -30.17,-40.559 -53.58,-40.551"
         id="path380"
         inkscape:connector-curvature="0" /></clipPath><linearGradient
       x1="0"
       y1="0"
       x2="1"
       y2="0"
       gradientUnits="userSpaceOnUse"
       gradientTransform="matrix(63.2145,-17.7382,-17.7382,-63.2145,-780.99081,151.71645)"
       spreadMethod="pad"
       id="linearGradient388"><stop
         style="stop-opacity:1;stop-color:#97cdee"
         offset="0"
         id="stop384" /><stop
         style="stop-opacity:1;stop-color:#aca7db"
         offset="1"
         id="stop386" /></linearGradient><clipPath
       clipPathUnits="userSpaceOnUse"
       id="clipPath398"><path
         d="m 2240.05,1320.04 -557.98,225.09 c -40.42,17.22 -83.83,-17.25 -76.22,-60.52 l 110.74,-629.09 c 7.63,-43.379 60.41,-60.899 92.47,-30.7 l 447.24,404 c 29.06,27.36 20.48,75.56 -16.25,91.22 z"
         id="path396"
         inkscape:connector-curvature="0" /></clipPath><linearGradient
       x1="0"
       y1="0"
       x2="1"
       y2="0"
       gradientUnits="userSpaceOnUse"
       gradientTransform="matrix(72.0122,66.1733,66.1733,-72.0122,-767.12381,128.12545)"
       spreadMethod="pad"
       id="linearGradient404"><stop
         style="stop-opacity:1;stop-color:#4385cd"
         offset="0"
         id="stop400" /><stop
         style="stop-opacity:1;stop-color:#4655ae"
         offset="1"
         id="stop402" /></linearGradient><clipPath
       clipPathUnits="userSpaceOnUse"
       id="clipPath422"><path
         d="m 3182.5,811.191 c -16.26,0 -32.66,7.051 -43.95,21.938 l -385.67,509.191 c -26.53,35.03 -3.63,85.52 40.2,88.65 l 599.19,54.4 c 1.39,0.1 2.75,0.15 4.1,0.15 37.73,0 64.9,-37.58 52.01,-73.89 L 3234.84,848.039 c -8.48,-23.891 -30.29,-36.848 -52.34,-36.848"
         id="path420"
         inkscape:connector-curvature="0" /></clipPath><linearGradient
       x1="0"
       y1="0"
       x2="1"
       y2="0"
       gradientUnits="userSpaceOnUse"
       gradientTransform="matrix(61.8177,-22.1197,-22.1197,-61.8177,-655.41081,154.98645)"
       spreadMethod="pad"
       id="linearGradient428"><stop
         style="stop-opacity:1;stop-color:#aca7db"
         offset="0"
         id="stop424" /><stop
         style="stop-opacity:1;stop-color:#ccb9e2"
         offset="1"
         id="stop426" /></linearGradient><clipPath
       clipPathUnits="userSpaceOnUse"
       id="clipPath438"><path
         d="m 3491.84,1320.04 -557.97,225.09 c -40.43,17.22 -83.84,-17.25 -76.22,-60.52 l 110.73,-629.09 c 7.64,-43.379 60.41,-60.899 92.47,-30.7 l 447.25,404 c 29.06,27.36 20.46,75.56 -16.26,91.22 z"
         id="path436"
         inkscape:connector-curvature="0" /></clipPath><linearGradient
       x1="0"
       y1="0"
       x2="1"
       y2="0"
       gradientUnits="userSpaceOnUse"
       gradientTransform="matrix(72.0122,66.1733,66.1733,-72.0122,-641.94481,128.12545)"
       spreadMethod="pad"
       id="linearGradient444"><stop
         style="stop-opacity:1;stop-color:#4655ae"
         offset="0"
         id="stop440" /><stop
         style="stop-opacity:1;stop-color:#7f73c1"
         offset="1"
         id="stop442" /></linearGradient><clipPath
       clipPathUnits="userSpaceOnUse"
       id="clipPath462"><path
         d="m 4411.57,811.059 c -15.91,0 -31.96,6.75 -43.28,21.113 l -395.38,501.688 c -27.2,34.51 -5.27,85.43 38.49,89.39 l 598.04,65.91 c 1.75,0.16 3.47,0.24 5.18,0.24 37.16,0 64.41,-36.69 52.32,-72.9 L 4464.28,848.922 c -8.16,-24.453 -30.29,-37.863 -52.71,-37.863"
         id="path460"
         inkscape:connector-curvature="0" /></clipPath><linearGradient
       x1="0"
       y1="0"
       x2="1"
       y2="0"
       gradientUnits="userSpaceOnUse"
       gradientTransform="matrix(62.2311,-20.9285,-20.9285,-62.2311,-533.41981,154.09345)"
       spreadMethod="pad"
       id="linearGradient468"><stop
         style="stop-opacity:1;stop-color:#b09cd5"
         offset="0"
         id="stop464" /><stop
         style="stop-opacity:1;stop-color:#dbaddb"
         offset="1"
         id="stop466" /></linearGradient><clipPath
       clipPathUnits="userSpaceOnUse"
       id="clipPath478"><path
         d="m 4713.08,1320.04 -557.98,225.09 c -40.42,17.22 -83.84,-17.25 -76.22,-60.52 l 110.73,-629.09 c 7.64,-43.379 60.42,-60.899 92.48,-30.7 l 447.24,404 c 29.06,27.36 20.47,75.56 -16.25,91.22 z"
         id="path476"
         inkscape:connector-curvature="0" /></clipPath><linearGradient
       x1="0"
       y1="0"
       x2="1"
       y2="0"
       gradientUnits="userSpaceOnUse"
       gradientTransform="matrix(72.0122,66.1733,66.1733,-72.0122,-519.82081,128.12545)"
       spreadMethod="pad"
       id="linearGradient484"><stop
         style="stop-opacity:1;stop-color:#4c4daa"
         offset="0"
         id="stop480" /><stop
         style="stop-opacity:1;stop-color:#a35fb6"
         offset="1"
         id="stop482" /></linearGradient><clipPath
       id="clipPath894"
       clipPathUnits="userSpaceOnUse"><path
         inkscape:connector-curvature="0"
         id="path892"
         d="m 712.887,3719.58 c -16.11,0 -32.356,6.92 -43.657,21.58 l -389.917,505.95 c -26.825,34.8 -4.356,85.48 39.449,88.97 l 598.722,59.41 c 1.543,0.13 3.063,0.19 4.571,0.19 37.476,0 64.691,-37.19 52.144,-73.46 L 765.391,3756.86 c -8.344,-24.13 -30.289,-37.28 -52.504,-37.28" /></clipPath><clipPath
       id="clipPath910"
       clipPathUnits="userSpaceOnUse"><path
         inkscape:connector-curvature="0"
         id="path908"
         d="m 1018.81,4228.5 -557.974,225.09 c -40.422,17.23 -83.832,-17.24 -76.219,-60.52 l 110.735,-629.09 c 7.636,-43.37 60.41,-60.89 92.476,-30.69 l 447.242,403.99 c 29.06,27.37 20.47,75.57 -16.26,91.22 z" /></clipPath><clipPath
       id="clipPath934"
       clipPathUnits="userSpaceOnUse"><path
         inkscape:connector-curvature="0"
         id="path932"
         d="m 1956.68,3719.8 c -15.09,0 -30.37,6.11 -41.69,19.23 l -417.27,483.63 c -28.7,33.26 -9.07,85.11 34.47,91.01 l 594.53,92.4 c 2.59,0.36 5.14,0.52 7.66,0.52 35.91,0 63.25,-34.66 53.02,-70.54 l -177.25,-576.04 c -7.33,-25.69 -30.19,-40.21 -53.47,-40.21" /></clipPath><clipPath
       id="clipPath950"
       clipPathUnits="userSpaceOnUse"><path
         inkscape:connector-curvature="0"
         id="path948"
         d="m 2240.05,4228.5 -557.98,225.09 c -40.42,17.23 -83.83,-17.24 -76.22,-60.52 l 110.74,-629.09 c 7.63,-43.37 60.41,-60.89 92.47,-30.69 l 447.24,403.99 c 29.06,27.37 20.48,75.57 -16.25,91.22 z" /></clipPath><clipPath
       id="clipPath974"
       clipPathUnits="userSpaceOnUse"><path
         inkscape:connector-curvature="0"
         id="path972"
         d="m 3175.48,3719.9 c -16.58,0 -33.28,7.31 -44.53,22.71 l -376.85,515.75 c -25.93,35.48 -2.17,85.57 41.71,87.94 l 600.05,44.08 c 1.05,0.05 2.08,0.08 3.11,0.08 38.24,0 65.36,-38.38 51.71,-74.78 l -223.2,-559.83 c -8.77,-23.4 -30.28,-35.95 -52,-35.95" /></clipPath><clipPath
       id="clipPath990"
       clipPathUnits="userSpaceOnUse"><path
         inkscape:connector-curvature="0"
         id="path988"
         d="m 3491.84,4228.5 -557.97,225.09 c -40.43,17.23 -83.84,-17.24 -76.22,-60.52 l 110.73,-629.09 c 7.64,-43.37 60.41,-60.89 92.47,-30.69 l 447.25,403.99 c 29.06,27.37 20.46,75.57 -16.26,91.22 z" /></clipPath><clipPath
       id="clipPath1014"
       clipPathUnits="userSpaceOnUse"><path
         inkscape:connector-curvature="0"
         id="path1012"
         d="m 4404.77,3719.63 c -16.22,0 -32.57,7.01 -43.86,21.83 l -386.97,508.22 c -26.61,34.96 -3.84,85.51 39.98,88.74 l 599.06,55.92 c 1.42,0.11 2.83,0.16 4.23,0.16 37.65,0 64.85,-37.46 52.06,-73.76 l -212.11,-564.13 c -8.45,-23.97 -30.29,-36.98 -52.39,-36.98" /></clipPath><clipPath
       id="clipPath1030"
       clipPathUnits="userSpaceOnUse"><path
         inkscape:connector-curvature="0"
         id="path1028"
         d="m 4713.08,4228.5 -557.98,225.09 c -40.42,17.23 -83.84,-17.24 -76.22,-60.52 l 110.73,-629.09 c 7.64,-43.37 60.42,-60.89 92.48,-30.69 l 447.24,403.99 c 29.06,27.37 20.47,75.57 -16.25,91.22 z" /></clipPath><clipPath
       id="clipPath1054"
       clipPathUnits="userSpaceOnUse"><path
         inkscape:connector-curvature="0"
         id="path1052"
         d="m 847.84,2263.1 c -10.145,0 -20.551,2.85 -30.141,9.12 L 283.023,2621.7 c -36.777,24.04 -32.234,79.29 7.977,97 l 545.848,253.1 c 7.382,3.25 14.953,4.76 22.328,4.76 29.121,0 55.262,-23.44 55.336,-55.29 L 903.34,2318.68 c 0.078,-32.58 -26.656,-55.58 -55.5,-55.58" /></clipPath><clipPath
       id="clipPath1070"
       clipPathUnits="userSpaceOnUse"><path
         inkscape:connector-curvature="0"
         id="path1068"
         d="m 1018.81,2751.66 -557.974,225.09 c -40.422,17.22 -83.832,-17.25 -76.219,-60.52 l 110.735,-629.09 c 7.636,-43.38 60.41,-60.9 92.476,-30.69 l 447.242,403.98 c 29.06,27.38 20.47,75.58 -16.26,91.23 z" /></clipPath><clipPath
       id="clipPath1094"
       clipPathUnits="userSpaceOnUse"><path
         inkscape:connector-curvature="0"
         id="path1092"
         d="m 1906.51,2244.16 c -17.37,0 -34.82,8.01 -45.92,24.62 l -354.74,531.2 c -24.4,36.54 1.44,85.58 45.39,86.1 l 601.37,18.71 c 0.23,0.01 0.46,0.01 0.69,0.01 39.54,0 66.42,-40.41 50.93,-76.95 L 1957.6,2277.93 c -9.39,-22.16 -30.17,-33.77 -51.09,-33.77" /></clipPath><clipPath
       id="clipPath1110"
       clipPathUnits="userSpaceOnUse"><path
         inkscape:connector-curvature="0"
         id="path1108"
         d="m 2240.05,2751.66 -557.98,225.09 c -40.42,17.22 -83.83,-17.25 -76.22,-60.52 l 110.74,-629.09 c 7.63,-43.38 60.41,-60.9 92.47,-30.69 l 447.24,403.98 c 29.06,27.38 20.48,75.58 -16.25,91.23 z" /></clipPath><clipPath
       id="clipPath1134"
       clipPathUnits="userSpaceOnUse"><path
         inkscape:connector-curvature="0"
         id="path1132"
         d="m 3152.16,2244.73 c -17.64,0 -35.37,8.26 -46.39,25.32 l -346.68,536.5 c -23.81,36.85 2.66,85.4 46.48,85.4 0.07,0 0.14,0 0.2,0 l 601.59,9.63 c 39.93,-0.13 66.59,-41.2 50.46,-77.72 L 3202.9,2277.73 c -9.59,-21.71 -30.11,-33 -50.74,-33" /></clipPath><clipPath
       id="clipPath1150"
       clipPathUnits="userSpaceOnUse"><path
         inkscape:connector-curvature="0"
         id="path1148"
         d="m 3491.84,2751.66 -557.97,225.09 c -40.43,17.22 -83.84,-17.25 -76.22,-60.52 l 110.73,-629.09 c 7.64,-43.38 60.41,-60.9 92.47,-30.69 l 447.25,403.98 c 29.06,27.38 20.46,75.58 -16.26,91.23 z" /></clipPath><clipPath
       id="clipPath1174"
       clipPathUnits="userSpaceOnUse"><path
         inkscape:connector-curvature="0"
         id="path1172"
         d="m 4400.15,2242.92 c -16.42,0 -32.98,7.18 -44.24,22.33 l -381.18,512.56 c -26.22,35.26 -2.89,85.55 40.96,88.29 l 599.66,49.13 c 1.21,0.08 2.41,0.12 3.6,0.12 37.98,0 65.13,-37.99 51.85,-74.35 l -218.48,-561.69 c -8.63,-23.64 -30.28,-36.39 -52.17,-36.39" /></clipPath><clipPath
       id="clipPath1190"
       clipPathUnits="userSpaceOnUse"><path
         inkscape:connector-curvature="0"
         id="path1188"
         d="m 4713.08,2751.66 -557.98,225.09 c -40.42,17.22 -83.84,-17.25 -76.22,-60.52 l 110.73,-629.09 c 7.64,-43.38 60.42,-60.9 92.48,-30.69 l 447.24,403.98 c 29.06,27.38 20.47,75.58 -16.25,91.23 z" /></clipPath><clipPath
       id="clipPath1214"
       clipPathUnits="userSpaceOnUse"><path
         inkscape:connector-curvature="0"
         id="path1212"
         d="m 739.801,811.52 c -14.899,0 -29.981,5.96 -41.285,18.781 L 276.094,1309.45 c -29.055,32.96 -9.977,85 33.5,91.38 l 593.511,98.75 c 2.79,0.41 5.54,0.61 8.247,0.61 35.617,0 62.964,-34.2 53.175,-69.99 L 793.434,852.301 c -7.11,-25.992 -30.149,-40.781 -53.633,-40.781" /></clipPath><clipPath
       id="clipPath1230"
       clipPathUnits="userSpaceOnUse"><path
         inkscape:connector-curvature="0"
         id="path1228"
         d="m 1018.81,1320.04 -557.974,225.09 c -40.422,17.22 -83.832,-17.25 -76.219,-60.52 L 495.352,855.52 c 7.636,-43.379 60.41,-60.899 92.476,-30.7 l 447.242,404 c 29.06,27.36 20.47,75.56 -16.26,91.22 z" /></clipPath><clipPath
       id="clipPath1254"
       clipPathUnits="userSpaceOnUse"><path
         inkscape:connector-curvature="0"
         id="path1252"
         d="m 1959.29,811.449 c -14.97,0 -30.13,6.012 -41.44,18.949 l -420.37,480.942 c -28.92,33.08 -9.61,85.06 33.89,91.24 l 593.92,96.22 c 2.71,0.38 5.38,0.57 8.01,0.57 35.74,0 63.08,-34.38 53.12,-70.21 L 2012.87,852 c -7.2,-25.871 -30.17,-40.559 -53.58,-40.551" /></clipPath><clipPath
       id="clipPath1270"
       clipPathUnits="userSpaceOnUse"><path
         inkscape:connector-curvature="0"
         id="path1268"
         d="m 2240.05,1320.04 -557.98,225.09 c -40.42,17.22 -83.83,-17.25 -76.22,-60.52 l 110.74,-629.09 c 7.63,-43.379 60.41,-60.899 92.47,-30.7 l 447.24,404 c 29.06,27.36 20.48,75.56 -16.25,91.22 z" /></clipPath><clipPath
       id="clipPath1294"
       clipPathUnits="userSpaceOnUse"><path
         inkscape:connector-curvature="0"
         id="path1292"
         d="m 3182.5,811.191 c -16.26,0 -32.66,7.051 -43.95,21.938 l -385.67,509.191 c -26.53,35.03 -3.63,85.52 40.2,88.65 l 599.19,54.4 c 1.39,0.1 2.75,0.15 4.1,0.15 37.73,0 64.9,-37.58 52.01,-73.89 L 3234.84,848.039 c -8.48,-23.891 -30.29,-36.848 -52.34,-36.848" /></clipPath><clipPath
       id="clipPath1310"
       clipPathUnits="userSpaceOnUse"><path
         inkscape:connector-curvature="0"
         id="path1308"
         d="m 3491.84,1320.04 -557.97,225.09 c -40.43,17.22 -83.84,-17.25 -76.22,-60.52 l 110.73,-629.09 c 7.64,-43.379 60.41,-60.899 92.47,-30.7 l 447.25,404 c 29.06,27.36 20.46,75.56 -16.26,91.22 z" /></clipPath><clipPath
       id="clipPath1334"
       clipPathUnits="userSpaceOnUse"><path
         inkscape:connector-curvature="0"
         id="path1332"
         d="m 4411.57,811.059 c -15.91,0 -31.96,6.75 -43.28,21.113 l -395.38,501.688 c -27.2,34.51 -5.27,85.43 38.49,89.39 l 598.04,65.91 c 1.75,0.16 3.47,0.24 5.18,0.24 37.16,0 64.41,-36.69 52.32,-72.9 L 4464.28,848.922 c -8.16,-24.453 -30.29,-37.863 -52.71,-37.863" /></clipPath><clipPath
       id="clipPath1350"
       clipPathUnits="userSpaceOnUse"><path
         inkscape:connector-curvature="0"
         id="path1348"
         d="m 4713.08,1320.04 -557.98,225.09 c -40.42,17.22 -83.84,-17.25 -76.22,-60.52 l 110.73,-629.09 c 7.64,-43.379 60.42,-60.899 92.48,-30.7 l 447.24,404 c 29.06,27.36 20.47,75.56 -16.25,91.22 z" /></clipPath><clipPath
       id="clipPath1987"
       clipPathUnits="userSpaceOnUse"><path
         inkscape:connector-curvature="0"
         id="path1985"
         d="m 712.887,3719.58 c -16.11,0 -32.356,6.92 -43.657,21.58 l -389.917,505.95 c -26.825,34.8 -4.356,85.48 39.449,88.97 l 598.722,59.41 c 1.543,0.13 3.063,0.19 4.571,0.19 37.476,0 64.691,-37.19 52.144,-73.46 L 765.391,3756.86 c -8.344,-24.13 -30.289,-37.28 -52.504,-37.28" /></clipPath><clipPath
       id="clipPath2003"
       clipPathUnits="userSpaceOnUse"><path
         inkscape:connector-curvature="0"
         id="path2001"
         d="m 1018.81,4228.5 -557.974,225.09 c -40.422,17.23 -83.832,-17.24 -76.219,-60.52 l 110.735,-629.09 c 7.636,-43.37 60.41,-60.89 92.476,-30.69 l 447.242,403.99 c 29.06,27.37 20.47,75.57 -16.26,91.22 z" /></clipPath><clipPath
       id="clipPath2027"
       clipPathUnits="userSpaceOnUse"><path
         inkscape:connector-curvature="0"
         id="path2025"
         d="m 1956.68,3719.8 c -15.09,0 -30.37,6.11 -41.69,19.23 l -417.27,483.63 c -28.7,33.26 -9.07,85.11 34.47,91.01 l 594.53,92.4 c 2.59,0.36 5.14,0.52 7.66,0.52 35.91,0 63.25,-34.66 53.02,-70.54 l -177.25,-576.04 c -7.33,-25.69 -30.19,-40.21 -53.47,-40.21" /></clipPath><clipPath
       id="clipPath2043"
       clipPathUnits="userSpaceOnUse"><path
         inkscape:connector-curvature="0"
         id="path2041"
         d="m 2240.05,4228.5 -557.98,225.09 c -40.42,17.23 -83.83,-17.24 -76.22,-60.52 l 110.74,-629.09 c 7.63,-43.37 60.41,-60.89 92.47,-30.69 l 447.24,403.99 c 29.06,27.37 20.48,75.57 -16.25,91.22 z" /></clipPath><clipPath
       id="clipPath2067"
       clipPathUnits="userSpaceOnUse"><path
         inkscape:connector-curvature="0"
         id="path2065"
         d="m 3175.48,3719.9 c -16.58,0 -33.28,7.31 -44.53,22.71 l -376.85,515.75 c -25.93,35.48 -2.17,85.57 41.71,87.94 l 600.05,44.08 c 1.05,0.05 2.08,0.08 3.11,0.08 38.24,0 65.36,-38.38 51.71,-74.78 l -223.2,-559.83 c -8.77,-23.4 -30.28,-35.95 -52,-35.95" /></clipPath><clipPath
       id="clipPath2083"
       clipPathUnits="userSpaceOnUse"><path
         inkscape:connector-curvature="0"
         id="path2081"
         d="m 3491.84,4228.5 -557.97,225.09 c -40.43,17.23 -83.84,-17.24 -76.22,-60.52 l 110.73,-629.09 c 7.64,-43.37 60.41,-60.89 92.47,-30.69 l 447.25,403.99 c 29.06,27.37 20.46,75.57 -16.26,91.22 z" /></clipPath><clipPath
       id="clipPath2107"
       clipPathUnits="userSpaceOnUse"><path
         inkscape:connector-curvature="0"
         id="path2105"
         d="m 4404.77,3719.63 c -16.22,0 -32.57,7.01 -43.86,21.83 l -386.97,508.22 c -26.61,34.96 -3.84,85.51 39.98,88.74 l 599.06,55.92 c 1.42,0.11 2.83,0.16 4.23,0.16 37.65,0 64.85,-37.46 52.06,-73.76 l -212.11,-564.13 c -8.45,-23.97 -30.29,-36.98 -52.39,-36.98" /></clipPath><clipPath
       id="clipPath2123"
       clipPathUnits="userSpaceOnUse"><path
         inkscape:connector-curvature="0"
         id="path2121"
         d="m 4713.08,4228.5 -557.98,225.09 c -40.42,17.23 -83.84,-17.24 -76.22,-60.52 l 110.73,-629.09 c 7.64,-43.37 60.42,-60.89 92.48,-30.69 l 447.24,403.99 c 29.06,27.37 20.47,75.57 -16.25,91.22 z" /></clipPath><clipPath
       id="clipPath2147"
       clipPathUnits="userSpaceOnUse"><path
         inkscape:connector-curvature="0"
         id="path2145"
         d="m 847.84,2263.1 c -10.145,0 -20.551,2.85 -30.141,9.12 L 283.023,2621.7 c -36.777,24.04 -32.234,79.29 7.977,97 l 545.848,253.1 c 7.382,3.25 14.953,4.76 22.328,4.76 29.121,0 55.262,-23.44 55.336,-55.29 L 903.34,2318.68 c 0.078,-32.58 -26.656,-55.58 -55.5,-55.58" /></clipPath><clipPath
       id="clipPath2163"
       clipPathUnits="userSpaceOnUse"><path
         inkscape:connector-curvature="0"
         id="path2161"
         d="m 1018.81,2751.66 -557.974,225.09 c -40.422,17.22 -83.832,-17.25 -76.219,-60.52 l 110.735,-629.09 c 7.636,-43.38 60.41,-60.9 92.476,-30.69 l 447.242,403.98 c 29.06,27.38 20.47,75.58 -16.26,91.23 z" /></clipPath><clipPath
       id="clipPath2187"
       clipPathUnits="userSpaceOnUse"><path
         inkscape:connector-curvature="0"
         id="path2185"
         d="m 1906.51,2244.16 c -17.37,0 -34.82,8.01 -45.92,24.62 l -354.74,531.2 c -24.4,36.54 1.44,85.58 45.39,86.1 l 601.37,18.71 c 0.23,0.01 0.46,0.01 0.69,0.01 39.54,0 66.42,-40.41 50.93,-76.95 L 1957.6,2277.93 c -9.39,-22.16 -30.17,-33.77 -51.09,-33.77" /></clipPath><clipPath
       id="clipPath2203"
       clipPathUnits="userSpaceOnUse"><path
         inkscape:connector-curvature="0"
         id="path2201"
         d="m 2240.05,2751.66 -557.98,225.09 c -40.42,17.22 -83.83,-17.25 -76.22,-60.52 l 110.74,-629.09 c 7.63,-43.38 60.41,-60.9 92.47,-30.69 l 447.24,403.98 c 29.06,27.38 20.48,75.58 -16.25,91.23 z" /></clipPath><clipPath
       id="clipPath2227"
       clipPathUnits="userSpaceOnUse"><path
         inkscape:connector-curvature="0"
         id="path2225"
         d="m 3152.16,2244.73 c -17.64,0 -35.37,8.26 -46.39,25.32 l -346.68,536.5 c -23.81,36.85 2.66,85.4 46.48,85.4 0.07,0 0.14,0 0.2,0 l 601.59,9.63 c 39.93,-0.13 66.59,-41.2 50.46,-77.72 L 3202.9,2277.73 c -9.59,-21.71 -30.11,-33 -50.74,-33" /></clipPath><clipPath
       id="clipPath2243"
       clipPathUnits="userSpaceOnUse"><path
         inkscape:connector-curvature="0"
         id="path2241"
         d="m 3491.84,2751.66 -557.97,225.09 c -40.43,17.22 -83.84,-17.25 -76.22,-60.52 l 110.73,-629.09 c 7.64,-43.38 60.41,-60.9 92.47,-30.69 l 447.25,403.98 c 29.06,27.38 20.46,75.58 -16.26,91.23 z" /></clipPath><clipPath
       id="clipPath2267"
       clipPathUnits="userSpaceOnUse"><path
         inkscape:connector-curvature="0"
         id="path2265"
         d="m 4400.15,2242.92 c -16.42,0 -32.98,7.18 -44.24,22.33 l -381.18,512.56 c -26.22,35.26 -2.89,85.55 40.96,88.29 l 599.66,49.13 c 1.21,0.08 2.41,0.12 3.6,0.12 37.98,0 65.13,-37.99 51.85,-74.35 l -218.48,-561.69 c -8.63,-23.64 -30.28,-36.39 -52.17,-36.39" /></clipPath><clipPath
       id="clipPath2283"
       clipPathUnits="userSpaceOnUse"><path
         inkscape:connector-curvature="0"
         id="path2281"
         d="m 4713.08,2751.66 -557.98,225.09 c -40.42,17.22 -83.84,-17.25 -76.22,-60.52 l 110.73,-629.09 c 7.64,-43.38 60.42,-60.9 92.48,-30.69 l 447.24,403.98 c 29.06,27.38 20.47,75.58 -16.25,91.23 z" /></clipPath><clipPath
       id="clipPath2307"
       clipPathUnits="userSpaceOnUse"><path
         inkscape:connector-curvature="0"
         id="path2305"
         d="m 739.801,811.52 c -14.899,0 -29.981,5.96 -41.285,18.781 L 276.094,1309.45 c -29.055,32.96 -9.977,85 33.5,91.38 l 593.511,98.75 c 2.79,0.41 5.54,0.61 8.247,0.61 35.617,0 62.964,-34.2 53.175,-69.99 L 793.434,852.301 c -7.11,-25.992 -30.149,-40.781 -53.633,-40.781" /></clipPath><clipPath
       id="clipPath2323"
       clipPathUnits="userSpaceOnUse"><path
         inkscape:connector-curvature="0"
         id="path2321"
         d="m 1018.81,1320.04 -557.974,225.09 c -40.422,17.22 -83.832,-17.25 -76.219,-60.52 L 495.352,855.52 c 7.636,-43.379 60.41,-60.899 92.476,-30.7 l 447.242,404 c 29.06,27.36 20.47,75.56 -16.26,91.22 z" /></clipPath><clipPath
       id="clipPath2347"
       clipPathUnits="userSpaceOnUse"><path
         inkscape:connector-curvature="0"
         id="path2345"
         d="m 1959.29,811.449 c -14.97,0 -30.13,6.012 -41.44,18.949 l -420.37,480.942 c -28.92,33.08 -9.61,85.06 33.89,91.24 l 593.92,96.22 c 2.71,0.38 5.38,0.57 8.01,0.57 35.74,0 63.08,-34.38 53.12,-70.21 L 2012.87,852 c -7.2,-25.871 -30.17,-40.559 -53.58,-40.551" /></clipPath><clipPath
       id="clipPath2363"
       clipPathUnits="userSpaceOnUse"><path
         inkscape:connector-curvature="0"
         id="path2361"
         d="m 2240.05,1320.04 -557.98,225.09 c -40.42,17.22 -83.83,-17.25 -76.22,-60.52 l 110.74,-629.09 c 7.63,-43.379 60.41,-60.899 92.47,-30.7 l 447.24,404 c 29.06,27.36 20.48,75.56 -16.25,91.22 z" /></clipPath><clipPath
       id="clipPath2387"
       clipPathUnits="userSpaceOnUse"><path
         inkscape:connector-curvature="0"
         id="path2385"
         d="m 3182.5,811.191 c -16.26,0 -32.66,7.051 -43.95,21.938 l -385.67,509.191 c -26.53,35.03 -3.63,85.52 40.2,88.65 l 599.19,54.4 c 1.39,0.1 2.75,0.15 4.1,0.15 37.73,0 64.9,-37.58 52.01,-73.89 L 3234.84,848.039 c -8.48,-23.891 -30.29,-36.848 -52.34,-36.848" /></clipPath><clipPath
       id="clipPath2403"
       clipPathUnits="userSpaceOnUse"><path
         inkscape:connector-curvature="0"
         id="path2401"
         d="m 3491.84,1320.04 -557.97,225.09 c -40.43,17.22 -83.84,-17.25 -76.22,-60.52 l 110.73,-629.09 c 7.64,-43.379 60.41,-60.899 92.47,-30.7 l 447.25,404 c 29.06,27.36 20.46,75.56 -16.26,91.22 z" /></clipPath><clipPath
       id="clipPath2427"
       clipPathUnits="userSpaceOnUse"><path
         inkscape:connector-curvature="0"
         id="path2425"
         d="m 4411.57,811.059 c -15.91,0 -31.96,6.75 -43.28,21.113 l -395.38,501.688 c -27.2,34.51 -5.27,85.43 38.49,89.39 l 598.04,65.91 c 1.75,0.16 3.47,0.24 5.18,0.24 37.16,0 64.41,-36.69 52.32,-72.9 L 4464.28,848.922 c -8.16,-24.453 -30.29,-37.863 -52.71,-37.863" /></clipPath><clipPath
       id="clipPath2443"
       clipPathUnits="userSpaceOnUse"><path
         inkscape:connector-curvature="0"
         id="path2441"
         d="m 4713.08,1320.04 -557.98,225.09 c -40.42,17.22 -83.84,-17.25 -76.22,-60.52 l 110.73,-629.09 c 7.64,-43.379 60.42,-60.899 92.48,-30.7 l 447.24,404 c 29.06,27.36 20.47,75.56 -16.25,91.22 z" /></clipPath><clipPath
       id="clipPath3054"
       clipPathUnits="userSpaceOnUse"><path
         inkscape:connector-curvature="0"
         id="path3052"
         d="m 712.887,3719.58 c -16.11,0 -32.356,6.92 -43.657,21.58 l -389.917,505.95 c -26.825,34.8 -4.356,85.48 39.449,88.97 l 598.722,59.41 c 1.543,0.13 3.063,0.19 4.571,0.19 37.476,0 64.691,-37.19 52.144,-73.46 L 765.391,3756.86 c -8.344,-24.13 -30.289,-37.28 -52.504,-37.28" /></clipPath><clipPath
       id="clipPath3070"
       clipPathUnits="userSpaceOnUse"><path
         inkscape:connector-curvature="0"
         id="path3068"
         d="m 1018.81,4228.5 -557.974,225.09 c -40.422,17.23 -83.832,-17.24 -76.219,-60.52 l 110.735,-629.09 c 7.636,-43.37 60.41,-60.89 92.476,-30.69 l 447.242,403.99 c 29.06,27.37 20.47,75.57 -16.26,91.22 z" /></clipPath><clipPath
       id="clipPath3094"
       clipPathUnits="userSpaceOnUse"><path
         inkscape:connector-curvature="0"
         id="path3092"
         d="m 1956.68,3719.8 c -15.09,0 -30.37,6.11 -41.69,19.23 l -417.27,483.63 c -28.7,33.26 -9.07,85.11 34.47,91.01 l 594.53,92.4 c 2.59,0.36 5.14,0.52 7.66,0.52 35.91,0 63.25,-34.66 53.02,-70.54 l -177.25,-576.04 c -7.33,-25.69 -30.19,-40.21 -53.47,-40.21" /></clipPath><clipPath
       id="clipPath3110"
       clipPathUnits="userSpaceOnUse"><path
         inkscape:connector-curvature="0"
         id="path3108"
         d="m 2240.05,4228.5 -557.98,225.09 c -40.42,17.23 -83.83,-17.24 -76.22,-60.52 l 110.74,-629.09 c 7.63,-43.37 60.41,-60.89 92.47,-30.69 l 447.24,403.99 c 29.06,27.37 20.48,75.57 -16.25,91.22 z" /></clipPath><clipPath
       id="clipPath3134"
       clipPathUnits="userSpaceOnUse"><path
         inkscape:connector-curvature="0"
         id="path3132"
         d="m 3175.48,3719.9 c -16.58,0 -33.28,7.31 -44.53,22.71 l -376.85,515.75 c -25.93,35.48 -2.17,85.57 41.71,87.94 l 600.05,44.08 c 1.05,0.05 2.08,0.08 3.11,0.08 38.24,0 65.36,-38.38 51.71,-74.78 l -223.2,-559.83 c -8.77,-23.4 -30.28,-35.95 -52,-35.95" /></clipPath><clipPath
       id="clipPath3150"
       clipPathUnits="userSpaceOnUse"><path
         inkscape:connector-curvature="0"
         id="path3148"
         d="m 3491.84,4228.5 -557.97,225.09 c -40.43,17.23 -83.84,-17.24 -76.22,-60.52 l 110.73,-629.09 c 7.64,-43.37 60.41,-60.89 92.47,-30.69 l 447.25,403.99 c 29.06,27.37 20.46,75.57 -16.26,91.22 z" /></clipPath><clipPath
       id="clipPath3174"
       clipPathUnits="userSpaceOnUse"><path
         inkscape:connector-curvature="0"
         id="path3172"
         d="m 4404.77,3719.63 c -16.22,0 -32.57,7.01 -43.86,21.83 l -386.97,508.22 c -26.61,34.96 -3.84,85.51 39.98,88.74 l 599.06,55.92 c 1.42,0.11 2.83,0.16 4.23,0.16 37.65,0 64.85,-37.46 52.06,-73.76 l -212.11,-564.13 c -8.45,-23.97 -30.29,-36.98 -52.39,-36.98" /></clipPath><clipPath
       id="clipPath3190"
       clipPathUnits="userSpaceOnUse"><path
         inkscape:connector-curvature="0"
         id="path3188"
         d="m 4713.08,4228.5 -557.98,225.09 c -40.42,17.23 -83.84,-17.24 -76.22,-60.52 l 110.73,-629.09 c 7.64,-43.37 60.42,-60.89 92.48,-30.69 l 447.24,403.99 c 29.06,27.37 20.47,75.57 -16.25,91.22 z" /></clipPath><clipPath
       id="clipPath3214"
       clipPathUnits="userSpaceOnUse"><path
         inkscape:connector-curvature="0"
         id="path3212"
         d="m 847.84,2263.1 c -10.145,0 -20.551,2.85 -30.141,9.12 L 283.023,2621.7 c -36.777,24.04 -32.234,79.29 7.977,97 l 545.848,253.1 c 7.382,3.25 14.953,4.76 22.328,4.76 29.121,0 55.262,-23.44 55.336,-55.29 L 903.34,2318.68 c 0.078,-32.58 -26.656,-55.58 -55.5,-55.58" /></clipPath><clipPath
       id="clipPath3230"
       clipPathUnits="userSpaceOnUse"><path
         inkscape:connector-curvature="0"
         id="path3228"
         d="m 1018.81,2751.66 -557.974,225.09 c -40.422,17.22 -83.832,-17.25 -76.219,-60.52 l 110.735,-629.09 c 7.636,-43.38 60.41,-60.9 92.476,-30.69 l 447.242,403.98 c 29.06,27.38 20.47,75.58 -16.26,91.23 z" /></clipPath><clipPath
       id="clipPath3254"
       clipPathUnits="userSpaceOnUse"><path
         inkscape:connector-curvature="0"
         id="path3252"
         d="m 1906.51,2244.16 c -17.37,0 -34.82,8.01 -45.92,24.62 l -354.74,531.2 c -24.4,36.54 1.44,85.58 45.39,86.1 l 601.37,18.71 c 0.23,0.01 0.46,0.01 0.69,0.01 39.54,0 66.42,-40.41 50.93,-76.95 L 1957.6,2277.93 c -9.39,-22.16 -30.17,-33.77 -51.09,-33.77" /></clipPath><clipPath
       id="clipPath3270"
       clipPathUnits="userSpaceOnUse"><path
         inkscape:connector-curvature="0"
         id="path3268"
         d="m 2240.05,2751.66 -557.98,225.09 c -40.42,17.22 -83.83,-17.25 -76.22,-60.52 l 110.74,-629.09 c 7.63,-43.38 60.41,-60.9 92.47,-30.69 l 447.24,403.98 c 29.06,27.38 20.48,75.58 -16.25,91.23 z" /></clipPath><clipPath
       id="clipPath3294"
       clipPathUnits="userSpaceOnUse"><path
         inkscape:connector-curvature="0"
         id="path3292"
         d="m 3152.16,2244.73 c -17.64,0 -35.37,8.26 -46.39,25.32 l -346.68,536.5 c -23.81,36.85 2.66,85.4 46.48,85.4 0.07,0 0.14,0 0.2,0 l 601.59,9.63 c 39.93,-0.13 66.59,-41.2 50.46,-77.72 L 3202.9,2277.73 c -9.59,-21.71 -30.11,-33 -50.74,-33" /></clipPath><clipPath
       id="clipPath3310"
       clipPathUnits="userSpaceOnUse"><path
         inkscape:connector-curvature="0"
         id="path3308"
         d="m 3491.84,2751.66 -557.97,225.09 c -40.43,17.22 -83.84,-17.25 -76.22,-60.52 l 110.73,-629.09 c 7.64,-43.38 60.41,-60.9 92.47,-30.69 l 447.25,403.98 c 29.06,27.38 20.46,75.58 -16.26,91.23 z" /></clipPath><clipPath
       id="clipPath3334"
       clipPathUnits="userSpaceOnUse"><path
         inkscape:connector-curvature="0"
         id="path3332"
         d="m 4400.15,2242.92 c -16.42,0 -32.98,7.18 -44.24,22.33 l -381.18,512.56 c -26.22,35.26 -2.89,85.55 40.96,88.29 l 599.66,49.13 c 1.21,0.08 2.41,0.12 3.6,0.12 37.98,0 65.13,-37.99 51.85,-74.35 l -218.48,-561.69 c -8.63,-23.64 -30.28,-36.39 -52.17,-36.39" /></clipPath><clipPath
       id="clipPath3350"
       clipPathUnits="userSpaceOnUse"><path
         inkscape:connector-curvature="0"
         id="path3348"
         d="m 4713.08,2751.66 -557.98,225.09 c -40.42,17.22 -83.84,-17.25 -76.22,-60.52 l 110.73,-629.09 c 7.64,-43.38 60.42,-60.9 92.48,-30.69 l 447.24,403.98 c 29.06,27.38 20.47,75.58 -16.25,91.23 z" /></clipPath><clipPath
       id="clipPath3374"
       clipPathUnits="userSpaceOnUse"><path
         inkscape:connector-curvature="0"
         id="path3372"
         d="m 739.801,811.52 c -14.899,0 -29.981,5.96 -41.285,18.781 L 276.094,1309.45 c -29.055,32.96 -9.977,85 33.5,91.38 l 593.511,98.75 c 2.79,0.41 5.54,0.61 8.247,0.61 35.617,0 62.964,-34.2 53.175,-69.99 L 793.434,852.301 c -7.11,-25.992 -30.149,-40.781 -53.633,-40.781" /></clipPath><clipPath
       id="clipPath3390"
       clipPathUnits="userSpaceOnUse"><path
         inkscape:connector-curvature="0"
         id="path3388"
         d="m 1018.81,1320.04 -557.974,225.09 c -40.422,17.22 -83.832,-17.25 -76.219,-60.52 L 495.352,855.52 c 7.636,-43.379 60.41,-60.899 92.476,-30.7 l 447.242,404 c 29.06,27.36 20.47,75.56 -16.26,91.22 z" /></clipPath><clipPath
       id="clipPath3414"
       clipPathUnits="userSpaceOnUse"><path
         inkscape:connector-curvature="0"
         id="path3412"
         d="m 1959.29,811.449 c -14.97,0 -30.13,6.012 -41.44,18.949 l -420.37,480.942 c -28.92,33.08 -9.61,85.06 33.89,91.24 l 593.92,96.22 c 2.71,0.38 5.38,0.57 8.01,0.57 35.74,0 63.08,-34.38 53.12,-70.21 L 2012.87,852 c -7.2,-25.871 -30.17,-40.559 -53.58,-40.551" /></clipPath><clipPath
       id="clipPath3430"
       clipPathUnits="userSpaceOnUse"><path
         inkscape:connector-curvature="0"
         id="path3428"
         d="m 2240.05,1320.04 -557.98,225.09 c -40.42,17.22 -83.83,-17.25 -76.22,-60.52 l 110.74,-629.09 c 7.63,-43.379 60.41,-60.899 92.47,-30.7 l 447.24,404 c 29.06,27.36 20.48,75.56 -16.25,91.22 z" /></clipPath><clipPath
       id="clipPath3454"
       clipPathUnits="userSpaceOnUse"><path
         inkscape:connector-curvature="0"
         id="path3452"
         d="m 3182.5,811.191 c -16.26,0 -32.66,7.051 -43.95,21.938 l -385.67,509.191 c -26.53,35.03 -3.63,85.52 40.2,88.65 l 599.19,54.4 c 1.39,0.1 2.75,0.15 4.1,0.15 37.73,0 64.9,-37.58 52.01,-73.89 L 3234.84,848.039 c -8.48,-23.891 -30.29,-36.848 -52.34,-36.848" /></clipPath><clipPath
       id="clipPath3470"
       clipPathUnits="userSpaceOnUse"><path
         inkscape:connector-curvature="0"
         id="path3468"
         d="m 3491.84,1320.04 -557.97,225.09 c -40.43,17.22 -83.84,-17.25 -76.22,-60.52 l 110.73,-629.09 c 7.64,-43.379 60.41,-60.899 92.47,-30.7 l 447.25,404 c 29.06,27.36 20.46,75.56 -16.26,91.22 z" /></clipPath><clipPath
       id="clipPath3494"
       clipPathUnits="userSpaceOnUse"><path
         inkscape:connector-curvature="0"
         id="path3492"
         d="m 4411.57,811.059 c -15.91,0 -31.96,6.75 -43.28,21.113 l -395.38,501.688 c -27.2,34.51 -5.27,85.43 38.49,89.39 l 598.04,65.91 c 1.75,0.16 3.47,0.24 5.18,0.24 37.16,0 64.41,-36.69 52.32,-72.9 L 4464.28,848.922 c -8.16,-24.453 -30.29,-37.863 -52.71,-37.863" /></clipPath><clipPath
       id="clipPath3510"
       clipPathUnits="userSpaceOnUse"><path
         inkscape:connector-curvature="0"
         id="path3508"
         d="m 4713.08,1320.04 -557.98,225.09 c -40.42,17.22 -83.84,-17.25 -76.22,-60.52 l 110.73,-629.09 c 7.64,-43.379 60.42,-60.899 92.48,-30.7 l 447.24,404 c 29.06,27.36 20.47,75.56 -16.25,91.22 z" /></clipPath><clipPath
       id="clipPath4364"
       clipPathUnits="userSpaceOnUse"><path
         inkscape:connector-curvature="0"
         id="path4362"
         d="m 712.887,3719.58 c -16.11,0 -32.356,6.92 -43.657,21.58 l -389.917,505.95 c -26.825,34.8 -4.356,85.48 39.449,88.97 l 598.722,59.41 c 1.543,0.13 3.063,0.19 4.571,0.19 37.476,0 64.691,-37.19 52.144,-73.46 L 765.391,3756.86 c -8.344,-24.13 -30.289,-37.28 -52.504,-37.28" /></clipPath><linearGradient
       id="linearGradient4370"
       spreadMethod="pad"
       gradientTransform="matrix(620.005,-216.022,-216.022,-620.005,255.017,4253.59)"
       gradientUnits="userSpaceOnUse"
       y2="0"
       x2="1"
       y1="0"
       x1="0"><stop
         id="stop4366"
         offset="0"
         style="stop-opacity:1;stop-color:#cd97d1" /><stop
         id="stop4368"
         offset="1"
         style="stop-opacity:1;stop-color:#f393ce" /></linearGradient><clipPath
       id="clipPath4380"
       clipPathUnits="userSpaceOnUse"><path
         inkscape:connector-curvature="0"
         id="path4378"
         d="m 1018.81,4228.5 -557.974,225.09 c -40.422,17.23 -83.832,-17.24 -76.219,-60.52 l 110.735,-629.09 c 7.636,-43.37 60.41,-60.89 92.476,-30.69 l 447.242,403.99 c 29.06,27.37 20.47,75.57 -16.26,91.22 z" /></clipPath><linearGradient
       id="linearGradient4386"
       spreadMethod="pad"
       gradientTransform="matrix(720.122,661.733,661.733,-720.122,390.277,3988.86)"
       gradientUnits="userSpaceOnUse"
       y2="0"
       x2="1"
       y1="0"
       x1="0"><stop
         id="stop4382"
         offset="0"
         style="stop-opacity:1;stop-color:#8742a6" /><stop
         id="stop4384"
         offset="1"
         style="stop-opacity:1;stop-color:#e8259c" /></linearGradient><clipPath
       id="clipPath4404"
       clipPathUnits="userSpaceOnUse"><path
         inkscape:connector-curvature="0"
         id="path4402"
         d="m 1956.68,3719.8 c -15.09,0 -30.37,6.11 -41.69,19.23 l -417.27,483.63 c -28.7,33.26 -9.07,85.11 34.47,91.01 l 594.53,92.4 c 2.59,0.36 5.14,0.52 7.66,0.52 35.91,0 63.25,-34.66 53.02,-70.54 l -177.25,-576.04 c -7.33,-25.69 -30.19,-40.21 -53.47,-40.21" /></clipPath><linearGradient
       id="linearGradient4410"
       spreadMethod="pad"
       gradientTransform="matrix(630.993,-181.437,-181.437,-630.993,1473.11,4227.79)"
       gradientUnits="userSpaceOnUse"
       y2="0"
       x2="1"
       y1="0"
       x1="0"><stop
         id="stop4406"
         offset="0"
         style="stop-opacity:1;stop-color:#f393ce" /><stop
         id="stop4408"
         offset="1"
         style="stop-opacity:1;stop-color:#f9a9be" /></linearGradient><clipPath
       id="clipPath4420"
       clipPathUnits="userSpaceOnUse"><path
         inkscape:connector-curvature="0"
         id="path4418"
         d="m 2240.05,4228.5 -557.98,225.09 c -40.42,17.23 -83.83,-17.24 -76.22,-60.52 l 110.74,-629.09 c 7.63,-43.37 60.41,-60.89 92.47,-30.69 l 447.24,403.99 c 29.06,27.37 20.48,75.57 -16.25,91.22 z" /></clipPath><linearGradient
       id="linearGradient4426"
       spreadMethod="pad"
       gradientTransform="matrix(720.122,661.733,661.733,-720.122,1611.51,3988.86)"
       gradientUnits="userSpaceOnUse"
       y2="0"
       x2="1"
       y1="0"
       x1="0"><stop
         id="stop4422"
         offset="0"
         style="stop-opacity:1;stop-color:#e8259c" /><stop
         id="stop4424"
         offset="1"
         style="stop-opacity:1;stop-color:#f24e79" /></linearGradient><clipPath
       id="clipPath4444"
       clipPathUnits="userSpaceOnUse"><path
         inkscape:connector-curvature="0"
         id="path4442"
         d="m 3175.48,3719.9 c -16.58,0 -33.28,7.31 -44.53,22.71 l -376.85,515.75 c -25.93,35.48 -2.17,85.57 41.71,87.94 l 600.05,44.08 c 1.05,0.05 2.08,0.08 3.11,0.08 38.24,0 65.36,-38.38 51.71,-74.78 l -223.2,-559.83 c -8.77,-23.4 -30.28,-35.95 -52,-35.95" /></clipPath><clipPath
       id="clipPath4460"
       clipPathUnits="userSpaceOnUse"><path
         inkscape:connector-curvature="0"
         id="path4458"
         d="m 3491.84,4228.5 -557.97,225.09 c -40.43,17.23 -83.84,-17.24 -76.22,-60.52 l 110.73,-629.09 c 7.64,-43.37 60.41,-60.89 92.47,-30.69 l 447.25,403.99 c 29.06,27.37 20.46,75.57 -16.26,91.22 z" /></clipPath><clipPath
       id="clipPath4484"
       clipPathUnits="userSpaceOnUse"><path
         inkscape:connector-curvature="0"
         id="path4482"
         d="m 4404.77,3719.63 c -16.22,0 -32.57,7.01 -43.86,21.83 l -386.97,508.22 c -26.61,34.96 -3.84,85.51 39.98,88.74 l 599.06,55.92 c 1.42,0.11 2.83,0.16 4.23,0.16 37.65,0 64.85,-37.46 52.06,-73.76 l -212.11,-564.13 c -8.45,-23.97 -30.29,-36.98 -52.39,-36.98" /></clipPath><clipPath
       id="clipPath4500"
       clipPathUnits="userSpaceOnUse"><path
         inkscape:connector-curvature="0"
         id="path4498"
         d="m 4713.08,4228.5 -557.98,225.09 c -40.42,17.23 -83.84,-17.24 -76.22,-60.52 l 110.73,-629.09 c 7.64,-43.37 60.42,-60.89 92.48,-30.69 l 447.24,403.99 c 29.06,27.37 20.47,75.57 -16.25,91.22 z" /></clipPath><clipPath
       id="clipPath4524"
       clipPathUnits="userSpaceOnUse"><path
         inkscape:connector-curvature="0"
         id="path4522"
         d="m 847.84,2263.1 c -10.145,0 -20.551,2.85 -30.141,9.12 L 283.023,2621.7 c -36.777,24.04 -32.234,79.29 7.977,97 l 545.848,253.1 c 7.382,3.25 14.953,4.76 22.328,4.76 29.121,0 55.262,-23.44 55.336,-55.29 L 903.34,2318.68 c 0.078,-32.58 -26.656,-55.58 -55.5,-55.58" /></clipPath><linearGradient
       id="linearGradient4530"
       spreadMethod="pad"
       gradientTransform="matrix(656.56,0,0,-656.56,257.951,2619.83)"
       gradientUnits="userSpaceOnUse"
       y2="0"
       x2="1"
       y1="0"
       x1="0"><stop
         id="stop4526"
         offset="0"
         style="stop-opacity:1;stop-color:#f1ea8f" /><stop
         id="stop4528"
         offset="1"
         style="stop-opacity:1;stop-color:#c8e892" /></linearGradient><clipPath
       id="clipPath4540"
       clipPathUnits="userSpaceOnUse"><path
         inkscape:connector-curvature="0"
         id="path4538"
         d="m 1018.81,2751.66 -557.974,225.09 c -40.422,17.22 -83.832,-17.25 -76.219,-60.52 l 110.735,-629.09 c 7.636,-43.38 60.41,-60.9 92.476,-30.69 l 447.242,403.98 c 29.06,27.38 20.47,75.58 -16.26,91.23 z" /></clipPath><linearGradient
       id="linearGradient4546"
       spreadMethod="pad"
       gradientTransform="matrix(720.122,661.733,661.733,-720.122,390.277,2512.02)"
       gradientUnits="userSpaceOnUse"
       y2="0"
       x2="1"
       y1="0"
       x1="0"><stop
         id="stop4542"
         offset="0"
         style="stop-opacity:1;stop-color:#ecd125" /><stop
         id="stop4544"
         offset="1"
         style="stop-opacity:1;stop-color:#8fd131" /></linearGradient><clipPath
       id="clipPath4564"
       clipPathUnits="userSpaceOnUse"><path
         inkscape:connector-curvature="0"
         id="path4562"
         d="m 1906.51,2244.16 c -17.37,0 -34.82,8.01 -45.92,24.62 l -354.74,531.2 c -24.4,36.54 1.44,85.58 45.39,86.1 l 601.37,18.71 c 0.23,0.01 0.46,0.01 0.69,0.01 39.54,0 66.42,-40.41 50.93,-76.95 L 1957.6,2277.93 c -9.39,-22.16 -30.17,-33.77 -51.09,-33.77" /></clipPath><linearGradient
       id="linearGradient4570"
       spreadMethod="pad"
       gradientTransform="matrix(603.945,-257.531,-257.531,-603.945,1482.05,2808.1)"
       gradientUnits="userSpaceOnUse"
       y2="0"
       x2="1"
       y1="0"
       x1="0"><stop
         id="stop4566"
         offset="0"
         style="stop-opacity:1;stop-color:#c8e892" /><stop
         id="stop4568"
         offset="1"
         style="stop-opacity:1;stop-color:#9adcbd" /></linearGradient><clipPath
       id="clipPath4580"
       clipPathUnits="userSpaceOnUse"><path
         inkscape:connector-curvature="0"
         id="path4578"
         d="m 2240.05,2751.66 -557.98,225.09 c -40.42,17.22 -83.83,-17.25 -76.22,-60.52 l 110.74,-629.09 c 7.63,-43.38 60.41,-60.9 92.47,-30.69 l 447.24,403.98 c 29.06,27.38 20.48,75.58 -16.25,91.23 z" /></clipPath><linearGradient
       id="linearGradient4586"
       spreadMethod="pad"
       gradientTransform="matrix(720.122,661.733,661.733,-720.122,1611.51,2512.02)"
       gradientUnits="userSpaceOnUse"
       y2="0"
       x2="1"
       y1="0"
       x1="0"><stop
         id="stop4582"
         offset="0"
         style="stop-opacity:1;stop-color:#8fd131" /><stop
         id="stop4584"
         offset="1"
         style="stop-opacity:1;stop-color:#50c285" /></linearGradient><clipPath
       id="clipPath4604"
       clipPathUnits="userSpaceOnUse"><path
         inkscape:connector-curvature="0"
         id="path4602"
         d="m 3152.16,2244.73 c -17.64,0 -35.37,8.26 -46.39,25.32 l -346.68,536.5 c -23.81,36.85 2.66,85.4 46.48,85.4 0.07,0 0.14,0 0.2,0 l 601.59,9.63 c 39.93,-0.13 66.59,-41.2 50.46,-77.72 L 3202.9,2277.73 c -9.59,-21.71 -30.11,-33 -50.74,-33" /></clipPath><linearGradient
       id="linearGradient4610"
       spreadMethod="pad"
       gradientTransform="matrix(599.986,-266.624,-266.624,-599.986,2735.42,2815.02)"
       gradientUnits="userSpaceOnUse"
       y2="0"
       x2="1"
       y1="0"
       x1="0"><stop
         id="stop4606"
         offset="0"
         style="stop-opacity:1;stop-color:#9adcbd" /><stop
         id="stop4608"
         offset="1"
         style="stop-opacity:1;stop-color:#afe4df" /></linearGradient><clipPath
       id="clipPath4620"
       clipPathUnits="userSpaceOnUse"><path
         inkscape:connector-curvature="0"
         id="path4618"
         d="m 3491.84,2751.66 -557.97,225.09 c -40.43,17.22 -83.84,-17.25 -76.22,-60.52 l 110.73,-629.09 c 7.64,-43.38 60.41,-60.9 92.47,-30.69 l 447.25,403.98 c 29.06,27.38 20.46,75.58 -16.26,91.23 z" /></clipPath><linearGradient
       id="linearGradient4626"
       spreadMethod="pad"
       gradientTransform="matrix(720.122,661.733,661.733,-720.122,2863.3,2512.02)"
       gradientUnits="userSpaceOnUse"
       y2="0"
       x2="1"
       y1="0"
       x1="0"><stop
         id="stop4622"
         offset="0"
         style="stop-opacity:1;stop-color:#50c285" /><stop
         id="stop4624"
         offset="1"
         style="stop-opacity:1;stop-color:#69ccc6" /></linearGradient><clipPath
       id="clipPath4644"
       clipPathUnits="userSpaceOnUse"><path
         inkscape:connector-curvature="0"
         id="path4642"
         d="m 4400.15,2242.92 c -16.42,0 -32.98,7.18 -44.24,22.33 l -381.18,512.56 c -26.22,35.26 -2.89,85.55 40.96,88.29 l 599.66,49.13 c 1.21,0.08 2.41,0.12 3.6,0.12 37.98,0 65.13,-37.99 51.85,-74.35 l -218.48,-561.69 c -8.63,-23.64 -30.28,-36.39 -52.17,-36.39" /></clipPath><linearGradient
       id="linearGradient4650"
       spreadMethod="pad"
       gradientTransform="matrix(616.209,-226.624,-226.624,-616.209,3950.54,2784.71)"
       gradientUnits="userSpaceOnUse"
       y2="0"
       x2="1"
       y1="0"
       x1="0"><stop
         id="stop4646"
         offset="0"
         style="stop-opacity:1;stop-color:#9dded9" /><stop
         id="stop4648"
         offset="1"
         style="stop-opacity:1;stop-color:#c4ecf4" /></linearGradient><clipPath
       id="clipPath4660"
       clipPathUnits="userSpaceOnUse"><path
         inkscape:connector-curvature="0"
         id="path4658"
         d="m 4713.08,2751.66 -557.98,225.09 c -40.42,17.22 -83.84,-17.25 -76.22,-60.52 l 110.73,-629.09 c 7.64,-43.38 60.42,-60.9 92.48,-30.69 l 447.24,403.98 c 29.06,27.38 20.47,75.58 -16.25,91.23 z" /></clipPath><linearGradient
       id="linearGradient4666"
       spreadMethod="pad"
       gradientTransform="matrix(720.122,661.733,661.733,-720.122,4084.54,2512.02)"
       gradientUnits="userSpaceOnUse"
       y2="0"
       x2="1"
       y1="0"
       x1="0"><stop
         id="stop4662"
         offset="0"
         style="stop-opacity:1;stop-color:#53c5be" /><stop
         id="stop4664"
         offset="1"
         style="stop-opacity:1;stop-color:#86d8ee" /></linearGradient><clipPath
       id="clipPath4684"
       clipPathUnits="userSpaceOnUse"><path
         inkscape:connector-curvature="0"
         id="path4682"
         d="m 739.801,811.52 c -14.899,0 -29.981,5.96 -41.285,18.781 L 276.094,1309.45 c -29.055,32.96 -9.977,85 33.5,91.38 l 593.511,98.75 c 2.79,0.41 5.54,0.61 8.247,0.61 35.617,0 62.964,-34.2 53.175,-69.99 L 793.434,852.301 c -7.11,-25.992 -30.149,-40.781 -53.633,-40.781" /></clipPath><linearGradient
       id="linearGradient4690"
       spreadMethod="pad"
       gradientTransform="matrix(632.896,-174.684,-174.684,-632.896,251.429,1314.32)"
       gradientUnits="userSpaceOnUse"
       y2="0"
       x2="1"
       y1="0"
       x1="0"><stop
         id="stop4686"
         offset="0"
         style="stop-opacity:1;stop-color:#9adeee" /><stop
         id="stop4688"
         offset="1"
         style="stop-opacity:1;stop-color:#97cdee" /></linearGradient><clipPath
       id="clipPath4700"
       clipPathUnits="userSpaceOnUse"><path
         inkscape:connector-curvature="0"
         id="path4698"
         d="m 1018.81,1320.04 -557.974,225.09 c -40.422,17.22 -83.832,-17.25 -76.219,-60.52 L 495.352,855.52 c 7.636,-43.379 60.41,-60.899 92.476,-30.7 l 447.242,404 c 29.06,27.36 20.47,75.56 -16.26,91.22 z" /></clipPath><linearGradient
       id="linearGradient4706"
       spreadMethod="pad"
       gradientTransform="matrix(720.122,661.733,661.733,-720.122,390.277,1080.4)"
       gradientUnits="userSpaceOnUse"
       y2="0"
       x2="1"
       y1="0"
       x1="0"><stop
         id="stop4702"
         offset="0"
         style="stop-opacity:1;stop-color:#4db5e8" /><stop
         id="stop4704"
         offset="1"
         style="stop-opacity:1;stop-color:#4385cd" /></linearGradient><clipPath
       id="clipPath4724"
       clipPathUnits="userSpaceOnUse"><path
         inkscape:connector-curvature="0"
         id="path4722"
         d="m 1959.29,811.449 c -14.97,0 -30.13,6.012 -41.44,18.949 l -420.37,480.942 c -28.92,33.08 -9.61,85.06 33.89,91.24 l 593.92,96.22 c 2.71,0.38 5.38,0.57 8.01,0.57 35.74,0 63.08,-34.38 53.12,-70.21 L 2012.87,852 c -7.2,-25.871 -30.17,-40.559 -53.58,-40.551" /></clipPath><linearGradient
       id="linearGradient4730"
       spreadMethod="pad"
       gradientTransform="matrix(632.145,-177.382,-177.382,-632.145,1472.84,1316.31)"
       gradientUnits="userSpaceOnUse"
       y2="0"
       x2="1"
       y1="0"
       x1="0"><stop
         id="stop4726"
         offset="0"
         style="stop-opacity:1;stop-color:#97cdee" /><stop
         id="stop4728"
         offset="1"
         style="stop-opacity:1;stop-color:#aca7db" /></linearGradient><clipPath
       id="clipPath4740"
       clipPathUnits="userSpaceOnUse"><path
         inkscape:connector-curvature="0"
         id="path4738"
         d="m 2240.05,1320.04 -557.98,225.09 c -40.42,17.22 -83.83,-17.25 -76.22,-60.52 l 110.74,-629.09 c 7.63,-43.379 60.41,-60.899 92.47,-30.7 l 447.24,404 c 29.06,27.36 20.48,75.56 -16.25,91.22 z" /></clipPath><linearGradient
       id="linearGradient4746"
       spreadMethod="pad"
       gradientTransform="matrix(720.122,661.733,661.733,-720.122,1611.51,1080.4)"
       gradientUnits="userSpaceOnUse"
       y2="0"
       x2="1"
       y1="0"
       x1="0"><stop
         id="stop4742"
         offset="0"
         style="stop-opacity:1;stop-color:#4385cd" /><stop
         id="stop4744"
         offset="1"
         style="stop-opacity:1;stop-color:#4655ae" /></linearGradient><clipPath
       id="clipPath4764"
       clipPathUnits="userSpaceOnUse"><path
         inkscape:connector-curvature="0"
         id="path4762"
         d="m 3182.5,811.191 c -16.26,0 -32.66,7.051 -43.95,21.938 l -385.67,509.191 c -26.53,35.03 -3.63,85.52 40.2,88.65 l 599.19,54.4 c 1.39,0.1 2.75,0.15 4.1,0.15 37.73,0 64.9,-37.58 52.01,-73.89 L 3234.84,848.039 c -8.48,-23.891 -30.29,-36.848 -52.34,-36.848" /></clipPath><linearGradient
       id="linearGradient4770"
       spreadMethod="pad"
       gradientTransform="matrix(618.177,-221.197,-221.197,-618.177,2728.64,1349.01)"
       gradientUnits="userSpaceOnUse"
       y2="0"
       x2="1"
       y1="0"
       x1="0"><stop
         id="stop4766"
         offset="0"
         style="stop-opacity:1;stop-color:#aca7db" /><stop
         id="stop4768"
         offset="1"
         style="stop-opacity:1;stop-color:#ccb9e2" /></linearGradient><clipPath
       id="clipPath4780"
       clipPathUnits="userSpaceOnUse"><path
         inkscape:connector-curvature="0"
         id="path4778"
         d="m 3491.84,1320.04 -557.97,225.09 c -40.43,17.22 -83.84,-17.25 -76.22,-60.52 l 110.73,-629.09 c 7.64,-43.379 60.41,-60.899 92.47,-30.7 l 447.25,404 c 29.06,27.36 20.46,75.56 -16.26,91.22 z" /></clipPath><linearGradient
       id="linearGradient4786"
       spreadMethod="pad"
       gradientTransform="matrix(720.122,661.733,661.733,-720.122,2863.3,1080.4)"
       gradientUnits="userSpaceOnUse"
       y2="0"
       x2="1"
       y1="0"
       x1="0"><stop
         id="stop4782"
         offset="0"
         style="stop-opacity:1;stop-color:#4655ae" /><stop
         id="stop4784"
         offset="1"
         style="stop-opacity:1;stop-color:#7f73c1" /></linearGradient><clipPath
       id="clipPath4804"
       clipPathUnits="userSpaceOnUse"><path
         inkscape:connector-curvature="0"
         id="path4802"
         d="m 4411.57,811.059 c -15.91,0 -31.96,6.75 -43.28,21.113 l -395.38,501.688 c -27.2,34.51 -5.27,85.43 38.49,89.39 l 598.04,65.91 c 1.75,0.16 3.47,0.24 5.18,0.24 37.16,0 64.41,-36.69 52.32,-72.9 L 4464.28,848.922 c -8.16,-24.453 -30.29,-37.863 -52.71,-37.863" /></clipPath><linearGradient
       id="linearGradient4810"
       spreadMethod="pad"
       gradientTransform="matrix(622.311,-209.285,-209.285,-622.311,3948.55,1340.08)"
       gradientUnits="userSpaceOnUse"
       y2="0"
       x2="1"
       y1="0"
       x1="0"><stop
         id="stop4806"
         offset="0"
         style="stop-opacity:1;stop-color:#b09cd5" /><stop
         id="stop4808"
         offset="1"
         style="stop-opacity:1;stop-color:#dbaddb" /></linearGradient><clipPath
       id="clipPath4820"
       clipPathUnits="userSpaceOnUse"><path
         inkscape:connector-curvature="0"
         id="path4818"
         d="m 4713.08,1320.04 -557.98,225.09 c -40.42,17.22 -83.84,-17.25 -76.22,-60.52 l 110.73,-629.09 c 7.64,-43.379 60.42,-60.899 92.48,-30.7 l 447.24,404 c 29.06,27.36 20.47,75.56 -16.25,91.22 z" /></clipPath><linearGradient
       id="linearGradient4826"
       spreadMethod="pad"
       gradientTransform="matrix(720.122,661.733,661.733,-720.122,4084.54,1080.4)"
       gradientUnits="userSpaceOnUse"
       y2="0"
       x2="1"
       y1="0"
       x1="0"><stop
         id="stop4822"
         offset="0"
         style="stop-opacity:1;stop-color:#4c4daa" /><stop
         id="stop4824"
         offset="1"
         style="stop-opacity:1;stop-color:#a35fb6" /></linearGradient></defs><sodipodi:namedview
     pagecolor="#ffffff"
     bordercolor="#666666"
     borderopacity="1"
     objecttolerance="10"
     gridtolerance="10"
     guidetolerance="10"
     inkscape:pageopacity="0"
     inkscape:pageshadow="2"
     inkscape:window-width="1920"
     inkscape:window-height="1015"
     id="namedview4"
     showgrid="false"
     fit-margin-top="0"
     fit-margin-left="0"
     fit-margin-right="0"
     fit-margin-bottom="0"
     inkscape:zoom="0.76107044"
     inkscape:cx="298.93993"
     inkscape:cy="34.489665"
     inkscape:window-x="0"
     inkscape:window-y="0"
     inkscape:window-maximized="1"
     inkscape:current-layer="g10"
     inkscape:lockguides="true" /><g
     id="g10"
     inkscape:groupmode="layer"
     inkscape:label="ink_ext_XXXXXX"
     transform="matrix(1.3333333,0,0,-1.3333333,219.52885,420.23121)"><g
       id="g5500"><g
         transform="matrix(0.1,0,0,0.1,-190.44169,14.172728)"
         id="g4518"><g
           id="g4520"
           clip-path="url(#clipPath4524)"><path
             d="m 847.84,2263.1 c -10.145,0 -20.551,2.85 -30.141,9.12 L 283.023,2621.7 c -36.777,24.04 -32.234,79.29 7.977,97 l 545.848,253.1 c 7.382,3.25 14.953,4.76 22.328,4.76 29.121,0 55.262,-23.44 55.336,-55.29 L 903.34,2318.68 c 0.078,-32.58 -26.656,-55.58 -55.5,-55.58"
             style="fill:url(#linearGradient4530);fill-opacity:1;fill-rule:nonzero;stroke:none"
             id="path4532"
             inkscape:connector-curvature="0" /></g></g><g
         transform="matrix(0.1,0,0,0.1,-190.44169,14.172728)"
         id="g4534"><g
           id="g4536"
           clip-path="url(#clipPath4540)"><path
             d="m 1018.81,2751.66 -557.974,225.09 c -40.422,17.22 -83.832,-17.25 -76.219,-60.52 l 110.735,-629.09 c 7.636,-43.38 60.41,-60.9 92.476,-30.69 l 447.242,403.98 c 29.06,27.38 20.47,75.58 -16.26,91.23"
             style="fill:url(#linearGradient4546);fill-opacity:1;fill-rule:nonzero;stroke:none"
             id="path4548"
             inkscape:connector-curvature="0" /></g></g><path
         d="m -139.05849,314.67273 c -0.741,0 -1.4891,-0.161 -2.2031,-0.485 -1.7938,-0.815 -2.9477,-2.475 -3.086,-4.441 l -4.4871,-63.718 c -0.1386,-1.97 0.7743,-3.778 2.4426,-4.835 1.6676,-1.058 3.6926,-1.113 5.4149,-0.147 l 53.1795,28.372 c 1.557,0.872 2.562,2.461 2.684,4.247 0.122,1.785 -0.657,3.496 -2.084,4.575 l -48.6854,35.349 c -0.9481,0.716 -2.0543,1.083 -3.1754,1.083 z m -4.5078,-74.814 c -1.0688,0 -2.1348,0.304 -3.0934,0.912 -1.8257,1.158 -2.8254,3.136 -2.6742,5.294 l 4.4875,63.717 c 0.1512,2.152 1.4141,3.969 3.3777,4.861 1.9629,0.893 4.1633,0.648 5.8833,-0.652 l 48.6877,-35.35 c 1.563,-1.181 2.416,-3.054 2.283,-5.009 -0.134,-1.955 -1.234,-3.694 -2.944,-4.652 l -53.1787,-28.371 c -0.8934,-0.501 -1.8625,-0.75 -2.8289,-0.75"
         style="fill:#ecd125;fill-opacity:1;fill-rule:nonzero;stroke:none;stroke-width:0.1"
         id="path4550"
         inkscape:connector-curvature="0" /><g
         id="g4552"
         transform="translate(-190.44169,14.172728)"><g
           aria-label="05"
           transform="matrix(1,0,0,-1,51.6527,253.411)"
           style="font-variant:normal;font-weight:500;font-size:29px;font-family:AdventPro;-inkscape-font-specification:AdventPro-Medium;writing-mode:lr-tb;fill:#ffffff;fill-opacity:1;fill-rule:nonzero;stroke:none"
           id="text4556"><path
             d="m 9.2182617,-19.257812 q -2.2089844,0 -3.3276367,2.180664 -1.1044922,2.166503 -1.1044922,6.527832 0,4.3471676 1.1044922,6.5278316 1.1186523,2.1665039 3.3276367,2.1665039 2.2231443,0 3.3276363,-2.1665039 1.118653,-2.180664 1.118653,-6.5278316 0,-4.361329 -1.118653,-6.527832 -1.104492,-2.180664 -3.3276363,-2.180664 z m 0,-2.265625 q 3.5541993,0 5.4233403,2.817871 1.8833,2.803711 1.8833,8.15625 0,5.3383785 -1.8833,8.1562496 -1.869141,2.80371093 -5.4233403,2.80371093 -3.5541992,0 -5.4375,-2.80371093 -1.8691406,-2.8178711 -1.8691406,-8.1562496 0,-5.352539 1.8691406,-8.15625 1.8833008,-2.817871 5.4375,-2.817871 z"
             id="path5502"
             inkscape:connector-curvature="0" /><path
             d="m 19.050394,-21.141113 h 11.229004 v 2.407226 h -8.609375 v 5.182617 q 0.623047,-0.212402 1.246094,-0.311523 0.623047,-0.113281 1.246093,-0.113281 3.54004,0 5.607422,1.939941 2.067383,1.939942 2.067383,5.2534182 0,3.4125976 -2.124023,5.3100586 -2.124024,1.88330073 -5.989746,1.88330073 -1.331055,0 -2.71875,-0.2265625 -1.373536,-0.2265625 -2.846192,-0.6796875 V -3.3701172 q 1.274414,0.6938477 2.633789,1.0336914 1.359375,0.3398438 2.874512,0.3398438 2.449707,0 3.879883,-1.2885743 1.430176,-1.2885742 1.430176,-3.4975585 0,-2.2089844 -1.430176,-3.4975582 -1.430176,-1.288575 -3.879883,-1.288575 -1.146973,0 -2.293945,0.254883 -1.132813,0.254883 -2.322266,0.792969 z"
             id="path5504"
             inkscape:connector-curvature="0" /></g></g></g></g></svg>