<?xml version="1.0" encoding="UTF-8" standalone="no"?>
<!-- Created with Inkscape (http://www.inkscape.org/) -->

<svg
   xmlns:dc="http://purl.org/dc/elements/1.1/"
   xmlns:cc="http://creativecommons.org/ns#"
   xmlns:rdf="http://www.w3.org/1999/02/22-rdf-syntax-ns#"
   xmlns:svg="http://www.w3.org/2000/svg"
   xmlns="http://www.w3.org/2000/svg"
   xmlns:sodipodi="http://sodipodi.sourceforge.net/DTD/sodipodi-0.dtd"
   xmlns:inkscape="http://www.inkscape.org/namespaces/inkscape"
   version="1.1"
   id="svg2"
   xml:space="preserve"
   width="198.52972"
   height="42.429832"
   viewBox="0 0 198.52972 42.429832"
   sodipodi:docname="about.svg"
   inkscape:version="0.92.3 (2405546, 2018-03-11)"><metadata
     id="metadata8"><rdf:RDF><cc:Work
         rdf:about=""><dc:format>image/svg+xml</dc:format><dc:type
           rdf:resource="http://purl.org/dc/dcmitype/StillImage" /><dc:title></dc:title></cc:Work></rdf:RDF></metadata><defs
     id="defs6"><clipPath
       clipPathUnits="userSpaceOnUse"
       id="clipPath20"><path
         d="M 2880,0 H 0 V 2880 H 2880 V 0 M 857.059,468.371 835.051,466.18 v -30.149 l 314.979,31.301 1128.35,-4.004 32.55,119.363 136.29,13.539 86.88,547.66 -68.87,4.58 33.15,121.53 -929.08,-62.03 -311.75,20.71 v -30.07 l 86,-5.71 -1041.831,-69.55 96.66,-653.35 458.68,-1.629 m 0,1146.659 -22.008,-2.18 v -30.15 l 314.979,31.3 1128.35,-4 32.55,119.35 136.29,13.55 86.88,547.66 -68.87,4.57 33.15,121.53 -929.08,-62.02 -311.75,20.7 v -30.06 l 86,-5.71 -1041.831,-69.55 96.66,-653.36 458.68,-1.63 M 2319.38,613.68 l 137.8,505.26 42.15,-2.8 -78.12,-492.339 -101.83,-10.121 m 0,1146.67 137.8,505.25 42.15,-2.8 -78.12,-492.34 -101.83,-10.11"
         id="path18"
         inkscape:connector-curvature="0" /></clipPath><linearGradient
       x1="0"
       y1="0"
       x2="1"
       y2="0"
       gradientUnits="userSpaceOnUse"
       gradientTransform="matrix(-3600.85,-3600.85,-3600.85,3600.85,3649.2,3649.18)"
       spreadMethod="pad"
       id="linearGradient26"><stop
         style="stop-opacity:1;stop-color:#ffffff"
         offset="0"
         id="stop22" /><stop
         style="stop-opacity:1;stop-color:#f6f8f9"
         offset="1"
         id="stop24" /></linearGradient><clipPath
       clipPathUnits="userSpaceOnUse"
       id="clipPath38"><path
         d="m 2278.38,1610 -1128.35,4 1160.9,115.35 -32.55,-119.35 m -1421.321,5.03 -458.68,1.63 -96.66,653.36 1041.831,69.55 1113.63,-73.97 -137.8,-505.25 -1462.321,-145.32 m 1608.171,680.1 -895.93,59.51 929.08,62.02 -33.15,-121.53"
         id="path36"
         inkscape:connector-curvature="0" /></clipPath><linearGradient
       x1="0"
       y1="0"
       x2="1"
       y2="0"
       gradientUnits="userSpaceOnUse"
       gradientTransform="matrix(-3600.85,-3600.85,-3600.85,3600.85,3649.2,3649.18)"
       spreadMethod="pad"
       id="linearGradient44"><stop
         style="stop-opacity:1;stop-color:#f9da08"
         offset="0"
         id="stop40" /><stop
         style="stop-opacity:1;stop-color:#f9d908"
         offset="1"
         id="stop42" /></linearGradient><clipPath
       clipPathUnits="userSpaceOnUse"
       id="clipPath104"><path
         d="m 2278.38,463.328 -1128.35,4.004 1160.9,115.359 -32.55,-119.363 M 857.059,468.371 398.379,470 301.719,1123.35 1343.55,1192.9 2457.18,1118.94 2319.38,613.68 857.059,468.371 m 1608.171,680.099 -895.93,59.5 929.08,62.03 -33.15,-121.53"
         id="path102"
         inkscape:connector-curvature="0" /></clipPath><linearGradient
       x1="0"
       y1="0"
       x2="1"
       y2="0"
       gradientUnits="userSpaceOnUse"
       gradientTransform="matrix(-3600.85,-3600.85,-3600.85,3600.85,3649.2,3649.18)"
       spreadMethod="pad"
       id="linearGradient110"><stop
         style="stop-opacity:1;stop-color:#5cc7a0"
         offset="0"
         id="stop106" /><stop
         style="stop-opacity:1;stop-color:#5cc79f"
         offset="1"
         id="stop108" /></linearGradient><clipPath
       id="clipPath1050"
       clipPathUnits="userSpaceOnUse"><path
         style="clip-rule:evenodd"
         inkscape:connector-curvature="0"
         id="path1048"
         d="m 118.2634,472.4889 628.06,5.1804 V 315.2279 l -628.06,-5.1803 z" /></clipPath><clipPath
       id="clipPath1060"
       clipPathUnits="userSpaceOnUse"><path
         style="clip-rule:evenodd"
         inkscape:connector-curvature="0"
         id="path1058"
         d="m 118.2634,310.0476 h 628.06 v 167.6217 h -628.06 z" /></clipPath><clipPath
       id="clipPath1398"
       clipPathUnits="userSpaceOnUse"><path
         style="clip-rule:evenodd"
         inkscape:connector-curvature="0"
         id="path1396"
         d="m 118.2634,472.4889 628.06,5.1804 V 315.2279 l -628.06,-5.1803 z" /></clipPath><clipPath
       id="clipPath1408"
       clipPathUnits="userSpaceOnUse"><path
         style="clip-rule:evenodd"
         inkscape:connector-curvature="0"
         id="path1406"
         d="m 118.2634,310.0476 h 628.06 v 167.6217 h -628.06 z" /></clipPath></defs><sodipodi:namedview
     pagecolor="#ffffff"
     bordercolor="#666666"
     borderopacity="1"
     objecttolerance="10"
     gridtolerance="10"
     guidetolerance="10"
     inkscape:pageopacity="0"
     inkscape:pageshadow="2"
     inkscape:window-width="1920"
     inkscape:window-height="1015"
     id="namedview4"
     showgrid="false"
     fit-margin-top="0"
     fit-margin-left="0"
     fit-margin-right="0"
     fit-margin-bottom="0"
     showguides="true"
     inkscape:guide-bbox="true"
     inkscape:zoom="0.4164122"
     inkscape:cx="89.948549"
     inkscape:cy="68.956848"
     inkscape:window-x="0"
     inkscape:window-y="0"
     inkscape:window-maximized="1"
     inkscape:current-layer="g10" /><g
     id="g10"
     inkscape:groupmode="layer"
     inkscape:label="ink_ext_XXXXXX"
     transform="matrix(1.3333333,0,0,-1.3333333,-54.158037,156.48105)"><flowRoot
       xml:space="preserve"
       id="flowRoot1303"
       style="font-style:normal;font-variant:normal;font-weight:normal;font-stretch:normal;font-size:40px;line-height:1.25;font-family:Manjari;-inkscape-font-specification:'Manjari, Normal';font-variant-ligatures:normal;font-variant-caps:normal;font-variant-numeric:normal;font-feature-settings:normal;text-align:start;letter-spacing:0px;word-spacing:0px;writing-mode:lr-tb;text-anchor:start;fill:#000000;fill-opacity:1;stroke:none"
       transform="matrix(0.75000002,0,0,-0.75000002,34.059136,129.25967)"><flowRegion
         id="flowRegion1305"><rect
           id="rect1307"
           width="162.59244"
           height="76.4142"
           x="61.131359"
           y="-83.776459" /></flowRegion><flowPara
         id="flowPara1309">sceneografisce</flowPara></flowRoot><flowRoot
       xml:space="preserve"
       id="flowRoot1311"
       style="font-style:normal;font-variant:normal;font-weight:normal;font-stretch:normal;font-size:40px;line-height:1.25;font-family:Manjari;-inkscape-font-specification:'Manjari, Normal';font-variant-ligatures:normal;font-variant-caps:normal;font-variant-numeric:normal;font-feature-settings:normal;text-align:start;letter-spacing:0px;word-spacing:0px;writing-mode:lr-tb;text-anchor:start;fill:#000000;fill-opacity:1;stroke:none"
       transform="matrix(0.75000002,0,0,-0.75000002,34.059136,129.25967)"><flowRegion
         id="flowRegion1313"><rect
           id="rect1315"
           width="224.14832"
           height="74.71611"
           x="-29.716633"
           y="-97.361198" /></flowRegion><flowPara
         id="flowPara1317"></flowPara></flowRoot><path
       inkscape:connector-curvature="0"
       id="path1453"
       style="font-style:normal;font-variant:normal;font-weight:normal;font-stretch:normal;font-size:medium;line-height:1.25;font-family:Manjari;-inkscape-font-specification:'Manjari, Normal';font-variant-ligatures:normal;font-variant-caps:normal;font-variant-numeric:normal;font-feature-settings:normal;text-align:start;letter-spacing:0px;word-spacing:0px;writing-mode:lr-tb;text-anchor:start;fill:#005585;fill-opacity:1;stroke:none;stroke-width:1.54729891"
       d="m 55.69865,117.23991 c -8.431571,0 -15.080121,-7.43429 -15.080121,-15.83564 0,-8.461788 6.61833,-15.865855 15.201004,-15.865855 8.461791,0.06044 15.019678,7.464509 15.019678,15.865855 0,8.43157 -6.67877,15.83564 -15.140561,15.83564 z m 0,-4.5331 c 5.983694,0 10.60746,-5.31884 10.60746,-11.30254 0,-5.983691 -4.563324,-11.272311 -10.516798,-11.332752 -6.074358,0 -10.637679,5.349061 -10.637679,11.393192 0,5.95348 4.623763,11.2421 10.547017,11.2421 z" /><path
       inkscape:connector-curvature="0"
       id="path1455"
       style="font-style:normal;font-variant:normal;font-weight:normal;font-stretch:normal;font-size:medium;line-height:1.25;font-family:Manjari;-inkscape-font-specification:'Manjari, Normal';font-variant-ligatures:normal;font-variant-caps:normal;font-variant-numeric:normal;font-feature-settings:normal;text-align:start;letter-spacing:0px;word-spacing:0px;writing-mode:lr-tb;text-anchor:start;fill:#4da6dd;fill-opacity:0.92156863;stroke:none;stroke-width:1.54729891"
       d="m 94.864653,117.27013 c -1.299489,0 -2.266551,-1.0275 -2.266551,-2.29677 l 0.03022,-27.138173 c 0,-1.269268 0.997283,-2.296772 2.266551,-2.296772 1.239048,0 2.266552,1.027504 2.266552,2.266552 V 102.6131 c 0,6.37656 3.384715,10.03327 9.942605,10.03327 5.22818,0 6.55789,-4.77487 6.55789,-10.12393 l -0.0302,-14.626811 c 0,-1.269269 0.99728,-2.296772 2.26655,-2.296772 1.23905,0 2.26655,1.027503 2.26655,2.26655 l 0.0302,14.657033 c 0,7.70627 -3.08251,14.65703 -11.09099,14.65703 -4.62377,0 -7.827158,-3.14295 -9.972826,-5.77215 l -0.151109,3.59626 c 0,1.23905 -0.876399,2.26655 -2.115447,2.26655 z" /><path
       inkscape:connector-curvature="0"
       id="path1457"
       style="font-style:normal;font-variant:normal;font-weight:normal;font-stretch:normal;font-size:medium;line-height:1.25;font-family:Manjari;-inkscape-font-specification:'Manjari, Normal';font-variant-ligatures:normal;font-variant-caps:normal;font-variant-numeric:normal;font-feature-settings:normal;text-align:start;letter-spacing:0px;word-spacing:0px;writing-mode:lr-tb;text-anchor:start;fill:#4da6dd;fill-opacity:0.92156863;stroke:none;stroke-width:1.54729891"
       d="m 139.6517,117.20969 c -8.46179,0 -14.77791,-7.58539 -14.77791,-15.83564 0,-8.280463 6.34634,-15.744972 14.62681,-15.744972 4.01935,0 7.82716,2.780302 10.48658,5.681488 v -3.445159 c 0,-1.178605 0.93684,-2.115447 2.11544,-2.115447 1.17861,0 2.11545,0.936842 2.11545,2.115447 V 115.1849 c 0,1.17861 -0.93684,2.11545 -2.11545,2.11545 -1.1786,0 -1.84345,-0.96706 -1.84345,-2.11545 l -0.27199,-3.8078 c -2.56876,2.7803 -6.01392,5.83259 -10.33548,5.83259 z m 10.48658,-15.65431 c 0,-5.893036 -4.86553,-11.393201 -10.63768,-11.393201 -5.74192,0 -10.09371,5.409503 -10.09371,11.211871 0,5.86282 4.38201,11.30254 10.27503,11.30254 5.80237,0 10.45636,-5.28862 10.45636,-11.12121 z" /><path
       inkscape:connector-curvature="0"
       id="path1459"
       style="font-style:normal;font-variant:normal;font-weight:normal;font-stretch:normal;font-size:medium;line-height:1.25;font-family:Manjari;-inkscape-font-specification:'Manjari, Normal';font-variant-ligatures:normal;font-variant-caps:normal;font-variant-numeric:normal;font-feature-settings:normal;text-align:start;letter-spacing:0px;word-spacing:0px;writing-mode:lr-tb;text-anchor:start;fill:#4da6dd;fill-opacity:0.92156863;stroke:none;stroke-width:1.54729891"
       d="m 175.82587,117.36079 c -6.31614,0 -13.84109,-2.81052 -13.84109,-9.54973 0,-6.04414 6.01392,-7.52495 11.18167,-8.129366 3.83801,-0.45331 11.9976,-0.181323 11.9976,-4.381998 0,-4.01935 -5.07708,-5.34906 -9.21731,-5.34906 -4.83531,0 -8.58266,1.480813 -10.30526,4.805087 -0.33242,0.664856 -1.20882,1.208827 -1.96434,1.208827 -1.20883,0 -2.17589,-0.967062 -2.17589,-2.175889 0,-0.302206 0.0907,-0.755517 0.24177,-1.027502 2.41765,-4.714427 7.91782,-7.192523 14.20372,-7.192523 6.67878,0 13.56909,2.931407 13.56909,9.73106 0,6.285904 -6.07436,7.615614 -11.57453,8.189804 -3.68692,0.39287 -11.60474,0.36265 -11.60474,4.32156 0,3.77758 5.71172,5.16773 9.45907,5.16773 3.9287,0 7.04143,-1.48081 8.49203,-4.20067 0.33242,-0.66486 1.20882,-1.17861 1.93412,-1.17861 1.20883,0 2.20611,0.96707 2.20611,2.17589 0,0.30221 -0.12085,0.78574 -0.27199,1.05773 -2.14567,4.01935 -6.95076,6.52766 -12.33003,6.52766 z" /></g></svg>