<?xml version="1.0" encoding="UTF-8"?>
<!DOCTYPE svg PUBLIC "-//W3C//DTD SVG 1.1//EN" "http://www.w3.org/Graphics/SVG/1.1/DTD/svg11.dtd">
<!-- Creator: CorelDRAW 2019 (64-Bit) -->
<svg xmlns="http://www.w3.org/2000/svg" xml:space="preserve" width="57.5732mm" height="29.0406mm" version="1.1" style="shape-rendering:geometricPrecision; text-rendering:geometricPrecision; image-rendering:optimizeQuality; fill-rule:evenodd; clip-rule:evenodd"
viewBox="0 0 5757.32 2904.06"
 xmlns:xlink="http://www.w3.org/1999/xlink"
 xmlns:xodm="http://www.corel.com/coreldraw/odm/2003">
 <defs>
  <style type="text/css">
   <![CDATA[
    .fil0 {fill:none}
    .fil1 {fill:#008DD2;fill-rule:nonzero}
   ]]>
  </style>
 </defs>
 <g id="Layer_x0020_1">
  <metadata id="CorelCorpID_0Corel-Layer"/>
  <rect class="fil0" x="-0" y="-59.25" width="5757.32" height="3031.05"/>
  <path class="fil1" d="M2981.85 2166.14l399.42 -346.63c65.73,-57.05 72.72,-156.57 15.72,-222.27 -57.04,-65.72 -156.54,-72.77 -222.26,-15.74l-138.65 120.31 0 -836.39c0,-87.02 -70.54,-157.57 -157.55,-157.57 -87.01,0 -157.56,70.55 -157.56,157.57l0 836.39 -138.41 -120.08c-65.73,-57.02 -165.23,-49.97 -222.26,15.76 -25.88,29.83 -38.55,66.59 -38.55,103.2 0,44.07 18.39,87.92 54.32,119.08l399.27 346.39c59.24,51.4 147.27,51.39 206.51,-0.02z"/>
 </g>
</svg>
