<?xml version="1.0" encoding="UTF-8"?>
<!DOCTYPE svg PUBLIC "-//W3C//DTD SVG 1.1//EN" "http://www.w3.org/Graphics/SVG/1.1/DTD/svg11.dtd">
<!-- Creator: CorelDRAW 2019 (64-Bit) -->
<svg xmlns="http://www.w3.org/2000/svg" xml:space="preserve" width="1.33333in" height="1.33333in" version="1.1" style="shape-rendering:geometricPrecision; text-rendering:geometricPrecision; image-rendering:optimizeQuality; fill-rule:evenodd; clip-rule:evenodd"
viewBox="0 0 1333.33 1333.33"
 xmlns:xlink="http://www.w3.org/1999/xlink"
 xmlns:xodm="http://www.corel.com/coreldraw/odm/2003">
 <defs>
  <style type="text/css">
   <![CDATA[
    .fil0 {fill:none}
    .fil1 {fill:#FEFEFE;fill-rule:nonzero;fill-opacity:0.490196}
   ]]>
  </style>
 </defs>
 <g id="Layer_x0020_1">
  <metadata id="CorelCorpID_0Corel-Layer"/>
  <rect class="fil0" width="1333.33" height="1333.33"/>
  <path class="fil1" d="M1333.33 622.42c-50.54,43.75 -106.74,77.31 -168.59,100.32 -61.85,23 -126.72,34.51 -194.42,34.51 -52.05,0 -99.95,-7.35 -143.7,-21.87 -43.94,-14.52 -83.16,-36.02 -117.67,-64.3 -38.85,-31.62 -69.31,-67.56 -91.59,-107.62 -3.19,54.82 -24.9,97.17 -65.02,127.04 -43.75,32.44 -107.11,48.65 -190.28,48.65l-362.07 0 0 -738.85 334.91 0c79.96,0 142.94,17.91 188.96,53.93 46.01,35.83 69.02,85.05 69.02,147.28 0,44.88 -13.01,81.28 -39.04,109.19 -25.83,27.72 -64.3,46.01 -115.22,54.88 57.89,14.71 102.21,37.9 132.95,69.39 1.5,1.54 2.96,3.09 4.39,4.66 -3.49,-22.85 -5.24,-46.78 -5.24,-71.79 0,-55.26 11.5,-108.43 34.51,-159.35 23.01,-51.1 55.26,-94.48 96.56,-130.12 36.02,-30.93 76.94,-54.31 122.57,-70.15 45.82,-15.84 95.04,-23.76 148.22,-23.76 67.7,0 126.72,13.58 177.07,40.55 50.35,27.15 93.91,69.02 130.69,125.78l-93.72 69.02c-22.44,-47.9 -49.97,-83.92 -82.41,-107.87 -32.44,-23.95 -69.4,-35.83 -111.07,-35.83 -63.74,0 -113.15,25.65 -148.22,77.13 -34.89,51.29 -52.43,123.89 -52.43,217.81 0,85.43 19.8,154.82 59.21,208 39.41,53.18 90.52,79.77 153.69,79.77 23.57,0 45.63,-3.58 66.19,-10.75 20.74,-7.17 40.73,-17.91 60.35,-32.25l0 -205.93 201.4 0 0 212.53zm-1131.94 -530.47l0 222.9 45.26 0c49.97,0 85.43,-8.48 105.98,-25.46 20.56,-16.97 30.93,-45.83 30.93,-86.75 0,-38.09 -10.19,-66 -30.36,-83.92 -20.18,-17.91 -51.48,-26.78 -93.91,-26.78l-57.9 0zm0 313.41l0 242.13 48.65 0c54.31,0 92.78,-9.24 115.41,-27.91 22.63,-18.67 33.94,-49.97 33.94,-94.29 0,-40.92 -10.94,-71.09 -33,-90.7 -22.06,-19.43 -56.39,-29.23 -102.59,-29.23l-62.42 0z"/>
 </g>
</svg>
