<?xml version="1.0" encoding="UTF-8"?>
<!DOCTYPE svg PUBLIC "-//W3C//DTD SVG 1.1//EN" "http://www.w3.org/Graphics/SVG/1.1/DTD/svg11.dtd">
<!-- Creator: CorelDRAW 2019 (64-Bit) -->
<svg xmlns="http://www.w3.org/2000/svg" xml:space="preserve" width="220mm" height="220mm" version="1.1" style="shape-rendering:geometricPrecision; text-rendering:geometricPrecision; image-rendering:optimizeQuality; fill-rule:evenodd; clip-rule:evenodd"
viewBox="0 0 22000 22000"
 xmlns:xlink="http://www.w3.org/1999/xlink"
 xmlns:xodm="http://www.corel.com/coreldraw/odm/2003">
 <defs>
  <style type="text/css">
   <![CDATA[
    .fil0 {fill:#004A6E;fill-rule:nonzero}
   ]]>
  </style>
 </defs>
 <g id="Layer_x0020_1">
  <metadata id="CorelCorpID_0Corel-Layer"/>
  <g id="_1100371264">
   <g id="Outline">
    <g>
     <path class="fil0" d="M20298.08 13200.16c-179.22,-0.03 -324.56,145.31 -324.56,324.53l0 1947.33 -18175.11 0.02 0 -7464.78c0.03,-179.21 -145.32,-324.56 -324.53,-324.56 -179.22,0 -324.56,145.35 -324.56,324.56l-0.02 7789.34c0.02,179.2 145.36,324.55 324.58,324.55l1298.19 0.01 0 324.56c1.44,473.96 344.14,878.11 811.43,957.03l-0.03 2937.62c0.01,179.21 145.36,324.55 324.57,324.55 179.22,0 324.56,-145.34 324.56,-324.56l-0.03 -2920.99 1622.79 0 0 2921c0,179.21 145.35,324.55 324.56,324.55 179.22,0 324.56,-145.34 324.56,-324.56l-0.01 -2970.64c99.24,-56.12 161.14,-160.9 162.3,-274.91 0,-179.21 -145.34,-324.56 -324.56,-324.56l-2596.47 0.02c-179.2,-0.02 -324.55,-145.36 -324.55,-324.58l0 -324.53 11034.89 0 0 324.56c1.42,473.96 344.12,878.11 811.41,957.03l-0.02 2937.62c0,179.21 145.35,324.55 324.56,324.55 179.22,0 324.56,-145.34 324.56,-324.56l-0.01 -2920.99 1622.79 0 0 2921c-0.02,179.21 145.33,324.55 324.54,324.55 179.22,0 324.56,-145.34 324.56,-324.56l0 -2937.53c467.27,-79 809.97,-483.15 811.4,-957.09l0 -324.58 1298.21 0c179.22,-0.01 324.56,-145.36 324.56,-324.57l0 -2271.88c0,-179.24 -145.34,-324.58 -324.56,-324.58l0 0.03zm-1947.33 3245.55c0.01,179.2 -145.33,324.54 -324.55,324.54l-2596.46 0.02c-179.21,-0.02 -324.56,-145.36 -324.56,-324.58l0.02 -324.53 3245.55 0 0 324.55z"/>
     <path class="fil0" d="M20298.08 4437.16l-1298.21 0 0 -649.12c-0.08,-64.07 -19.09,-126.8 -54.53,-180.14l-312.87 -468.97 42.84 0c179.21,0 324.56,-145.35 324.56,-324.56l0 -649.11c0,-537.65 -436.02,-973.66 -973.67,-973.66l-649.12 0c-537.65,0 -973.67,436.01 -973.67,973.66l0 649.11c0,179.21 145.35,324.56 324.56,324.56l1124.6 0 498.18 746.47 0 551.76 -3894.67 0 0 -649.12c-0.06,-64.07 -19.08,-126.8 -54.51,-180.14l-312.88 -468.97 42.84 0c179.22,0 324.56,-145.35 324.56,-324.56l-0.01 -649.11c0,-537.65 -436.02,-973.66 -973.67,-973.66l-649.11 0c-537.64,0 -973.66,436.01 -973.66,973.66l0 649.11c0,179.21 145.34,324.56 324.56,324.56l1124.58 0 498.19 746.47 0 551.76 -4543.77 0 0 -649.12c-0.06,-64.07 -19.08,-126.8 -54.51,-180.14l-312.9 -468.97 42.85 0c179.23,0 324.57,-145.35 324.57,-324.56l-0.01 -649.11c0.01,-537.65 -436.01,-973.66 -973.65,-973.66l-649.14 0c-537.63,0 -973.65,436.01 -973.65,973.66l-0.02 649.11c0.02,179.21 145.36,324.56 324.58,324.56l1124.56 0 498.2 746.47 0 551.76 -3894.67 0 0 -649.12c-0.05,-64.07 -19.06,-126.8 -54.5,-180.14l-312.89 -468.97 42.84 0c179.23,0 324.58,-145.35 324.58,-324.56l-0.03 -649.11c0.01,-537.65 -436.01,-973.66 -973.65,-973.66l-649.13 0c-537.63,0 -973.65,436.01 -973.65,973.66l-0.01 649.11c0.01,179.21 145.36,324.56 324.57,324.56l1124.57 0 498.19 746.47 0 551.76 -2596.44 0c-179.2,-0.02 -324.54,145.33 -324.54,324.54l0 1947.34c0,179.21 145.34,324.56 324.56,324.56 179.21,0 324.56,-145.35 324.56,-324.56l-0.03 -1622.78 18175.12 0 0 7140.23c-0.01,179.2 145.33,324.55 324.55,324.55 179.22,0 324.56,-145.35 324.56,-324.56l0 -7464.78c0,-179.21 -145.34,-324.56 -324.56,-324.56l0 0.02zm-3245.55 -2271.9c-0.01,-179.21 145.33,-324.56 324.55,-324.56l649.12 0c179.22,0 324.56,145.35 324.56,324.56l-0.01 324.56 -1298.22 0 0 -324.56zm-4543.79 0c0,-179.21 145.35,-324.56 324.56,-324.56l649.11 0c179.22,0 324.56,145.35 324.56,324.56l0 324.56 -1298.23 0 0 -324.56zm-5192.88 0c0,-179.21 145.35,-324.56 324.56,-324.56l649.11 0c179.23,0 324.58,145.35 324.58,324.56l-0.03 324.56 -1298.22 0 0 -324.56zm-4543.79 0c0.02,-179.21 145.36,-324.56 324.58,-324.56l649.09 0c179.23,0 324.58,145.35 324.58,324.56l-0.02 324.56 -1298.23 0 0 -324.56z"/>
     <path class="fil0" d="M4070.3 9630.04l7302.5 0c179.17,-0.03 324.47,-145.36 324.47,-324.55 0,-114.55 -60.43,-220.66 -158.93,-279.11l-4381.5 -2596.44c-50.09,-29.72 -107.27,-45.4 -165.52,-45.4 -58.25,0 -115.43,15.68 -165.51,45.37l-4381.5 2596.44c-98.53,58.48 -158.96,164.59 -158.96,279.14 0,179.19 145.3,324.52 324.48,324.56l811.36 -0.01 0 4868.33c0,179.2 145.35,324.55 324.57,324.55l6491.1 0.01c179.24,-0.01 324.58,-145.36 324.58,-324.57l-0.03 -3894.66c0.03,-179.21 -145.31,-324.56 -324.53,-324.56 -179.22,0 -324.56,145.35 -324.56,324.56l-0.02 3570.13 -1298.22 0 0 -1947.34c0.03,-716.88 -581.34,-1298.22 -1298.2,-1298.22l-649.14 0c-716.85,0 -1298.21,581.34 -1298.21,1298.21l0 1947.33 -1298.23 0.02 0 -4543.79zm5517.44 -1245.31l600.76 596.2 -6393.75 0 5792.99 -596.2zm-3570.1 3841.76c0.01,-358.44 290.68,-649.12 649.12,-649.12l649.1 0c358.45,0 649.12,290.68 649.12,649.11l0 1947.33 -1947.34 0.02 0 -1947.34z"/>
     <path class="fil0" d="M17377.08 9954.6c268.82,0 486.83,218.01 486.83,486.83 0,179.22 145.35,324.56 324.56,324.56 179.22,0 324.56,-145.34 324.56,-324.56 -1.79,-500.52 -331.7,-940.78 -811.42,-1083.1l0.03 -377.4c0,-179.21 -145.35,-324.56 -324.56,-324.56 -179.22,0 -324.56,145.35 -324.56,324.56l0 377.46c-481.42,142.2 -811.8,584.31 -811.8,1086.29 0,625.45 507.25,1132.69 1132.71,1132.69 1.1,0 2.48,0 3.6,0 268.87,-0.01 486.88,218 486.88,486.82 0,268.82 -218.01,486.83 -486.83,486.83 -268.83,0 -486.83,-218.01 -486.83,-486.83 0.01,-179.22 -145.33,-324.56 -324.55,-324.56 -179.22,0 -324.56,145.34 -324.56,324.56 1.79,500.53 331.71,940.78 811.42,1083.1l-0.03 377.42c-0.01,179.2 145.33,324.54 324.55,324.54 179.21,0 324.56,-145.34 324.56,-324.56l0 -377.43c481.44,-142.23 811.81,-584.34 811.81,-1086.32 0,-625.46 -507.23,-1132.69 -1132.71,-1132.69 -1.1,0 -2.48,0 -3.58,0 -268.91,0.02 -486.91,-217.99 -486.91,-486.82 0,-268.82 218,-486.83 486.83,-486.83z"/>
     <path class="fil0" d="M18675.31 6709.04c179.21,0.01 324.56,-145.33 324.56,-324.55 0,-179.22 -145.35,-324.56 -324.56,-324.56l-5842.01 0c-179.21,0 -324.56,145.34 -324.56,324.56l0 1298.23c0,179.2 145.35,324.54 324.56,324.54l5842.01 0c179.21,0 324.56,-145.34 324.56,-324.56 0,-179.21 -145.35,-324.56 -324.56,-324.56l-5517.44 0.02 0 -649.12 5517.44 0z"/>
     <path class="fil0" d="M12508.74 10279.16c0,179.22 145.35,324.56 324.56,324.56l1947.34 -0.02c179.21,0.02 324.56,-145.32 324.56,-324.54l0 -1298.23c0,-179.21 -145.35,-324.56 -324.56,-324.56l-1947.34 0c-179.21,0 -324.56,145.35 -324.56,324.56l0 1298.23zm973.67 -2596.46l1298.23 0 0 649.11 -1622.77 0.02 324.54 -649.13z"/>
     <path class="fil0" d="M12508.74 12875.6c0,179.2 145.35,324.54 324.56,324.54l1947.34 0.02c179.21,-0.02 324.56,-145.36 324.56,-324.58l0 -1298.21c0,-179.23 -145.35,-324.57 -324.56,-324.57l-1947.34 0.03c-179.21,-0.03 -324.56,145.31 -324.56,324.53l0 1298.24zm973.67 -2596.44l1298.23 0 0 649.11 -1622.77 0 324.54 -649.11z"/>
     <path class="fil0" d="M12833.3 14498.37l2921.01 0c179.21,0 324.56,-145.34 324.56,-324.56 0,-179.21 -145.35,-324.56 -324.56,-324.56l-2921.01 0.02c-179.21,-0.02 -324.56,145.33 -324.56,324.54 0,179.22 145.35,324.56 324.56,324.56z"/>
    </g>
   </g>
  </g>
 </g>
</svg>
