<?xml version="1.0" encoding="UTF-8"?>
<!DOCTYPE svg PUBLIC "-//W3C//DTD SVG 1.1//EN" "http://www.w3.org/Graphics/SVG/1.1/DTD/svg11.dtd">
<!-- Creator: CorelDRAW 2019 (64-Bit) -->
<svg xmlns="http://www.w3.org/2000/svg" xml:space="preserve" width="220mm" height="220mm" version="1.1" style="shape-rendering:geometricPrecision; text-rendering:geometricPrecision; image-rendering:optimizeQuality; fill-rule:evenodd; clip-rule:evenodd"
viewBox="0 0 22000 22000"
 xmlns:xlink="http://www.w3.org/1999/xlink"
 enable-background="new 0 0 64 64"
 xmlns:xodm="http://www.corel.com/coreldraw/odm/2003">
 <defs>
  <style type="text/css">
   <![CDATA[
    .fil0 {fill:#FEFEFE;fill-rule:nonzero}
   ]]>
  </style>
 </defs>
 <g id="Layer_x0020_1">
  <metadata id="CorelCorpID_0Corel-Layer"/>
  <g id="_1188316480">
   <g id="_1104802944">
    <path class="fil0" d="M3548.77 8393.03c55.2,55.2 127.67,82.94 200.13,82.94 72.47,0 144.93,-27.6 200.28,-82.94 110.54,-110.54 110.54,-289.86 0,-400.4l-687.46 -687.47 687.46 -687.32c110.54,-110.69 110.54,-289.86 0,-400.4 -110.53,-110.54 -289.86,-110.54 -400.4,0l-887.6 887.6c-53.13,53.13 -82.94,125.15 -82.94,200.13 0,75.13 29.81,147.14 82.94,200.28l887.59 887.58zm0 0z"/>
    <path class="fil0" d="M6358.26 7305.16l-687.47 687.47c-110.54,110.54 -110.54,289.86 0.15,400.4 55.2,55.2 127.67,82.94 200.13,82.94 72.47,0 144.94,-27.75 200.14,-82.94l887.74 -887.74c110.53,-110.54 110.53,-289.86 0,-400.26l-887.74 -887.74c-110.54,-110.54 -289.72,-110.54 -400.27,0 -110.69,110.69 -110.69,289.86 0,400.4l687.32 687.47zm0 0z"/>
    <path class="fil0" d="M4387.95 8456.35c33.94,13.29 69.08,19.63 103.46,19.63 113.05,0 219.76,-68.18 263.59,-179.61l697.35 -1775.34c57.26,-145.52 -14.46,-309.79 -159.98,-367.05 -145.38,-57.12 -309.8,14.46 -366.91,159.99l-697.5 1775.33c-57.12,145.52 14.47,309.93 159.99,367.05zm0 0z"/>
    <path class="fil0" d="M3021.58 10136.94l1907.29 0c156.29,0 283.07,-126.78 283.07,-283.22 0,-156.3 -126.78,-283.08 -283.07,-283.08l-1907.29 0c-156.45,0 -283.07,126.78 -283.07,283.08 0,156.44 126.64,283.22 283.07,283.22zm0 0z"/>
    <path class="fil0" d="M9321.67 9570.64l-3353.19 0c-156.3,0 -283.07,126.78 -283.07,283.08 0,156.44 126.77,283.22 283.07,283.22l3353.19 0c156.45,0 283.22,-126.78 283.22,-283.22 0,-156.3 -126.77,-283.08 -283.22,-283.08zm0 0z"/>
    <path class="fil0" d="M3021.58 11331.07l812.47 0c156.3,0 283.07,-126.78 283.07,-283.23 0,-156.29 -126.77,-283.07 -283.07,-283.07l-812.47 -0.01c-156.45,0 -283.07,126.78 -283.07,283.07 0,156.45 126.64,283.23 283.07,283.23l0 0.01zm0 0z"/>
    <path class="fil0" d="M8285.9 10764.76c-156.45,0 -283.07,126.78 -283.07,283.07 0,156.45 126.64,283.23 283.07,283.23l494.72 0.01c156.45,0 283.22,-126.78 283.22,-283.23 0,-156.29 -126.77,-283.07 -283.22,-283.07l-494.72 -0.01zm0 0z"/>
    <path class="fil0" d="M7540.73 11047.84c0,-156.29 -126.77,-283.07 -283.07,-283.07l-2430.19 -0.01c-156.45,0 -283.07,126.78 -283.07,283.07 0,156.45 126.63,283.23 283.07,283.23l2430.19 0.01c156.3,0 283.07,-126.78 283.07,-283.23zm0 0z"/>
    <path class="fil0" d="M9395.32 11047.84c0,156.45 126.77,283.23 283.07,283.23l926.71 0c156.44,0 283.22,-126.78 283.22,-283.23 0,-156.29 -126.78,-283.07 -283.22,-283.07l-926.7 -0.01c-156.29,0 -283.07,126.78 -283.07,283.07l-0.01 0.01zm0 0z"/>
    <path class="fil0" d="M7853.47 7532.3l977.48 0c156.44,0 283.22,-126.77 283.22,-283.22 0,-156.3 -126.78,-283.07 -283.22,-283.07l-977.48 0c-156.45,0 -283.23,126.77 -283.23,283.07 0,156.45 126.78,283.22 283.23,283.22zm0 0z"/>
    <path class="fil0" d="M9925.76 7532.3l5964.17 0c156.45,0 283.07,-126.77 283.07,-283.22 0,-156.3 -126.63,-283.07 -283.07,-283.07l-5964.17 0c-156.45,0 -283.22,126.77 -283.22,283.07 0,156.45 126.77,283.22 283.22,283.22zm0 0z"/>
    <path class="fil0" d="M14984.04 8211.65l-2416.02 0c-156.3,0 -283.07,126.77 -283.07,283.22 0,156.29 126.77,283.07 283.07,283.07l2416.02 0.01c156.29,0 283.07,-126.78 283.07,-283.07 0,-156.45 -126.78,-283.22 -283.07,-283.22l0 -0.01zm0 0z"/>
    <path class="fil0" d="M11662.12 8211.65l-830.47 0c-156.45,0 -283.07,126.77 -283.07,283.22 0,156.29 126.63,283.07 283.07,283.07l830.47 0.01c156.45,0 283.08,-126.78 283.08,-283.07 0,-156.45 -126.64,-283.22 -283.08,-283.22l0 -0.01zm0 0z"/>
    <path class="fil0" d="M7853.47 8777.95l2034.51 0c156.29,0 283.07,-126.78 283.07,-283.07 0,-156.45 -126.78,-283.22 -283.07,-283.22l-2034.51 -0.01c-156.45,0 -283.23,126.77 -283.23,283.22 0,156.29 126.78,283.07 283.23,283.07l0 0.01zm0 0z"/>
    <path class="fil0" d="M7261.2 11948.87l-1907.13 0c-156.45,0 -283.22,126.77 -283.22,283.07 0,156.3 126.77,283.07 283.22,283.07l1907.13 0c156.3,0 283.07,-126.77 283.07,-283.07 0,-156.3 -126.77,-283.07 -283.07,-283.07zm0 0z"/>
    <path class="fil0" d="M4486.84 11948.87l-1465.26 0c-156.45,0 -283.07,126.77 -283.07,283.07 0,156.3 126.64,283.07 283.07,283.07l1465.26 0c156.44,0 283.07,-126.77 283.07,-283.07 0,-156.3 -126.64,-283.07 -283.07,-283.07zm0 0z"/>
    <path class="fil0" d="M10718.44 11948.87l-2491.42 0c-156.45,0 -283.07,126.77 -283.07,283.07 0,156.3 126.63,283.07 283.07,283.07l2491.42 0c156.3,0 283.08,-126.77 283.08,-283.07 0,-156.3 -126.78,-283.07 -283.08,-283.07zm0 0z"/>
    <path class="fil0" d="M14087.73 10494.55l-1362.38 0c-156.3,0 -283.08,126.77 -283.08,283.06 0,156.44 126.78,283.22 283.08,283.22l1362.38 0c156.45,0 283.08,-126.78 283.08,-283.22 0,-156.29 -126.64,-283.06 -283.08,-283.06zm0 0z"/>
    <path class="fil0" d="M16451.8 11060.83l1923.22 0c156.45,0 283.23,-126.78 283.23,-283.22 0,-156.29 -126.78,-283.06 -283.23,-283.06l-1923.22 0c-156.44,0 -283.07,126.77 -283.07,283.06 0,156.44 126.78,283.22 283.07,283.22zm0 0z"/>
    <path class="fil0" d="M15490.12 10494.55l-440.7 0c-156.45,0 -283.22,126.77 -283.22,283.06 0,156.44 126.77,283.22 283.22,283.22l440.7 0c156.44,0 283.07,-126.78 283.07,-283.22 0,-156.29 -126.64,-283.06 -283.07,-283.06zm0 0z"/>
    <path class="fil0" d="M12725.35 14146.01l1362.38 0c156.45,0 283.08,-126.64 283.08,-283.07 0,-156.3 -126.64,-283.08 -283.08,-283.08l-1362.38 0c-156.3,0 -283.08,126.78 -283.08,283.08 0,156.44 126.78,283.07 283.08,283.07zm0 0z"/>
    <path class="fil0" d="M16451.8 14146.01l1923.22 0c156.45,0 283.23,-126.64 283.23,-283.07 0,-156.3 -126.78,-283.08 -283.23,-283.08l-1923.22 0c-156.44,0 -283.07,126.78 -283.07,283.08 0,156.44 126.78,283.07 283.07,283.07zm0 0z"/>
    <path class="fil0" d="M15049.42 14146.01l440.7 0c156.44,0 283.22,-126.64 283.22,-283.07 0,-156.3 -126.78,-283.08 -283.22,-283.08l-440.7 0c-156.45,0 -283.07,126.78 -283.07,283.08 0,156.44 126.63,283.07 283.07,283.07zm0 0z"/>
    <path class="fil0" d="M14087.73 16665.19l-1362.38 0c-156.3,0 -283.08,126.78 -283.08,283.07 0,156.3 126.78,283.07 283.08,283.07l1362.38 0.02c156.45,0 283.08,-126.78 283.08,-283.08 0,-156.29 -126.64,-283.07 -283.08,-283.07l0 -0.01zm0 0z"/>
    <path class="fil0" d="M18375.02 16665.19l-1923.22 0c-156.44,0 -283.07,126.78 -283.07,283.07 0,156.3 126.64,283.07 283.07,283.07l1923.22 0.02c156.45,0 283.23,-126.78 283.23,-283.08 0,-156.29 -126.78,-283.07 -283.23,-283.07l0 -0.01zm0 0z"/>
    <path class="fil0" d="M15490.12 16665.19l-440.7 0c-156.45,0 -283.22,126.78 -283.22,283.07 0,156.3 126.77,283.07 283.22,283.07l440.7 0.02c156.44,0 283.07,-126.78 283.07,-283.08 0,-156.29 -126.64,-283.07 -283.07,-283.07l0 -0.01zm0 0z"/>
    <path class="fil0" d="M19419.8 1344.81l-16852.64 0c-687.03,0 -1246.09,558.92 -1246.09,1246.09l0 13698.68c0,687.02 559.06,1245.93 1246.09,1245.93l1065.44 0.01c156.3,0 283.07,-126.63 283.07,-283.07 0,-156.29 -126.77,-283.07 -283.07,-283.07l-1065.44 -0.01c-374.88,0 -679.8,-304.92 -679.8,-679.79l0 -1074 10314.49 0 0 487.93 -224.48 0c-307.13,0 -556.85,249.72 -556.85,556.85l0 709.01 -6066.6 0c-156.3,0 -283.07,126.78 -283.07,283.07 0,156.45 126.77,283.07 283.07,283.07l2722.12 0.01 0 1015.41 -854.84 0c-570.29,0 -1034.15,464.02 -1034.15,1034.15l0 611.61c0,260.19 211.64,471.84 471.84,471.84l8647.48 -0.01c260.2,0 471.84,-211.65 471.84,-471.84l0 -611.61c0,-570.13 -463.86,-1034.15 -1034.15,-1034.15l-854.84 0.01 0 -357.9 5233.92 0c306.98,0 556.7,-249.72 556.7,-556.85l0 -133.27c551.83,-128.1 964.34,-623.26 964.34,-1213.32l21.4 -13698.83c0.15,-687.03 -558.77,-1245.94 -1245.79,-1245.94l0.01 -0.01zm-7432.99 13196.74l0 -1357.08 7126.89 0 0 1357.08 -7126.89 0zm781.19 -1923.37l0 -595.67 5564.37 0 0 595.67 -5564.37 0zm5564.37 2489.51l0 595.82 -5564.37 0 0 -595.82 5564.37 0zm-9690.19 2427.83l2778.34 0 0 100.81c0,306.98 249.72,556.7 556.85,556.7l1345.71 0 0 357.9 -4680.9 0 0 -1015.41zm6102.02 1581.7c257.98,0 467.86,209.88 467.86,467.86l0 517.3 -8458.86 0 0 -517.3c0,-257.98 210.02,-467.86 468,-467.86l7523 0zm4369.5 -1490.49l-7126.89 0 0 -1356.93 7126.89 0.01 0 1356.92zm964.35 -1337.14c0,274.22 -163.53,510.5 -398.05,617.8l0 -647.17c0,-306.98 -249.87,-556.7 -556.85,-556.7l-224.49 -0.01 0 -487.93 1179.39 0 0 1074.01zm0 -1640.15l-407.35 0c5.75,-32.03 9.29,-1474.41 9.29,-1474.41 0,-307.13 -249.87,-556.85 -556.85,-556.85l-224.48 0 0 -595.67 224.48 0c306.98,0 556.85,-249.87 556.85,-556.85l0 -1375.95c0,-306.98 -249.87,-556.85 -556.85,-556.85l-1599.11 0c-156.45,0 -283.07,126.78 -283.07,283.22 0,156.3 126.63,283.07 283.07,283.07l1589.67 0 0 1357.07 -7126.89 0 0 -1357.07 3775.61 0c156.44,0 283.07,-126.77 283.07,-283.07 0,-156.44 -126.64,-283.22 -283.07,-283.22l-3785.05 0c-307.13,0 -556.85,249.87 -556.85,556.85l0 1375.95c0,306.98 249.72,556.85 556.85,556.85l224.48 0 0 595.67 -224.48 0c-307.13,0 -556.85,249.87 -556.85,556.85 0,0 3.54,1442.38 9.29,1474.41l-9542.45 0 0 -9453.46 18190.69 0 0 9453.46zm0 -10019.76l-18169.88 0 0 -2038.93c0,-374.73 304.92,-679.65 679.79,-679.65l16810.29 0.01c374.88,0 679.8,304.92 679.8,679.8l0 2038.77zm0 0z"/>
    <path class="fil0" d="M3409 2431.51c-458.11,0 -830.78,372.66 -830.78,830.78 0,458.11 372.67,830.92 830.78,830.92 458.11,0 830.92,-372.81 830.92,-830.92 0,-458.12 -372.81,-830.78 -830.92,-830.78zm0 1095.39c-145.81,0 -264.63,-118.66 -264.63,-264.62 0,-145.81 118.82,-264.63 264.63,-264.63 145.96,0 264.62,118.82 264.62,264.63 0,145.96 -118.66,264.62 -264.62,264.62zm0 0z"/>
    <path class="fil0" d="M5524.38 2431.51c-458.12,0 -830.92,372.66 -830.92,830.78 0,458.11 372.8,830.92 830.92,830.92 458.11,0 830.78,-372.81 830.78,-830.92 0,-458.12 -372.81,-830.78 -830.78,-830.78zm0 1095.39c-145.96,0 -264.63,-118.66 -264.63,-264.62 0,-145.81 118.67,-264.63 264.63,-264.63 145.81,0 264.62,118.82 264.62,264.63 0,145.96 -118.81,264.62 -264.62,264.62zm0 0z"/>
    <path class="fil0" d="M7639.62 2431.51c-458.12,0 -830.78,372.66 -830.78,830.78 0,458.11 372.66,830.92 830.78,830.92 458.11,0 830.92,-372.81 830.92,-830.92 0,-458.12 -372.81,-830.78 -830.92,-830.78zm0 1095.39c-145.81,0 -264.63,-118.66 -264.63,-264.62 0,-145.81 118.82,-264.63 264.63,-264.63 145.96,0 264.62,118.82 264.62,264.63 0,145.96 -118.66,264.62 -264.62,264.62zm0 0z"/>
   </g>
  </g>
 </g>
</svg>
