<?xml version="1.0" encoding="UTF-8" standalone="no"?>
<svg
   xmlns:dc="http://purl.org/dc/elements/1.1/"
   xmlns:cc="http://creativecommons.org/ns#"
   xmlns:rdf="http://www.w3.org/1999/02/22-rdf-syntax-ns#"
   xmlns:svg="http://www.w3.org/2000/svg"
   xmlns="http://www.w3.org/2000/svg"
   id="svg8"
   version="1.1"
   viewBox="0 0 75.530273 8.1442062"
   height="8.144206mm"
   width="75.530273mm">
  <defs
     id="defs2">
    <clipPath
       clipPathUnits="userSpaceOnUse"
       id="clipPath20">
      <path
         d="M 2880,0 H 0 V 2880 H 2880 V 0 M 857.059,468.371 835.051,466.18 v -30.149 l 314.979,31.301 1128.35,-4.004 32.55,119.363 136.29,13.539 86.88,547.66 -68.87,4.58 33.15,121.53 -929.08,-62.03 -311.75,20.71 v -30.07 l 86,-5.71 -1041.831,-69.55 96.66,-653.35 458.68,-1.629 m 0,1146.659 -22.008,-2.18 v -30.15 l 314.979,31.3 1128.35,-4 32.55,119.35 136.29,13.55 86.88,547.66 -68.87,4.57 33.15,121.53 -929.08,-62.02 -311.75,20.7 v -30.06 l 86,-5.71 -1041.831,-69.55 96.66,-653.36 458.68,-1.63 M 2319.38,613.68 l 137.8,505.26 42.15,-2.8 -78.12,-492.339 -101.83,-10.121 m 0,1146.67 137.8,505.25 42.15,-2.8 -78.12,-492.34 -101.83,-10.11"
         id="path18" />
    </clipPath>
    <linearGradient
       x1="0"
       y1="0"
       x2="1"
       y2="0"
       gradientUnits="userSpaceOnUse"
       gradientTransform="matrix(-3600.85,-3600.85,-3600.85,3600.85,3649.2,3649.18)"
       spreadMethod="pad"
       id="linearGradient26">
      <stop
         style="stop-opacity:1;stop-color:#ffffff"
         offset="0"
         id="stop22" />
      <stop
         style="stop-opacity:1;stop-color:#f6f8f9"
         offset="1"
         id="stop24" />
    </linearGradient>
    <clipPath
       clipPathUnits="userSpaceOnUse"
       id="clipPath38">
      <path
         d="m 2278.38,1610 -1128.35,4 1160.9,115.35 -32.55,-119.35 m -1421.321,5.03 -458.68,1.63 -96.66,653.36 1041.831,69.55 1113.63,-73.97 -137.8,-505.25 -1462.321,-145.32 m 1608.171,680.1 -895.93,59.51 929.08,62.02 -33.15,-121.53"
         id="path36" />
    </clipPath>
    <linearGradient
       x1="0"
       y1="0"
       x2="1"
       y2="0"
       gradientUnits="userSpaceOnUse"
       gradientTransform="matrix(-3600.85,-3600.85,-3600.85,3600.85,3649.2,3649.18)"
       spreadMethod="pad"
       id="linearGradient44">
      <stop
         style="stop-opacity:1;stop-color:#f9da08"
         offset="0"
         id="stop40" />
      <stop
         style="stop-opacity:1;stop-color:#f9d908"
         offset="1"
         id="stop42" />
    </linearGradient>
    <clipPath
       clipPathUnits="userSpaceOnUse"
       id="clipPath104">
      <path
         d="m 2278.38,463.328 -1128.35,4.004 1160.9,115.359 -32.55,-119.363 M 857.059,468.371 398.379,470 301.719,1123.35 1343.55,1192.9 2457.18,1118.94 2319.38,613.68 857.059,468.371 m 1608.171,680.099 -895.93,59.5 929.08,62.03 -33.15,-121.53"
         id="path102" />
    </clipPath>
    <linearGradient
       x1="0"
       y1="0"
       x2="1"
       y2="0"
       gradientUnits="userSpaceOnUse"
       gradientTransform="matrix(-3600.85,-3600.85,-3600.85,3600.85,3649.2,3649.18)"
       spreadMethod="pad"
       id="linearGradient110">
      <stop
         style="stop-opacity:1;stop-color:#5cc7a0"
         offset="0"
         id="stop106" />
      <stop
         style="stop-opacity:1;stop-color:#5cc79f"
         offset="1"
         id="stop108" />
    </linearGradient>
    <clipPath
       id="clipPath1050"
       clipPathUnits="userSpaceOnUse">
      <path
         style="clip-rule:evenodd"
         id="path1048"
         d="m 118.2634,472.4889 628.06,5.1804 V 315.2279 l -628.06,-5.1803 z" />
    </clipPath>
    <clipPath
       id="clipPath1060"
       clipPathUnits="userSpaceOnUse">
      <path
         style="clip-rule:evenodd"
         id="path1058"
         d="m 118.2634,310.0476 h 628.06 v 167.6217 h -628.06 z" />
    </clipPath>
    <clipPath
       id="clipPath1398"
       clipPathUnits="userSpaceOnUse">
      <path
         style="clip-rule:evenodd"
         id="path1396"
         d="m 118.2634,472.4889 628.06,5.1804 V 315.2279 l -628.06,-5.1803 z" />
    </clipPath>
    <clipPath
       id="clipPath1408"
       clipPathUnits="userSpaceOnUse">
      <path
         style="clip-rule:evenodd"
         id="path1406"
         d="m 118.2634,310.0476 h 628.06 v 167.6217 h -628.06 z" />
    </clipPath>
    <clipPath
       clipPathUnits="userSpaceOnUse"
       id="clipPath20-4">
      <path
         d="M 2880,0 H 0 V 2880 H 2880 V 0 M 857.059,468.371 835.051,466.18 v -30.149 l 314.979,31.301 1128.35,-4.004 32.55,119.363 136.29,13.539 86.88,547.66 -68.87,4.58 33.15,121.53 -929.08,-62.03 -311.75,20.71 v -30.07 l 86,-5.71 -1041.831,-69.55 96.66,-653.35 458.68,-1.629 m 0,1146.659 -22.008,-2.18 v -30.15 l 314.979,31.3 1128.35,-4 32.55,119.35 136.29,13.55 86.88,547.66 -68.87,4.57 33.15,121.53 -929.08,-62.02 -311.75,20.7 v -30.06 l 86,-5.71 -1041.831,-69.55 96.66,-653.36 458.68,-1.63 M 2319.38,613.68 l 137.8,505.26 42.15,-2.8 -78.12,-492.339 -101.83,-10.121 m 0,1146.67 137.8,505.25 42.15,-2.8 -78.12,-492.34 -101.83,-10.11"
         id="path18-3" />
    </clipPath>
    <clipPath
       clipPathUnits="userSpaceOnUse"
       id="clipPath38-8">
      <path
         d="m 2278.38,1610 -1128.35,4 1160.9,115.35 -32.55,-119.35 m -1421.321,5.03 -458.68,1.63 -96.66,653.36 1041.831,69.55 1113.63,-73.97 -137.8,-505.25 -1462.321,-145.32 m 1608.171,680.1 -895.93,59.51 929.08,62.02 -33.15,-121.53"
         id="path36-7" />
    </clipPath>
    <clipPath
       clipPathUnits="userSpaceOnUse"
       id="clipPath104-5">
      <path
         d="m 2278.38,463.328 -1128.35,4.004 1160.9,115.359 -32.55,-119.363 M 857.059,468.371 398.379,470 301.719,1123.35 1343.55,1192.9 2457.18,1118.94 2319.38,613.68 857.059,468.371 m 1608.171,680.099 -895.93,59.5 929.08,62.03 -33.15,-121.53"
         id="path102-0" />
    </clipPath>
    <clipPath
       id="clipPath1050-5"
       clipPathUnits="userSpaceOnUse">
      <path
         style="clip-rule:evenodd"
         id="path1048-7"
         d="m 118.2634,472.4889 628.06,5.1804 V 315.2279 l -628.06,-5.1803 z" />
    </clipPath>
    <clipPath
       id="clipPath1060-0"
       clipPathUnits="userSpaceOnUse">
      <path
         style="clip-rule:evenodd"
         id="path1058-7"
         d="m 118.2634,310.0476 h 628.06 v 167.6217 h -628.06 z" />
    </clipPath>
    <clipPath
       id="clipPath1398-8"
       clipPathUnits="userSpaceOnUse">
      <path
         style="clip-rule:evenodd"
         id="path1396-9"
         d="m 118.2634,472.4889 628.06,5.1804 V 315.2279 l -628.06,-5.1803 z" />
    </clipPath>
    <clipPath
       id="clipPath1408-9"
       clipPathUnits="userSpaceOnUse">
      <path
         style="clip-rule:evenodd"
         id="path1406-3"
         d="m 118.2634,310.0476 h 628.06 v 167.6217 h -628.06 z" />
    </clipPath>
  </defs>
  <metadata
     id="metadata5">
    <rdf:RDF>
      <cc:Work
         rdf:about="">
        <dc:format>image/svg+xml</dc:format>
        <dc:type
           rdf:resource="http://purl.org/dc/dcmitype/StillImage" />
        <dc:title></dc:title>
      </cc:Work>
    </rdf:RDF>
  </metadata>
  <g
     transform="translate(36.262826,-168.18464)"
     id="layer1">
    <g
       id="flowRoot244"
       style="font-style:normal;font-variant:normal;font-weight:500;font-stretch:normal;font-size:40px;line-height:1.25;font-family:'HK Nova';-inkscape-font-specification:'HK Nova, Medium';font-variant-ligatures:normal;font-variant-caps:normal;font-variant-numeric:normal;font-feature-settings:normal;text-align:start;letter-spacing:0px;word-spacing:0px;writing-mode:lr-tb;text-anchor:start;fill:#000000;fill-opacity:1;stroke:none"
       transform="matrix(0.26458333,0,0,0.26458333,-21.712293,146.42318)"
       aria-label="kontakt z nami">
      <path
         style="fill:#005585;fill-opacity:1"
         id="path3955"
         d="m -35.638672,112.63867 -10.410156,-11.15234 9.082031,-9.531252 h -5.488281 l -8.183594,8.925782 V 82.638672 h -4.355469 v 29.999998 h 4.355469 v -10.27344 l 9.335938,10.27344 z" />
      <path
         style="fill:#005585;fill-opacity:1"
         id="path3957"
         d="m -23.744141,113.0293 c 6.210938,0 11.054688,-4.64844 11.054688,-10.74219 0,-6.074219 -4.84375,-10.722657 -11.054688,-10.722657 -6.210937,0 -11.054687,4.648438 -11.054687,10.722657 0,6.09375 4.84375,10.74219 11.054687,10.74219 z m -0.01953,-3.90625 c -3.789062,0 -6.816406,-2.92969 -6.816406,-6.83594 0,-3.867188 3.027344,-6.816407 6.816406,-6.816407 3.789063,0 6.835938,2.96875 6.835938,6.816407 0,3.86719 -3.046875,6.83594 -6.835938,6.83594 z" />
      <path
         style="fill:#005585;fill-opacity:1"
         id="path3959"
         d="m 2.6816406,91.564453 c -2.73437497,0 -4.8828125,1.230469 -6.2109375,3.339844 v -2.949219 h -4.3554687 v 20.683592 h 4.3554687 v -11.8164 c 0.019531,-3.671879 2.1484375,-5.488286 4.9414063,-5.488286 2.6757812,0 4.6289062,1.347657 4.6289062,5.351566 v 11.95312 h 4.3554684 v -12.57812 c 0,-5.644534 -3.2031246,-8.496097 -7.7148434,-8.496097 z" />
      <path
         style="fill:#005585;fill-opacity:1"
         id="path3961"
         d="m 26.646484,95.294922 v -3.339844 h -5.097656 v -5.722656 h -4.355469 v 5.722656 h -3.378906 v 3.339844 h 3.378906 v 11.289058 c 0,3.92579 2.5,6.05469 6.289063,6.05469 h 3.125 v -3.49609 h -2.246094 c -1.660156,0 -2.8125,-1.05469 -2.8125,-3.06641 V 95.294922 Z" />
      <path
         style="fill:#005585;fill-opacity:1"
         id="path3963"
         d="m 39.595703,113.0293 c 3.28125,0 5.820313,-1.32813 7.460938,-3.39844 v 3.00781 h 4.355468 V 91.955078 h -4.335937 v 3.007813 c -1.660156,-2.089844 -4.199219,-3.398438 -7.480469,-3.398438 -5.507812,0 -10.214844,4.628906 -10.214844,10.703127 0,6.09375 4.707032,10.76172 10.214844,10.76172 z m 0.957031,-3.86719 c -3.789062,0 -6.835937,-2.94922 -6.835937,-6.89453 0,-3.925783 3.046875,-6.855471 6.835937,-6.855471 3.808594,0 6.796875,2.929688 6.796875,6.855471 0,3.94531 -2.988281,6.89453 -6.796875,6.89453 z" />
      <path
         style="fill:#005585;fill-opacity:1"
         id="path3965"
         d="m 77.330078,112.63867 -10.410156,-11.15234 9.082031,-9.531252 h -5.488281 l -8.183594,8.925782 V 82.638672 h -4.355469 v 29.999998 h 4.355469 v -10.27344 l 9.335938,10.27344 z" />
      <path
         style="fill:#005585;fill-opacity:1"
         id="path3967"
         d="m 91.021484,95.294922 v -3.339844 h -5.097656 v -5.722656 h -4.355469 v 5.722656 h -3.378906 v 3.339844 h 3.378906 v 11.289058 c 0,3.92579 2.5,6.05469 6.289063,6.05469 h 3.125 v -3.49609 h -2.246094 c -1.660156,0 -2.8125,-1.05469 -2.8125,-3.06641 V 95.294922 Z" />
      <path
         style="fill:#4da6dd;fill-opacity:0.92156863"
         id="path3969"
         d="m 123.22852,91.955078 h -17.53907 v 3.632813 h 10.41016 L 104.9082,112.63867 h 18.20313 v -3.63281 h -11.09375 z" />
      <path
         style="fill:#4da6dd;fill-opacity:0.92156863"
         id="path3971"
         d="m 149.71289,91.564453 c -2.73437,0 -4.88281,1.230469 -6.21094,3.339844 v -2.949219 h -4.35547 v 20.683592 h 4.35547 v -11.8164 c 0.0195,-3.671879 2.14844,-5.488286 4.94141,-5.488286 2.67578,0 4.62891,1.347657 4.62891,5.351566 v 11.95312 h 4.35546 v -12.57812 c 0,-5.644534 -3.20312,-8.496097 -7.71484,-8.496097 z" />
      <path
         style="fill:#4da6dd;fill-opacity:0.92156863"
         id="path3973"
         d="m 171.93945,113.0293 c 3.28125,0 5.82032,-1.32813 7.46094,-3.39844 v 3.00781 h 4.35547 V 91.955078 h -4.33594 v 3.007813 c -1.66015,-2.089844 -4.19922,-3.398438 -7.48047,-3.398438 -5.50781,0 -10.21484,4.628906 -10.21484,10.703127 0,6.09375 4.70703,10.76172 10.21484,10.76172 z m 0.95703,-3.86719 c -3.78906,0 -6.83593,-2.94922 -6.83593,-6.89453 0,-3.925783 3.04687,-6.855471 6.83593,-6.855471 3.8086,0 6.79688,2.929688 6.79688,6.855471 0,3.94531 -2.98828,6.89453 -6.79688,6.89453 z" />
      <path
         style="fill:#4da6dd;fill-opacity:0.92156863"
         id="path3975"
         d="m 212.36914,91.564453 c -2.63672,0 -4.76562,1.230469 -6.09375,3.28125 -1.07422,-2.285156 -3.20312,-3.28125 -5.74219,-3.28125 -2.61718,0 -4.6289,1.25 -5.85937,3.28125 v -2.890625 h -4.35547 v 20.683592 h 4.35547 v -12.61719 c 0,-3.007808 1.62109,-4.628902 4.10156,-4.628902 2.16797,0 3.90625,1.25 3.90625,4.472656 v 12.773436 h 4.35547 v -12.61719 c 0,-3.007808 1.66016,-4.628902 4.12109,-4.628902 2.14844,0 3.90625,1.25 3.90625,4.472656 v 12.773436 h 4.33594 V 98.498047 c 0,-4.160156 -2.85156,-6.933594 -7.03125,-6.933594 z" />
      <path
         style="fill:#4da6dd;fill-opacity:0.92156863"
         id="path3977"
         d="m 227.75977,87.658203 c 1.46484,0 2.71484,-1.210937 2.71484,-2.695312 0,-1.542969 -1.25,-2.714844 -2.71484,-2.714844 -1.48438,0 -2.73438,1.171875 -2.73438,2.714844 0,1.484375 1.25,2.695312 2.73438,2.695312 z m -2.20704,24.980467 h 4.33594 V 91.955078 h -4.33594 z" />
    </g>
  </g>
</svg>
