<?xml version="1.0" encoding="UTF-8"?>
<!DOCTYPE svg PUBLIC "-//W3C//DTD SVG 1.1//EN" "http://www.w3.org/Graphics/SVG/1.1/DTD/svg11.dtd">
<!-- Creator: CorelDRAW 2019 (64-Bit) -->
<svg xmlns="http://www.w3.org/2000/svg" xml:space="preserve" width="220mm" height="220mm" version="1.1" style="shape-rendering:geometricPrecision; text-rendering:geometricPrecision; image-rendering:optimizeQuality; fill-rule:evenodd; clip-rule:evenodd"
viewBox="0 0 22000 22000"
 xmlns:xlink="http://www.w3.org/1999/xlink"
 xmlns:xodm="http://www.corel.com/coreldraw/odm/2003">
 <defs>
  <style type="text/css">
   <![CDATA[
    .fil0 {fill:#004A6E;fill-rule:nonzero}
   ]]>
  </style>
 </defs>
 <g id="Layer_x0020_1">
  <metadata id="CorelCorpID_0Corel-Layer"/>
  <g id="_1136214080">
   <g>
    <g>
     <path class="fil0" d="M10028.36 18869.19c-51.38,-50 -117.09,-82.75 -187.97,-93.6l0 -0.34 -769.77 -118.08 -347.36 -741.89c-80.47,-172.26 -285.35,-246.66 -457.61,-166.19 -73.16,34.17 -131.98,92.99 -166.19,166.19l-347.36 741.89 -769.77 118.08c-187.92,28.83 -316.94,204.53 -288.1,392.46 10.89,70.88 43.59,136.59 93.6,187.97l567.34 582.84 -134.61 826.23c-30.81,187.62 96.31,364.7 283.93,395.51 76.38,12.52 154.75,-1.03 222.48,-38.51l684.39 -378.35 684.39 378.69c166.36,92.05 375.85,31.84 467.9,-134.52 37.48,-67.73 51.04,-146.1 38.51,-222.48l-134.61 -826.23 567.34 -582.84c132.64,-136.24 129.71,-354.2 -6.53,-486.83zm-1174.96 713.36c-76.13,78.1 -110.77,187.71 -93.3,295.38l48.54 298.48 -230.66 -128.07c-103.67,-57.36 -229.58,-57.36 -333.25,0l-230.66 128.07 48.54 -298.48c17.47,-107.67 -17.17,-217.27 -93.3,-295.38l-221.7 -227.9 290.56 -44.75c113.56,-17.47 210.95,-90.41 259.57,-194.51l113.61 -240.98 113.61 240.98c48.63,104.1 146.01,177.04 259.57,194.51l290.56 44.75 -221.69 227.9z"/>
    </g>
   </g>
   <g>
    <g>
     <path class="fil0" d="M14503.77 17328.96c-51.38,-50 -117.09,-82.75 -187.97,-93.6l0 -0.34 -1245.54 -190.72 -560.46 -1193.56c-80.9,-172.09 -285.95,-245.98 -458,-165.12 -72.6,34.13 -130.99,92.52 -165.12,165.12l-560.46 1193.56 -1245.54 190.72c-187.92,28.79 -316.94,204.53 -288.1,392.46 10.89,70.88 43.59,136.59 93.6,187.97l911.61 934.33 -215.85 1323.34c-30.6,187.67 96.69,364.57 284.36,395.17 76.25,12.44 154.44,-1.12 222.05,-38.51l1109.9 -615.2 1109.9 613.48c165.81,93.08 375.63,34.13 468.71,-131.68 38.34,-68.34 52.24,-147.69 39.42,-225.02l-217.57 -1321.62 911.61 -933.98c132.62,-136.21 129.69,-354.17 -6.55,-486.8zm-1519.23 1062.78c-76.25,78.19 -110.85,187.92 -93.3,295.72l129.79 795.25 -656.16 -362.85c-103.67,-57.36 -229.58,-57.36 -333.25,0l-656.16 362.85 129.79 -795.25c17.56,-107.8 -17.04,-217.53 -93.3,-295.72l-564.93 -579.05 764.95 -117.05c113.56,-16.95 211.03,-89.77 259.57,-193.82l326.71 -695.75 326.7 695.75c48.54,104.05 146.01,176.86 259.57,193.82l764.95 117.05 -564.93 579.05z"/>
    </g>
   </g>
   <g>
    <g>
     <path class="fil0" d="M21149.07 2569.45l-1578.79 0 1032.79 -1032.79 546 0c190.12,0 344.26,-154.14 344.26,-344.26 0,-190.12 -154.14,-344.26 -344.26,-344.26l-20311.48 0c-190.12,0 -344.26,154.14 -344.26,344.26 0,190.12 154.14,344.26 344.26,344.26l1578.79 0 -1032.79 1032.79 -546 0c-190.12,0 -344.26,154.14 -344.26,344.26 0,190.12 154.14,344.26 344.26,344.26l1046.9 0 -14.11 1314.05 -626.56 656.85c-571.3,599.27 -549.4,1547.98 48.89,2120.31l1404.59 1342.62c64.03,61.36 149.24,95.62 237.89,95.7l7.91 0.01c41.18,-1.94 81.72,-11.02 119.8,-26.85l3837.49 5513.7 -1914.1 5742.3c-60.07,180.61 37.65,375.76 218.26,435.84 180.61,60.07 375.76,-37.65 435.84,-218.26l1751.26 -5254.48 1082.02 1555.38c108.57,156.08 323.13,194.64 479.21,86.07 156.08,-108.57 194.64,-323.13 86.07,-479.21l-1377.05 -1977.1 2107.92 -6324.1c10.59,-34.77 15.45,-71.05 14.46,-107.41l2072.8 -0.01c-1.12,39.76 4.86,79.35 17.56,117.05l1497.2 4146.98 -1455.54 2079.69c-113.65,152.42 -82.19,368.15 70.23,481.75 152.42,113.6 368.15,82.19 481.75,-70.23 4.13,-5.55 8.09,-11.23 11.92,-17l1177.72 -1682.41 2692.13 7454.66c49.27,136.33 178.67,227.17 323.61,227.21 39.93,0.04 79.57,-6.93 117.05,-20.66 178.67,-64.72 271.11,-261.94 206.56,-440.66l-2857.38 -7910.46 3054.98 -4363.87 2190.2 748.77 -2358.2 9494.07c-45.87,184.52 66.49,371.29 251.01,417.16 0.09,0.04 0.22,0.04 0.3,0.09 27.5,6.58 55.68,9.94 84,9.98 158.1,-0.09 295.85,-107.84 333.93,-261.3l2345.11 -9442.77c23.5,6.5 47.64,10.54 71.95,12.05 147.22,-0.04 278.12,-93.73 325.67,-233.07l628.97 -1838.02c267.75,-783.63 -150.18,-1635.93 -933.64,-1904.11l-17.89 -6.52 0 -1473.79 1032.79 0c190.12,0 344.26,-154.14 344.26,-344.26 0,-190.12 -154.14,-344.26 -344.26,-344.26zm-1519.58 -1032.79l-890.26 890.26 -890.26 -890.26 1780.52 0zm-1721.31 1032.79l-1780.52 0 890.26 -890.27 890.26 890.27zm-1721.31 -1032.79l-890.26 890.26 -890.26 -890.26 1780.52 0zm-1721.31 1032.79l-1780.53 0 890.27 -890.27 890.26 890.27zm-1721.31 -1032.79l-890.26 890.26 -890.26 -890.26 1780.52 0zm-1721.31 1032.79l-1780.53 0 890.26 -890.27 890.27 890.27zm-1721.31 -1032.79l-890.27 890.26 -890.26 -890.26 1780.53 0zm-1721.32 1032.79l-1780.52 0 890.26 -890.27 890.26 890.27zm-1721.31 -1032.79l-890.26 890.26 -890.26 -890.26 1780.52 0zm-2611.57 142.52l890.26 890.26 -1780.52 0.01 890.26 -890.27zm-323.26 6276.25l-1157.07 -1104.05c-323.86,-309.66 -335.74,-823.13 -26.51,-1147.43l783.89 -817.96c147.9,-155.82 351.88,-246.15 566.66,-250.97l18.58 0c208.8,-0.47 409.59,80.13 560.11,224.8l1155.69 1103.36 -1901.35 1992.25zm4247.85 5505.44l-3604.77 -5182.18 1429.03 -1496.51 3574.48 2274.54c19.24,10.8 39.42,19.92 60.25,27.2l-1458.99 4376.95zm1910.31 -5730.93l-229.97 688.52 -3371.02 -2145.1 80.56 -84.34c131.29,-137.53 126.22,-355.45 -11.32,-486.74 0,0 -0.04,-0.04 -0.04,-0.04l-1404.59 -1342.62c-285.95,-277.43 -672.47,-426.58 -1070.66,-413.11 -174.97,5.29 -347.66,41.31 -510.2,106.38l8.26 -794.9 7903.59 -0.02 0 688.52 -221.36 0.01c-827.95,1.12 -1498.83,672.04 -1499.95,1499.95l0 1942.67c0.55,182.59 144.33,332.56 326.7,340.82zm3115.92 -685.08l-2754.1 0 0 -1598.41c0.77,-447.84 363.58,-810.65 811.43,-811.43l1131.24 0c447.84,0.77 810.65,363.58 811.43,811.43l0 1598.41zm4960.82 -1739.22l-628.62 1838.36c-29.61,86.41 -23.67,181 16.52,263.02 5.16,9.98 14.11,16.52 19.97,26.16l-2712.1 3874.33 -1292.02 -3578.26c181.13,-9.51 323.31,-158.79 323.95,-340.13l0 -1942.67c-1.12,-827.95 -672.04,-1498.83 -1499.95,-1499.95l-221.36 0 0 -688.52 8262.3 -0.01 0 1239.34 -363.89 -124.62c-783.54,-266.84 -1635.29,150.36 -1904.8,932.95zm3259.13 1114.38l-516.39 1512 -2608.48 -891.29 516.39 -1510.62c144.33,-424.65 605.56,-651.95 1030.25,-507.61 0.86,0.3 1.72,0.56 2.54,0.86l1070.66 365.95c423.87,145.4 649.88,606.67 505.03,1030.71z"/>
    </g>
   </g>
   <g>
   </g>
   <g>
   </g>
   <g>
   </g>
   <g>
   </g>
   <g>
   </g>
   <g>
   </g>
   <g>
   </g>
   <g>
   </g>
   <g>
   </g>
   <g>
   </g>
   <g>
   </g>
   <g>
   </g>
   <g>
   </g>
   <g>
   </g>
   <g>
   </g>
  </g>
 </g>
</svg>
