<?xml version="1.0" encoding="UTF-8"?>
<!DOCTYPE svg PUBLIC "-//W3C//DTD SVG 1.1//EN" "http://www.w3.org/Graphics/SVG/1.1/DTD/svg11.dtd">
<!-- Creator: CorelDRAW 2019 (64-Bit) -->
<svg xmlns="http://www.w3.org/2000/svg" xml:space="preserve" width="220mm" height="220mm" version="1.1" style="shape-rendering:geometricPrecision; text-rendering:geometricPrecision; image-rendering:optimizeQuality; fill-rule:evenodd; clip-rule:evenodd"
viewBox="0 0 22000 22000"
 xmlns:xlink="http://www.w3.org/1999/xlink"
 xmlns:xodm="http://www.corel.com/coreldraw/odm/2003">
 <defs>
  <style type="text/css">
   <![CDATA[
    .fil0 {fill:#004A6E;fill-rule:nonzero}
   ]]>
  </style>
 </defs>
 <g id="Layer_x0020_1">
  <metadata id="CorelCorpID_0Corel-Layer"/>
  <g id="_1125063232">
   <path class="fil0" d="M13454.27 14698.08c-226.39,0 -410.16,183.77 -410.16,410.16 0,226.39 183.77,410.16 410.16,410.16 226.39,0 410.16,-183.77 410.16,-410.16 0,-226.39 -183.77,-410.16 -410.16,-410.16zm0 0z"/>
   <path class="fil0" d="M19442.55 506.67l-16898.44 0c-1130.81,0 -2050.78,919.97 -2050.78,2050.78l0 12550.78c0,1130.81 919.97,2050.78 2050.78,2050.78l6398.44 0 0 1886.72 -410.16 0c-547.62,0 -1062.4,213.41 -1449.97,600.81 -387.41,387.57 -600.81,902.34 -600.81,1449.97 0,226.55 183.61,410.16 410.16,410.16l8203.12 0c226.55,0 410.16,-183.61 410.16,-410.16 0,-1130.81 -919.97,-2050.78 -2050.78,-2050.78l-410.16 0 0 -1886.72 6398.44 0c1130.81,0 2050.78,-919.97 2050.78,-2050.78l0 -12550.78c0,-1130.81 -919.97,-2050.78 -2050.78,-2050.78zm-16898.44 820.31l16898.44 0c678.52,0 1230.47,551.95 1230.47,1230.47l0 10500 -1886.72 0 0 -9433.59c0,-226.55 -183.61,-410.16 -410.16,-410.16l-3281.25 0c-226.55,0 -410.16,183.61 -410.16,410.16l0 9433.59 -2053.02 0c-4.33,-424.26 -15.38,-842.42 -33,-1248.09 -71.78,-1670.43 -235.36,-2789.38 -320.43,-3281.57 846.27,-623.09 1077.3,-1777.93 559.96,-2675.15l-1421.61 -2462.22c-73.38,-126.89 -208.76,-205.08 -355.2,-205.08 -146.6,0 -281.98,78.19 -355.2,205.08l-1422.25 2462.38c-487.7,845.95 -314.83,1941.67 451.33,2588.31 -88.76,490.75 -267.88,1649.76 -345.75,3367.45 -18.42,410 -30.12,828.48 -34.61,1248.89l-2053.03 0 0 -6152.34c0,-65.05 -15.38,-124.33 -40.53,-177.04 -1.12,-2.08 -1.76,-4.33 -2.72,-6.41l-1640.63 -3281.25c-69.53,-138.91 -211.49,-226.71 -366.9,-226.71 -155.41,0 -297.36,87.8 -366.9,226.71l-1640.63 3281.25c-0.96,2.08 -1.6,4.33 -2.56,6.41 -25.63,53.19 -40.7,113.43 -40.7,177.04l0 6152.34 -1886.71 0 0 -10500c0,-678.52 551.95,-1230.47 1230.47,-1230.47zm12960.94 11730.47l0 -9023.44 2460.94 0 0 820.31 -410.16 0.01c-226.55,0 -410.16,183.61 -410.16,410.16 0,226.55 183.61,410.16 410.16,410.16l410.16 -0.01 0 1230.47 -410.16 0c-226.55,0 -410.16,183.61 -410.16,410.16 0,226.55 183.61,410.16 410.16,410.16l410.16 -0.01 0 1230.47 -410.16 0c-226.55,0 -410.16,183.61 -410.16,410.16 0,226.55 183.61,410.16 410.16,410.16l410.16 -0.01 0 1640.63 -410.16 0c-226.55,0 -410.16,183.61 -410.16,410.16 0,226.55 183.61,410.16 410.16,410.16l410.16 -0.01 0 820.31 -2460.94 0zm-4443.63 -4129.92c149,0 297.36,-17.14 442.52,-49.19 76.1,487.86 187.93,1351.11 254.1,2538.48l-1526.7 0.01c69.37,-1186.57 186.49,-2063.28 267.4,-2567.64 181.69,51.75 370.9,78.35 562.68,78.35l0 -0.01zm0 -820.31c-937.43,0 -1541.93,-1020.26 -1066.89,-1844.42l1066.89 -1846.98 1066.25 1846.82c473.28,820.79 -122.89,1844.58 -1066.25,1844.58zm-867.73 4129.92l1600.41 0c8.65,269.49 14.58,543.62 17.46,820.31l-1636.3 0c3.04,-274.93 9.29,-549.06 18.42,-820.31l0.01 0zm-4532.39 820.31l0 -5742.19 820.31 0 0 5742.19 -820.31 0zm-1640.63 0l0 -5742.19 820.32 0 0 5742.19 -820.32 0zm253.47 -6562.5l977 -1954.01 977 1954.01 -1954 0zm10340.26 14191.41l-7242.62 0c60.24,-170.95 158.62,-327.64 290.63,-459.82 232.64,-232.48 541.53,-360.49 869.98,-360.49l4921.88 0c534.81,0 990.94,342.86 1160.13,820.31zm-2390.6 -1640.63l-2460.94 0 0 -1886.72 2460.94 0 0 1886.72zm7218.75 -2707.03l-16898.44 0c-678.52,0 -1230.47,-551.95 -1230.47,-1230.47l0 -1230.47 19359.38 0 0 1230.47c0,678.52 -551.95,1230.47 -1230.47,1230.47zm0 0z"/>
   <path class="fil0" d="M11813.64 14698.08l-2460.94 0c-226.55,0 -410.16,183.61 -410.16,410.16 0,226.55 183.61,410.16 410.16,410.16l2460.94 -0.01c226.55,0 410.16,-183.61 410.16,-410.16 0,-226.55 -183.61,-410.16 -410.16,-410.16l0 0.01zm0 0z"/>
  </g>
 </g>
</svg>
