<?xml version="1.0" encoding="UTF-8"?>
<!DOCTYPE svg PUBLIC "-//W3C//DTD SVG 1.1//EN" "http://www.w3.org/Graphics/SVG/1.1/DTD/svg11.dtd">
<!-- Creator: CorelDRAW 2019 (64-Bit) -->
<svg xmlns="http://www.w3.org/2000/svg" xml:space="preserve" width="194.733mm" height="44.8732mm" version="1.1" style="shape-rendering:geometricPrecision; text-rendering:geometricPrecision; image-rendering:optimizeQuality; fill-rule:evenodd; clip-rule:evenodd"
viewBox="0 0 19473.32 4487.32"
 xmlns:xlink="http://www.w3.org/1999/xlink"
 xmlns:xodm="http://www.corel.com/coreldraw/odm/2003">
 <defs>
  <style type="text/css">
   <![CDATA[
    .fil0 {fill:#FEFEFE}
    .fil1 {fill:#FEFEFE;fill-rule:nonzero}
   ]]>
  </style>
 </defs>
 <g id="Layer_x0020_1">
  <metadata id="CorelCorpID_0Corel-Layer"/>
  <g id="_946852864">
   <g id="_980190432">
    <polygon class="fil0" points="3050.16,1713.05 1760.75,3006.43 822.44,2072.17 1763.7,1144.07 2062.32,1435.92 1584.98,1927.81 1953.17,2285.08 2700.19,1515.28 2786.81,1426.64 1950.08,608.83 1765.61,421.74 98.62,2065.39 107.91,2074.82 102.97,2079.78 1398.55,3369.75 1397.37,3370.94 1760.69,3733.15 3413.48,2075.25 "/>
    <path class="fil1" d="M5178.48 901.31l-767.05 1678.55 -772.05 -1678.55 -547.9 0 1090.82 2341.02 453.27 0 1090.84 -2341.02 -547.93 0zm2408.9 0l0 184.29c-199.25,-154.41 -453.27,-244.06 -752.13,-244.06 -657.47,0 -1185.45,547.89 -1185.45,1230.29 0,682.37 527.98,1230.28 1185.45,1230.28 298.86,0 552.88,-89.66 752.13,-244.07l0 184.29 513.03 0 0 -2341.02 -513.03 0zm-677.42 1932.58c-428.34,0 -742.13,-343.68 -742.13,-762.06 0,-418.4 313.79,-762.09 742.13,-762.09 259.01,0 503.08,89.66 677.43,338.7l0 846.75c-174.35,249.05 -418.42,338.7 -677.43,338.7zm1990.51 -363.6l-478.17 -4.98c59.77,617.64 532.96,836.8 1085.85,836.8 587.75,0 1021.1,-254.03 1021.1,-747.15 0,-453.24 -348.67,-607.66 -702.32,-672.41l-438.32 -69.73c-273.96,-44.83 -363.62,-164.38 -363.62,-288.89 0,-164.38 164.37,-273.95 463.23,-273.95 298.86,0 523,99.61 547.91,353.64l478.17 0c-49.82,-612.65 -572.82,-767.07 -1026.08,-767.07 -582.76,0 -976.27,278.94 -976.27,732.2 0,423.39 333.72,602.7 692.35,662.47l518.02 89.64c199.25,34.87 313.81,134.48 313.81,273.95 0,184.3 -209.2,283.92 -513.04,283.92 -353.65,0 -567.83,-119.55 -622.62,-408.44zm3663.05 263.98c-119.55,49.82 -259.01,89.66 -398.47,89.66 -288.9,0 -458.25,-144.44 -458.25,-483.15l0 -1006.13 866.69 0 0 -433.34 -866.69 0 0 -861.71 -518.02 0 0 861.71 -552.88 0 0 433.34 552.88 0 0 1006.13c0,602.69 318.77,961.33 916.5,961.33 159.37,0 328.73,-19.93 532.95,-94.64l-74.71 -473.2zm525.06 -1832.96l0 2341.02 513.03 0 0 -2341.02 -513.03 0zm2887.07 0l0 184.29c-199.23,-154.41 -463.23,-244.06 -762.08,-244.06 -614.18,0 -1106.63,426 -1168.82,1050.56l521.48 0c55.55,-361.12 335.2,-607.26 722.05,-607.26 259.02,0 513.03,104.59 687.37,363.6l0 243.66 513.03 0 0 -990.79 -513.03 0zm-1925.96 1287.12c79.77,554.1 563.68,994.13 1163.88,994.13 298.85,0 562.85,-89.66 762.08,-244.07l0 368.6c0,428.36 -278.93,672.42 -672.43,672.42 -383.53,0 -632.58,-194.26 -677.4,-478.17l-527.99 0c64.75,557.86 547.91,946.38 1205.39,946.38 702.31,0 1185.46,-428.36 1185.46,-1140.63l0 -1118.66 -513.03 0 0 187.22c-174.34,259.01 -428.35,358.62 -687.37,358.62 -367.55,0 -638.31,-250.85 -712.06,-545.84l-526.53 0zm4084.77 -1346.89c-645.91,0 -1150.49,436.19 -1233.23,1050.56l524.75 0c71.61,-335.57 342.85,-582.36 708.48,-582.36 365.63,0 636.87,246.79 708.48,582.36l524.76 0c-82.74,-614.37 -587.32,-1050.56 -1233.24,-1050.56zm-1240.24 1346.89c55.28,651.47 572.17,1113.68 1240.24,1113.68 668.09,0 1184.97,-462.21 1240.25,-1113.68l-520.49 0c-48.57,374.34 -330.75,645.46 -719.76,645.46 -389.01,0 -671.19,-271.12 -719.76,-645.46l-520.48 0z"/>
   </g>
  </g>
 </g>
</svg>
