<?xml version="1.0" encoding="UTF-8"?>
<!DOCTYPE svg PUBLIC "-//W3C//DTD SVG 1.1//EN" "http://www.w3.org/Graphics/SVG/1.1/DTD/svg11.dtd">
<!-- Creator: CorelDRAW 2019 (64-Bit) -->
<svg xmlns="http://www.w3.org/2000/svg" xml:space="preserve" width="194.733mm" height="44.8732mm" version="1.1" style="shape-rendering:geometricPrecision; text-rendering:geometricPrecision; image-rendering:optimizeQuality; fill-rule:evenodd; clip-rule:evenodd"
viewBox="0 0 19473.32 4487.32"
 xmlns:xlink="http://www.w3.org/1999/xlink"
 xmlns:xodm="http://www.corel.com/coreldraw/odm/2003">
 <defs>
  <style type="text/css">
   <![CDATA[
    .fil0 {fill:#005585}
    .fil1 {fill:#4DA6DD;fill-rule:nonzero}
   ]]>
  </style>
 </defs>
 <g id="Layer_x0020_1">
  <metadata id="CorelCorpID_0Corel-Layer"/>
  <g id="_1144869104">
   <polygon class="fil0" points="3050.14,1713.04 1760.71,3006.43 822.4,2072.16 1763.66,1144.06 2062.28,1435.91 1584.94,1927.8 1953.13,2285.08 2700.17,1515.27 2786.79,1426.63 1950.04,608.82 1765.57,421.73 98.58,2065.38 107.87,2074.81 102.93,2079.77 1398.51,3369.75 1397.33,3370.94 1760.65,3733.15 3413.46,2075.24 "/>
   <path class="fil1" d="M5178.46 901.3l-767.05 1678.56 -772.05 -1678.56 -547.9 0 1090.82 2341.03 453.27 0 1090.84 -2341.03 -547.93 0zm2408.92 0l0 184.29c-199.25,-154.41 -453.27,-244.06 -752.13,-244.06 -657.48,0 -1185.46,547.89 -1185.46,1230.29 0,682.38 527.98,1230.29 1185.46,1230.29 298.86,0 552.88,-89.66 752.13,-244.07l0 184.29 513.03 0 0 -2341.03 -513.03 0zm-677.43 1932.59c-428.35,0 -742.14,-343.68 -742.14,-762.07 0,-418.4 313.79,-762.09 742.14,-762.09 259.01,0 503.08,89.66 677.43,338.7l0 846.76c-174.35,249.05 -418.42,338.7 -677.43,338.7zm1990.52 -363.6l-478.17 -4.98c59.77,617.64 532.96,836.8 1085.85,836.8 587.75,0 1021.1,-254.03 1021.1,-747.15 0,-453.25 -348.67,-607.67 -702.32,-672.42l-438.32 -69.73c-273.96,-44.83 -363.62,-164.38 -363.62,-288.89 0,-164.38 164.37,-273.95 463.23,-273.95 298.86,0 523,99.61 547.91,353.64l478.17 0c-49.82,-612.65 -572.82,-767.07 -1026.08,-767.07 -582.76,0 -976.27,278.94 -976.27,732.2 0,423.39 333.72,602.7 692.35,662.47l518.02 89.65c199.25,34.87 313.81,134.48 313.81,273.95 0,184.3 -209.2,283.92 -513.04,283.92 -353.65,0 -567.83,-119.55 -622.62,-408.44zm3663.07 263.98c-119.55,49.82 -259.01,89.66 -398.47,89.66 -288.9,0 -458.25,-144.44 -458.25,-483.15l0 -1006.14 866.69 0 0 -433.34 -866.69 0 0 -861.71 -518.02 0 0 861.71 -552.89 0 0 433.34 552.89 0 0 1006.14c0,602.69 318.77,961.33 916.5,961.33 159.37,0 328.73,-19.93 532.95,-94.64l-74.71 -473.2zm525.06 -1832.97l0 2341.03 513.03 0 0 -2341.03 -513.03 0zm2887.08 0l0 184.29c-199.23,-154.41 -463.24,-244.06 -762.09,-244.06 -614.18,0 -1106.63,426 -1168.82,1050.56l521.48 0c55.55,-361.12 335.2,-607.26 722.05,-607.26 259.02,0 513.04,104.59 687.38,363.6l0 243.66 513.03 0 0 -990.79 -513.03 0zm-1925.97 1287.12c79.77,554.11 563.68,994.14 1163.88,994.14 298.85,0 562.86,-89.66 762.09,-244.07l0 368.6c0,428.36 -278.93,672.42 -672.44,672.42 -383.53,0 -632.58,-194.26 -677.4,-478.17l-527.99 0c64.75,557.86 547.91,946.38 1205.39,946.38 702.32,0 1185.47,-428.36 1185.47,-1140.63l0 -1118.67 -513.03 0 0 187.23c-174.34,259.01 -428.36,358.62 -687.38,358.62 -367.55,0 -638.31,-250.85 -712.06,-545.85l-526.53 0zm4084.79 -1346.89c-645.91,0 -1150.49,436.19 -1233.23,1050.56l524.75 0c71.61,-335.57 342.85,-582.36 708.48,-582.36 365.63,0 636.87,246.79 708.48,582.36l524.76 0c-82.74,-614.37 -587.32,-1050.56 -1233.24,-1050.56zm-1240.24 1346.89c55.28,651.48 572.17,1113.69 1240.24,1113.69 668.09,0 1184.97,-462.21 1240.25,-1113.69l-520.49 0c-48.57,374.35 -330.75,645.47 -719.76,645.47 -389.01,0 -671.19,-271.12 -719.76,-645.47l-520.48 0z"/>
  </g>
 </g>
</svg>
