<?xml version="1.0" encoding="UTF-8"?>
<!DOCTYPE svg PUBLIC "-//W3C//DTD SVG 1.1//EN" "http://www.w3.org/Graphics/SVG/1.1/DTD/svg11.dtd">
<!-- Creator: CorelDRAW 2019 (64-Bit) -->
<svg xmlns="http://www.w3.org/2000/svg" xml:space="preserve" width="220mm" height="220mm" version="1.1" style="shape-rendering:geometricPrecision; text-rendering:geometricPrecision; image-rendering:optimizeQuality; fill-rule:evenodd; clip-rule:evenodd"
viewBox="0 0 22000 22000"
 xmlns:xlink="http://www.w3.org/1999/xlink"
 xmlns:xodm="http://www.corel.com/coreldraw/odm/2003">
 <defs>
  <style type="text/css">
   <![CDATA[
    .fil0 {fill:#004A6E;fill-rule:nonzero}
   ]]>
  </style>
 </defs>
 <g id="Layer_x0020_1">
  <metadata id="CorelCorpID_0Corel-Layer"/>
  <g id="_1136217760">
   <path class="fil0" d="M19652.13 17334.26l-17317.6 0c-550.84,0 -999.09,-448.26 -999.09,-999.1l0 -333.03 19315.78 0 0 333.03c0,550.84 -448.25,999.1 -999.09,999.1z"/>
   <polygon class="fil0" points="14194.76,19332.44 7791.91,19332.44 8235.84,18000.31 13750.83,18000.31 "/>
   <path class="fil0" d="M16654.85 20331.53l0 333.04 -11323.04 -0.02 0 -333.03c0,-183.5 149.2,-333.04 333.04,-333.04l10656.98 0.02c183.83,0 333.04,149.53 333.04,333.03l-0.02 0z"/>
   <path class="fil0" d="M2334.53 4679.07l2172.03 0c-137.54,205.15 -247.77,429.28 -332.03,666.06l-1506.98 0.01c-367.33,0 -666.05,298.74 -666.05,666.06l0 9324.87 -666.06 0 0 -9657.89c0,-550.84 448.25,-999.09 999.09,-999.09l0 -0.02z"/>
   <path class="fil0" d="M6996.96 4013.01c1285.16,0 2331.22,1045.72 2331.22,2331.23l0 1665.14c0,433.61 -279.41,799.94 -666.05,937.81l0 -3602.06 -666.08 0.01 0 8325.78c0,183.5 -149.2,333.04 -333.03,333.04 -183.84,0 -333.04,-149.54 -333.04,-333.04l0 -5328.5 -666.06 0 0 5328.5c0,183.5 -149.2,333.04 -333.03,333.04 -183.83,0 -333.04,-149.54 -333.04,-333.04l0 -8325.78 -666.04 0 0 3602.07c-386.66,-137.87 -666.06,-504.2 -666.06,-937.81l0 -1665.15c0,-1285.49 1046.06,-2331.22 2331.23,-2331.22l-0.02 -0.02z"/>
   <path class="fil0" d="M5997.87 2347.86c0,-550.83 448.25,-999.09 999.09,-999.09 550.84,0 999.09,448.26 999.09,999.09 0,550.84 -448.25,999.1 -999.09,999.1 -550.84,0 -999.09,-448.26 -999.09,-999.1z"/>
   <path class="fil0" d="M20651.22 5678.16l0 9657.89 -666.05 0.02 0 -9324.87c0,-367.34 -298.74,-666.06 -666.06,-666.06l-9499.72 0c-83.92,-236.79 -194.15,-460.92 -332.03,-666.05l10164.77 -0.02c550.84,0 999.09,448.25 999.09,999.09z"/>
   <path class="fil0" d="M14123.83 13804.14c1285.16,0 2331.22,-1045.71 2331.22,-2331.22l0 -1332.13c0,-1285.5 -1046.06,-2331.22 -2331.22,-2331.22 -460.92,0 -906.52,134.2 -1289.16,388.65l368.67 554.84c273.09,-181.51 591.46,-277.42 920.5,-277.42 918.18,0 1665.15,746.99 1665.15,1665.15l0 1332.13c0,918.17 -746.99,1665.15 -1665.15,1665.15 -918.16,0 -1665.15,-747 -1665.15,-1665.15l0 -1332.13c0,-383.65 126.9,-743.99 366.68,-1042.06l-519.2 -417.62c-331.04,411.62 -513.53,930.16 -513.53,1459.68l0 1332.13c0,1285.49 1046.06,2331.22 2331.22,2331.22l-0.03 0z"/>
   <path class="fil0" d="M15122.92 10473.82l0 -333.03c0,-550.84 -448.25,-999.1 -999.09,-999.1 -550.84,0 -999.1,448.26 -999.1,999.1l0 1332.13c0,550.83 448.26,999.09 999.1,999.09 550.84,0 999.09,-448.26 999.09,-999.09l0 -333.04 -666.06 0 0 333.04c0,183.5 -149.2,333.03 -333.03,333.03 -183.84,0 -333.04,-149.53 -333.04,-333.03l0 -1332.13c0,-183.51 149.2,-333.04 333.04,-333.04 183.83,0 333.03,149.53 333.03,333.04l0 333.03 666.06 0z"/>
   <path class="fil0" d="M10460.49 10140.79l0 1332.13c0,2019.83 1643.52,3663.33 3663.34,3663.33 2019.82,0 3663.33,-1643.51 3663.33,-3663.33l0 -1332.13c0,-2019.84 -1643.51,-3663.34 -3663.33,-3663.34 -2019.82,0 -3663.34,1643.52 -3663.34,3663.34zm3663.34 -2997.28c1652.83,0 2997.28,1344.78 2997.28,2997.28l0 1332.13c0,1652.5 -1344.45,2997.27 -2997.28,2997.27 -1652.83,0 -2997.28,-1344.77 -2997.28,-2997.27l0 -1332.13c0,-1652.5 1344.45,-2997.28 2997.28,-2997.28z"/>
  </g>
 </g>
</svg>
