<?xml version="1.0" encoding="UTF-8"?>
<!DOCTYPE svg PUBLIC "-//W3C//DTD SVG 1.1//EN" "http://www.w3.org/Graphics/SVG/1.1/DTD/svg11.dtd">
<!-- Creator: CorelDRAW 2019 (64-Bit) -->
<svg xmlns="http://www.w3.org/2000/svg" xml:space="preserve" width="220mm" height="220mm" version="1.1" style="shape-rendering:geometricPrecision; text-rendering:geometricPrecision; image-rendering:optimizeQuality; fill-rule:evenodd; clip-rule:evenodd"
viewBox="0 0 22000 22000"
 xmlns:xlink="http://www.w3.org/1999/xlink"
 enable-background="new 0 0 64 64"
 xmlns:xodm="http://www.corel.com/coreldraw/odm/2003">
 <defs>
  <style type="text/css">
   <![CDATA[
    .fil0 {fill:#FEFEFE;fill-rule:nonzero}
   ]]>
  </style>
 </defs>
 <g id="Layer_x0020_1">
  <metadata id="CorelCorpID_0Corel-Layer"/>
  <g id="_1178573328">
   <g id="_1139512176">
    <g>
     <g>
      <path class="fil0" d="M19196.41 5059.44c226.49,0 410.15,-183.63 410.15,-410.15l0 -3732.41c0,-131.13 -62.67,-254.38 -168.7,-331.57 -105.98,-77.23 -242.57,-99.09 -367.33,-58.82l-8077.2 2604.73 -8077.17 -2604.73c-124.97,-40.28 -261.35,-18.42 -367.33,58.82 -106.02,77.19 -168.74,200.44 -168.74,331.57l0 17534.3c0,178.01 114.84,335.71 284.28,390.39l8203.08 2645.29 0.04 -0.01c40.69,13.12 83.14,19.81 125.88,19.81 42.2,0 84.66,-6.52 125.84,-19.77l8203.08 -2645.29c169.43,-54.67 284.28,-212.34 284.28,-390.39l0 -10472.58c0,-226.53 -183.67,-410.15 -410.15,-410.15 -226.49,0 -410.15,183.63 -410.15,410.15l0 10173.87 -7382.77 2380.74 -0.02 -16672.4 7382.77 -2380.74 0 3169.18c0.01,226.53 183.68,410.16 410.16,410.16zm-8613.22 15473.8l-7382.78 -2380.74 -0.01 -16672.4 7382.78 2380.74 0.01 16672.4z"/>
     </g>
    </g>
    <g>
     <g>
      <path class="fil0" d="M19486.35 5999.92c-76.25,-76.29 -182.07,-120.18 -289.94,-120.18 -107.87,0 -213.69,43.89 -289.98,120.18 -76.29,76.29 -120.18,182.11 -120.18,289.98 0,107.87 43.85,213.69 120.18,289.98 76.33,76.29 182.11,120.18 289.98,120.18 107.87,0 213.69,-43.89 289.94,-120.18 76.29,-76.29 120.22,-182.11 120.22,-289.98 0,-107.87 -43.89,-213.69 -120.22,-289.98z"/>
     </g>
    </g>
    <g>
     <g>
      <path class="fil0" d="M9118.44 5318.86l-4201.54 -1354.9c-124.97,-40.24 -261.35,-18.42 -367.33,58.82 -106.02,77.19 -168.7,200.4 -168.7,331.53l0 4684.61c0,178.09 114.84,335.75 284.24,390.43l4201.58 1354.9c41.22,13.29 83.63,19.77 125.84,19.77 85.72,0 170.46,-26.87 241.5,-78.63 106.02,-77.19 168.7,-200.4 168.7,-331.53l-0.01 -4684.61c0,-178.01 -114.84,-335.72 -284.28,-390.39zm-535.99 4511.77l-3381.27 -1090.35 0 -3822.72 3381.27 1090.36 0 3822.71z"/>
     </g>
    </g>
    <g>
     <g>
      <path class="fil0" d="M9118.48 12517.79l-4201.58 -1354.9c-215.78,-69.44 -446.78,48.93 -516.26,264.47 -69.48,215.58 48.89,446.74 264.47,516.26l4201.58 1354.9c41.88,13.49 84.29,19.89 125.96,19.89 173.25,0 334.24,-110.66 390.3,-284.4 69.52,-215.53 -48.89,-446.7 -264.47,-516.22z"/>
     </g>
    </g>
    <g>
     <g>
      <path class="fil0" d="M9118.48 14787.18l-4201.58 -1354.91c-215.78,-69.44 -446.78,48.93 -516.26,264.47 -69.48,215.58 48.89,446.74 264.47,516.26l4201.58 1354.9c41.88,13.49 84.29,19.89 125.96,19.89 173.25,0 334.24,-110.66 390.3,-284.4 69.52,-215.53 -48.89,-446.65 -264.47,-516.21z"/>
     </g>
    </g>
    <g>
     <g>
      <path class="fil0" d="M9118.48 17056.56l-4201.58 -1354.9c-215.78,-69.44 -446.78,48.93 -516.26,264.47 -69.48,215.58 48.89,446.74 264.47,516.26l4201.58 1354.9c41.88,13.49 84.29,19.89 125.96,19.89 173.25,0 334.24,-110.66 390.3,-284.4 69.52,-215.57 -48.89,-446.7 -264.47,-516.22z"/>
     </g>
    </g>
    <g>
     <g>
      <path class="fil0" d="M17430.78 11075.81c-105.98,-77.19 -242.61,-99.04 -367.33,-58.82l-4201.53 1354.9c-169.43,54.67 -284.28,212.34 -284.28,390.39l0 4684.62c0,131.13 62.67,254.38 168.7,331.53 71,51.72 155.73,78.63 241.49,78.63 42.2,0 84.66,-6.52 125.84,-19.77l4201.54 -1354.9c169.43,-54.67 284.28,-212.34 284.28,-390.39l-0.01 -4684.62c0,-131.13 -62.68,-254.38 -168.7,-331.57zm-651.61 4717.52l-3381.23 1090.36 0 -3822.72 3381.23 -1090.36 0 3822.72z"/>
     </g>
    </g>
    <g>
     <g>
      <path class="fil0" d="M17579.66 8767.19c-69.52,-215.58 -300.6,-333.99 -516.26,-264.47l-4201.53 1354.89c-215.58,69.52 -334.03,300.68 -264.47,516.26 56.03,173.74 217.05,284.4 390.29,284.4 41.71,0 84.12,-6.44 125.96,-19.89l4201.54 -1354.9c215.58,-69.6 334.04,-300.72 264.47,-516.29z"/>
     </g>
    </g>
    <g>
     <g>
      <path class="fil0" d="M17579.66 6497.81c-69.52,-215.58 -300.6,-333.99 -516.26,-264.47l-4201.53 1354.9c-215.58,69.52 -334.03,300.68 -264.47,516.26 56.03,173.74 217.05,284.4 390.29,284.4 41.71,0 84.12,-6.44 125.96,-19.89l4201.54 -1354.9c215.58,-69.56 334.04,-300.68 264.47,-516.3z"/>
     </g>
    </g>
    <g>
     <g>
      <path class="fil0" d="M17579.66 4228.46c-69.52,-215.58 -300.6,-333.99 -516.26,-264.47l-4201.53 1354.9c-215.58,69.52 -334.03,300.68 -264.47,516.26 56.03,173.74 217.05,284.4 390.29,284.4 41.71,0 84.12,-6.44 125.96,-19.89l4201.54 -1354.9c215.58,-69.6 334.04,-300.72 264.47,-516.3z"/>
     </g>
    </g>
    <g>
    </g>
    <g>
    </g>
    <g>
    </g>
    <g>
    </g>
    <g>
    </g>
    <g>
    </g>
    <g>
    </g>
    <g>
    </g>
    <g>
    </g>
    <g>
    </g>
    <g>
    </g>
    <g>
    </g>
    <g>
    </g>
    <g>
    </g>
    <g>
    </g>
   </g>
  </g>
 </g>
</svg>
