<?xml version="1.0" encoding="UTF-8" standalone="no"?>
<!-- Created with Inkscape (http://www.inkscape.org/) -->

<svg
   xmlns:dc="http://purl.org/dc/elements/1.1/"
   xmlns:cc="http://creativecommons.org/ns#"
   xmlns:rdf="http://www.w3.org/1999/02/22-rdf-syntax-ns#"
   xmlns:svg="http://www.w3.org/2000/svg"
   xmlns="http://www.w3.org/2000/svg"
   xmlns:sodipodi="http://sodipodi.sourceforge.net/DTD/sodipodi-0.dtd"
   xmlns:inkscape="http://www.inkscape.org/namespaces/inkscape"
   version="1.1"
   id="svg2"
   xml:space="preserve"
   width="294.12909"
   height="119.57022"
   viewBox="0 0 294.12909 119.57022"
   sodipodi:docname="offer2.svg"
   inkscape:version="0.92.3 (2405546, 2018-03-11)"><metadata
     id="metadata8"><rdf:RDF><cc:Work
         rdf:about=""><dc:format>image/svg+xml</dc:format><dc:type
           rdf:resource="http://purl.org/dc/dcmitype/StillImage" /><dc:title></dc:title></cc:Work></rdf:RDF></metadata><defs
     id="defs6"><clipPath
       clipPathUnits="userSpaceOnUse"
       id="clipPath20"><path
         d="M 2880,0 H 0 V 2880 H 2880 V 0 M 857.059,468.371 835.051,466.18 v -30.149 l 314.979,31.301 1128.35,-4.004 32.55,119.363 136.29,13.539 86.88,547.66 -68.87,4.58 33.15,121.53 -929.08,-62.03 -311.75,20.71 v -30.07 l 86,-5.71 -1041.831,-69.55 96.66,-653.35 458.68,-1.629 m 0,1146.659 -22.008,-2.18 v -30.15 l 314.979,31.3 1128.35,-4 32.55,119.35 136.29,13.55 86.88,547.66 -68.87,4.57 33.15,121.53 -929.08,-62.02 -311.75,20.7 v -30.06 l 86,-5.71 -1041.831,-69.55 96.66,-653.36 458.68,-1.63 M 2319.38,613.68 l 137.8,505.26 42.15,-2.8 -78.12,-492.339 -101.83,-10.121 m 0,1146.67 137.8,505.25 42.15,-2.8 -78.12,-492.34 -101.83,-10.11"
         id="path18"
         inkscape:connector-curvature="0" /></clipPath><linearGradient
       x1="0"
       y1="0"
       x2="1"
       y2="0"
       gradientUnits="userSpaceOnUse"
       gradientTransform="matrix(-3600.85,-3600.85,-3600.85,3600.85,3649.2,3649.18)"
       spreadMethod="pad"
       id="linearGradient26"><stop
         style="stop-opacity:1;stop-color:#ffffff"
         offset="0"
         id="stop22" /><stop
         style="stop-opacity:1;stop-color:#f6f8f9"
         offset="1"
         id="stop24" /></linearGradient><clipPath
       clipPathUnits="userSpaceOnUse"
       id="clipPath38"><path
         d="m 2278.38,1610 -1128.35,4 1160.9,115.35 -32.55,-119.35 m -1421.321,5.03 -458.68,1.63 -96.66,653.36 1041.831,69.55 1113.63,-73.97 -137.8,-505.25 -1462.321,-145.32 m 1608.171,680.1 -895.93,59.51 929.08,62.02 -33.15,-121.53"
         id="path36"
         inkscape:connector-curvature="0" /></clipPath><linearGradient
       x1="0"
       y1="0"
       x2="1"
       y2="0"
       gradientUnits="userSpaceOnUse"
       gradientTransform="matrix(-3600.85,-3600.85,-3600.85,3600.85,3649.2,3649.18)"
       spreadMethod="pad"
       id="linearGradient44"><stop
         style="stop-opacity:1;stop-color:#f9da08"
         offset="0"
         id="stop40" /><stop
         style="stop-opacity:1;stop-color:#f9d908"
         offset="1"
         id="stop42" /></linearGradient><clipPath
       clipPathUnits="userSpaceOnUse"
       id="clipPath104"><path
         d="m 2278.38,463.328 -1128.35,4.004 1160.9,115.359 -32.55,-119.363 M 857.059,468.371 398.379,470 301.719,1123.35 1343.55,1192.9 2457.18,1118.94 2319.38,613.68 857.059,468.371 m 1608.171,680.099 -895.93,59.5 929.08,62.03 -33.15,-121.53"
         id="path102"
         inkscape:connector-curvature="0" /></clipPath><linearGradient
       x1="0"
       y1="0"
       x2="1"
       y2="0"
       gradientUnits="userSpaceOnUse"
       gradientTransform="matrix(-3600.85,-3600.85,-3600.85,3600.85,3649.2,3649.18)"
       spreadMethod="pad"
       id="linearGradient110"><stop
         style="stop-opacity:1;stop-color:#5cc7a0"
         offset="0"
         id="stop106" /><stop
         style="stop-opacity:1;stop-color:#5cc79f"
         offset="1"
         id="stop108" /></linearGradient><clipPath
       id="clipPath1050"
       clipPathUnits="userSpaceOnUse"><path
         style="clip-rule:evenodd"
         inkscape:connector-curvature="0"
         id="path1048"
         d="m 118.2634,472.4889 628.06,5.1804 V 315.2279 l -628.06,-5.1803 z" /></clipPath><clipPath
       id="clipPath1060"
       clipPathUnits="userSpaceOnUse"><path
         style="clip-rule:evenodd"
         inkscape:connector-curvature="0"
         id="path1058"
         d="m 118.2634,310.0476 h 628.06 v 167.6217 h -628.06 z" /></clipPath></defs><sodipodi:namedview
     pagecolor="#ffffff"
     bordercolor="#666666"
     borderopacity="1"
     objecttolerance="10"
     gridtolerance="10"
     guidetolerance="10"
     inkscape:pageopacity="0"
     inkscape:pageshadow="2"
     inkscape:window-width="1920"
     inkscape:window-height="1015"
     id="namedview4"
     showgrid="false"
     fit-margin-top="0"
     fit-margin-left="0"
     fit-margin-right="0"
     fit-margin-bottom="0"
     showguides="true"
     inkscape:guide-bbox="true"
     inkscape:zoom="2.3555831"
     inkscape:cx="98.694395"
     inkscape:cy="130.23207"
     inkscape:window-x="0"
     inkscape:window-y="0"
     inkscape:window-maximized="1"
     inkscape:current-layer="g10" /><g
     id="g10"
     inkscape:groupmode="layer"
     inkscape:label="ink_ext_XXXXXX"
     transform="matrix(1.3333333,0,0,-1.3333333,-45.41218,172.34622)"><path
       style="fill:#015586;fill-opacity:1;stroke:#4da6dd;stroke-width:0.75;stroke-opacity:0.99215686"
       d="m 34.489569,114.18543 219.666091,14.665 -22,-80.6672 -188.000091,0.6672 z"
       id="rect1020"
       inkscape:connector-curvature="0"
       sodipodi:nodetypes="ccccc" /><path
       inkscape:connector-curvature="0"
       id="path96"
       style="fill:#4ca6dd;fill-opacity:1;fill-rule:nonzero;stroke:none;stroke-width:0.1"
       d="m 125.755,122.868 v -3.007 L 249.933,111.614 242.121,62.3801 83.5051,46.618 v -3.0149 l 161.2169,16.0199 8.688,54.766 -127.655,8.479" /><path
       inkscape:connector-curvature="0"
       id="path116"
       style="fill:#4ca6dd;fill-opacity:1;fill-rule:nonzero;stroke:none;stroke-width:0.1"
       d="m 125.8744,119.85805 v 3 l -74.950303,4.98 -7.7902,-88.259 40.4906,4.02 v 3.0199 l -37.1809,-3.7008 7.211,81.7409 72.219803,-4.801" /><flowRoot
       xml:space="preserve"
       id="flowRoot1303"
       style="font-style:normal;font-variant:normal;font-weight:normal;font-stretch:normal;font-size:40px;line-height:1.25;font-family:Manjari;-inkscape-font-specification:'Manjari, Normal';font-variant-ligatures:normal;font-variant-caps:normal;font-variant-numeric:normal;font-feature-settings:normal;text-align:start;letter-spacing:0px;word-spacing:0px;writing-mode:lr-tb;text-anchor:start;fill:#000000;fill-opacity:1;stroke:none"
       transform="matrix(0.75000002,0,0,-0.75000002,34.059136,129.25967)"><flowRegion
         id="flowRegion1305"><rect
           id="rect1307"
           width="162.59244"
           height="76.4142"
           x="61.131359"
           y="-83.776459" /></flowRegion><flowPara
         id="flowPara1309">sceneografisce</flowPara></flowRoot><flowRoot
       xml:space="preserve"
       id="flowRoot1311"
       style="fill:black;fill-opacity:1;stroke:none;font-family:Manjari;font-style:normal;font-weight:normal;font-size:40px;line-height:1.25;letter-spacing:0px;word-spacing:0px;-inkscape-font-specification:'Manjari, Normal';font-stretch:normal;font-variant:normal;text-anchor:start;text-align:start;writing-mode:lr;font-variant-ligatures:normal;font-variant-caps:normal;font-variant-numeric:normal;font-feature-settings:normal"><flowRegion
         id="flowRegion1313"><rect
           id="rect1315"
           width="224.14832"
           height="74.71611"
           x="-29.716633"
           y="-97.361198" /></flowRegion><flowPara
         id="flowPara1317"></flowPara></flowRoot><text
       xml:space="preserve"
       style="font-style:normal;font-variant:normal;font-weight:normal;font-stretch:normal;font-size:26.03025246px;line-height:1.25;font-family:Manjari;-inkscape-font-specification:'Manjari, Normal';font-variant-ligatures:normal;font-variant-caps:normal;font-variant-numeric:normal;font-feature-settings:normal;text-align:start;letter-spacing:0px;word-spacing:0px;writing-mode:lr-tb;text-anchor:start;fill:#ffffff;fill-opacity:1;stroke:none;stroke-width:0.6507563;"
       x="52.758499"
       y="-62.445751"
       id="text1321"
       transform="scale(1,-1)"><tspan
         sodipodi:role="line"
         id="tspan1319"
         x="52.758499"
         y="-62.445751"
         style="stroke-width:0.6507563;fill:#ffffff;">sceneografia</tspan></text>
<text
       xml:space="preserve"
       style="font-style:normal;font-variant:normal;font-weight:normal;font-stretch:normal;font-size:40.36649323px;line-height:1.25;font-family:Manjari;-inkscape-font-specification:'Manjari, Normal';font-variant-ligatures:normal;font-variant-caps:normal;font-variant-numeric:normal;font-feature-settings:normal;text-align:start;letter-spacing:0px;word-spacing:0px;writing-mode:lr-tb;text-anchor:start;fill:#ffffff;fill-opacity:1;stroke:none;stroke-width:1.00916243;"
       x="68.673759"
       y="-86.801666"
       id="text1321-1"
       transform="scale(1,-1)"><tspan
         sodipodi:role="line"
         id="tspan1319-7"
         x="68.673759"
         y="-86.801666"
         style="stroke-width:1.00916243;fill:#ffffff;">reklama</tspan></text>
</g></svg>