<?xml version="1.0" encoding="UTF-8" standalone="no"?>
<!-- Created with Inkscape (http://www.inkscape.org/) -->

<svg
   xmlns:dc="http://purl.org/dc/elements/1.1/"
   xmlns:cc="http://creativecommons.org/ns#"
   xmlns:rdf="http://www.w3.org/1999/02/22-rdf-syntax-ns#"
   xmlns:svg="http://www.w3.org/2000/svg"
   xmlns="http://www.w3.org/2000/svg"
   xmlns:sodipodi="http://sodipodi.sourceforge.net/DTD/sodipodi-0.dtd"
   xmlns:inkscape="http://www.inkscape.org/namespaces/inkscape"
   version="1.1"
   id="svg2"
   xml:space="preserve"
   width="294.12909"
   height="119.57022"
   viewBox="0 0 294.12909 119.57022"
   sodipodi:docname="offer.svg"
   inkscape:version="0.92.3 (2405546, 2018-03-11)"><metadata
     id="metadata8"><rdf:RDF><cc:Work
         rdf:about=""><dc:format>image/svg+xml</dc:format><dc:type
           rdf:resource="http://purl.org/dc/dcmitype/StillImage" /><dc:title></dc:title></cc:Work></rdf:RDF></metadata><defs
     id="defs6"><clipPath
       clipPathUnits="userSpaceOnUse"
       id="clipPath20"><path
         d="M 2880,0 H 0 V 2880 H 2880 V 0 M 857.059,468.371 835.051,466.18 v -30.149 l 314.979,31.301 1128.35,-4.004 32.55,119.363 136.29,13.539 86.88,547.66 -68.87,4.58 33.15,121.53 -929.08,-62.03 -311.75,20.71 v -30.07 l 86,-5.71 -1041.831,-69.55 96.66,-653.35 458.68,-1.629 m 0,1146.659 -22.008,-2.18 v -30.15 l 314.979,31.3 1128.35,-4 32.55,119.35 136.29,13.55 86.88,547.66 -68.87,4.57 33.15,121.53 -929.08,-62.02 -311.75,20.7 v -30.06 l 86,-5.71 -1041.831,-69.55 96.66,-653.36 458.68,-1.63 M 2319.38,613.68 l 137.8,505.26 42.15,-2.8 -78.12,-492.339 -101.83,-10.121 m 0,1146.67 137.8,505.25 42.15,-2.8 -78.12,-492.34 -101.83,-10.11"
         id="path18"
         inkscape:connector-curvature="0" /></clipPath><linearGradient
       x1="0"
       y1="0"
       x2="1"
       y2="0"
       gradientUnits="userSpaceOnUse"
       gradientTransform="matrix(-3600.85,-3600.85,-3600.85,3600.85,3649.2,3649.18)"
       spreadMethod="pad"
       id="linearGradient26"><stop
         style="stop-opacity:1;stop-color:#ffffff"
         offset="0"
         id="stop22" /><stop
         style="stop-opacity:1;stop-color:#f6f8f9"
         offset="1"
         id="stop24" /></linearGradient><clipPath
       clipPathUnits="userSpaceOnUse"
       id="clipPath38"><path
         d="m 2278.38,1610 -1128.35,4 1160.9,115.35 -32.55,-119.35 m -1421.321,5.03 -458.68,1.63 -96.66,653.36 1041.831,69.55 1113.63,-73.97 -137.8,-505.25 -1462.321,-145.32 m 1608.171,680.1 -895.93,59.51 929.08,62.02 -33.15,-121.53"
         id="path36"
         inkscape:connector-curvature="0" /></clipPath><linearGradient
       x1="0"
       y1="0"
       x2="1"
       y2="0"
       gradientUnits="userSpaceOnUse"
       gradientTransform="matrix(-3600.85,-3600.85,-3600.85,3600.85,3649.2,3649.18)"
       spreadMethod="pad"
       id="linearGradient44"><stop
         style="stop-opacity:1;stop-color:#f9da08"
         offset="0"
         id="stop40" /><stop
         style="stop-opacity:1;stop-color:#f9d908"
         offset="1"
         id="stop42" /></linearGradient><clipPath
       clipPathUnits="userSpaceOnUse"
       id="clipPath104"><path
         d="m 2278.38,463.328 -1128.35,4.004 1160.9,115.359 -32.55,-119.363 M 857.059,468.371 398.379,470 301.719,1123.35 1343.55,1192.9 2457.18,1118.94 2319.38,613.68 857.059,468.371 m 1608.171,680.099 -895.93,59.5 929.08,62.03 -33.15,-121.53"
         id="path102"
         inkscape:connector-curvature="0" /></clipPath><linearGradient
       x1="0"
       y1="0"
       x2="1"
       y2="0"
       gradientUnits="userSpaceOnUse"
       gradientTransform="matrix(-3600.85,-3600.85,-3600.85,3600.85,3649.2,3649.18)"
       spreadMethod="pad"
       id="linearGradient110"><stop
         style="stop-opacity:1;stop-color:#5cc7a0"
         offset="0"
         id="stop106" /><stop
         style="stop-opacity:1;stop-color:#5cc79f"
         offset="1"
         id="stop108" /></linearGradient><clipPath
       id="clipPath1050"
       clipPathUnits="userSpaceOnUse"><path
         style="clip-rule:evenodd"
         inkscape:connector-curvature="0"
         id="path1048"
         d="m 118.2634,472.4889 628.06,5.1804 V 315.2279 l -628.06,-5.1803 z" /></clipPath><clipPath
       id="clipPath1060"
       clipPathUnits="userSpaceOnUse"><path
         style="clip-rule:evenodd"
         inkscape:connector-curvature="0"
         id="path1058"
         d="m 118.2634,310.0476 h 628.06 v 167.6217 h -628.06 z" /></clipPath></defs><sodipodi:namedview
     pagecolor="#ffffff"
     bordercolor="#666666"
     borderopacity="1"
     objecttolerance="10"
     gridtolerance="10"
     guidetolerance="10"
     inkscape:pageopacity="0"
     inkscape:pageshadow="2"
     inkscape:window-width="1920"
     inkscape:window-height="1015"
     id="namedview4"
     showgrid="false"
     fit-margin-top="0"
     fit-margin-left="0"
     fit-margin-right="0"
     fit-margin-bottom="0"
     showguides="true"
     inkscape:guide-bbox="true"
     inkscape:zoom="2.3555831"
     inkscape:cx="98.694395"
     inkscape:cy="130.23207"
     inkscape:window-x="0"
     inkscape:window-y="0"
     inkscape:window-maximized="1"
     inkscape:current-layer="g10" /><g
     id="g10"
     inkscape:groupmode="layer"
     inkscape:label="ink_ext_XXXXXX"
     transform="matrix(1.3333333,0,0,-1.3333333,-45.41218,172.34622)"><path
       style="fill:#4da6dd;fill-opacity:0.99215686;stroke:#4da6dd;stroke-width:0.75;stroke-opacity:0.99215686"
       d="m 34.489569,114.18543 219.666091,14.665 -22,-80.6672 -188.000091,0.6672 z"
       id="rect1020"
       inkscape:connector-curvature="0"
       sodipodi:nodetypes="ccccc" /><path
       inkscape:connector-curvature="0"
       id="path96"
       style="fill:#005585;fill-opacity:0.99215686;fill-rule:nonzero;stroke:none;stroke-width:0.1"
       d="m 125.755,122.868 v -3.007 L 249.933,111.614 242.121,62.3801 83.5051,46.618 v -3.0149 l 161.2169,16.0199 8.688,54.766 -127.655,8.479" /><path
       inkscape:connector-curvature="0"
       id="path116"
       style="fill:#005585;fill-opacity:0.99215686;fill-rule:nonzero;stroke:none;stroke-width:0.1"
       d="m 125.8744,119.85805 v 3 l -74.950303,4.98 -7.7902,-88.259 40.4906,4.02 v 3.0199 l -37.1809,-3.7008 7.211,81.7409 72.219803,-4.801" /><g
       aria-label="grafika"
       transform="matrix(0.68087755,0,0,-0.68087755,2.3034131,27.772474)"
       style="font-style:normal;font-variant:normal;font-weight:normal;font-stretch:normal;font-size:40px;line-height:1.25;font-family:Manjari;-inkscape-font-specification:'Manjari, Normal';font-variant-ligatures:normal;font-variant-caps:normal;font-variant-numeric:normal;font-feature-settings:normal;text-align:start;letter-spacing:0px;word-spacing:0px;writing-mode:lr-tb;text-anchor:start;fill:#f9f9f9;fill-opacity:1;stroke:none"
       id="flowRoot1106-9"><path
         d="m 92.863281,-109.61263 c -5.429687,0 -9.492187,4.86328 -9.492187,10.15625 0,5.332031 4.101562,10.15625 9.492187,10.15625 2.519531,0 4.882813,-1.640625 6.601563,-3.398438 l -0.01953,2.929688 c -0.07813,3.984375 -3.457031,7.34375 -7.5,7.34375 -2.226562,0 -4.492187,-1.09375 -5.878906,-2.832031 -0.234375,-0.3125 -0.78125,-0.585938 -1.171875,-0.585938 -0.800781,0 -1.464844,0.664063 -1.464844,1.464844 0,0.292969 0.15625,0.722656 0.332032,0.9375 1.972656,2.480469 5.019531,3.945312 8.183593,3.945312 5.625,0 10.390626,-4.648437 10.429686,-10.234375 l 0.13672,-18.437502 0.0195,-0.0391 c 0,-0.80078 -0.66406,-1.46484 -1.46484,-1.46484 -0.80078,0 -1.386721,0.66406 -1.386721,1.46484 l -0.09766,1.99219 c -1.699219,-1.81641 -4.003906,-3.39844 -6.71875,-3.39844 z m 6.542969,10.15625 c 0,3.769531 -2.8125,7.226562 -6.542969,7.226562 -3.75,0 -6.542969,-3.476562 -6.542969,-7.226562 0,-3.76953 2.753907,-7.22656 6.542969,-7.22656 3.75,0 6.542969,3.45703 6.542969,7.22656 z"
         id="path1265"
         inkscape:connector-curvature="0" /><path
         d="m 118.70313,-107.87435 c 0,-1.46484 -1.66016,-1.89453 -3.65235,-1.89453 -2.1289,0 -4.35547,2.07031 -4.88281,3.84766 l -0.17578,-2.14844 c 0,-0.97656 -0.52735,-1.6211 -1.28906,-1.6211 -0.74219,0 -1.50391,0.66407 -1.50391,1.6211 v 17.324217 c 0,0.820313 0.48828,1.484375 1.46484,1.484375 0.97657,0 1.46485,-0.664062 1.46485,-1.484375 v -10.644527 c 0,-2.83204 1.1914,-5.625 5.01953,-5.625 1.01562,0 1.62109,0.5664 2.4414,0.5664 0.54688,0 1.11329,-0.72265 1.11329,-1.42578 z"
         id="path1267"
         inkscape:connector-curvature="0" /><path
         d="m 129.48437,-109.74935 c -5.46874,0 -9.55078,4.90234 -9.55078,10.234376 0,5.351563 4.10157,10.175781 9.45313,10.175781 2.59765,0 5.05859,-1.796875 6.77734,-3.671875 v 2.226563 c 0,0.761719 0.60547,1.367187 1.36719,1.367187 0.76172,0 1.36719,-0.605468 1.36719,-1.367187 v -17.656255 c 0,-0.76171 -0.60547,-1.36718 -1.36719,-1.36718 -0.76172,0 -1.19141,0.625 -1.19141,1.36718 l -0.17578,2.46094 c -1.66015,-1.79687 -3.88672,-3.76953 -6.67969,-3.76953 z m 6.77735,10.117189 c 0,3.808593 -3.14453,7.363281 -6.875,7.363281 -3.71094,0 -6.52344,-3.496094 -6.52344,-7.246094 0,-3.789066 2.83203,-7.304686 6.64063,-7.304686 3.75,0 6.75781,3.41797 6.75781,7.187499 z"
         id="path1269"
         inkscape:connector-curvature="0" /><path
         d="m 153.44922,-113.49935 c 0.99609,0 1.54297,-0.70312 1.54297,-1.58203 0,-1.36719 -2.79297,-1.75781 -3.78907,-1.75781 -3.94531,0 -5.42968,2.30468 -5.42968,6.40625 v 1.21093 l -2.98828,0.0586 c -0.48829,0 -1.09375,0.66406 -1.09375,1.1914 0,0.91797 0.5664,1.48438 1.36718,1.48438 h 2.71485 l 0.0391,15.722656 c 0,0.820313 0.64453,1.484375 1.46484,1.484375 0.80078,0 1.46485,-0.664062 1.46485,-1.464844 l -0.0391,-15.742187 h 4.23829 c 0.52734,0 1.17187,-0.70313 1.17187,-1.28906 0,-0.74219 -0.625,-1.44532 -1.36719,-1.44532 h -4.04297 l -0.0195,-1.34765 c -0.0195,-2.32422 0.72266,-3.41797 2.38282,-3.4375 1.13281,-0.0195 1.60156,0.50781 2.38281,0.50781 z"
         id="path1271"
         inkscape:connector-curvature="0" /><path
         d="m 159.07422,-112.7181 c 1.13281,0 2.10937,-0.91797 2.10937,-2.07031 0,-1.15235 -0.97656,-2.07031 -2.10937,-2.07031 -1.13281,0 -2.10938,0.91796 -2.10938,2.07031 0,1.15234 0.97657,2.07031 2.10938,2.07031 z m -1.42578,4.23828 0.0391,17.714846 c 0,0.820313 0.64453,1.484375 1.46484,1.484375 0.80078,0 1.46485,-0.664062 1.46485,-1.464844 l -0.0391,-17.519527 c 0,-0.87891 -0.66406,-1.48438 -1.58203,-1.48438 -0.54687,0 -1.34765,0.58594 -1.34765,1.26953 z"
         id="path1273"
         inkscape:connector-curvature="0" /><path
         d="m 165.87109,-115.35482 v 24.570315 c -0.0195,0.761719 0.60547,1.386719 1.36719,1.386719 0.76172,0 1.36719,-0.605469 1.36719,-1.367188 v -5.976562 l 2.28515,-2.226563 6.71875,9.082031 c 0.23438,0.3125 0.70313,0.546875 1.09375,0.546875 0.76172,0 1.36719,-0.605468 1.36719,-1.367187 0,-0.253906 -0.13672,-0.644531 -0.29297,-0.839844 l -6.97265,-9.160156 6.69922,-6.95313 c 0.21484,-0.21484 0.39062,-0.64453 0.39062,-0.95703 0,-0.76172 -0.60547,-1.36718 -1.36719,-1.36718 -0.35156,0 -0.78125,0.19531 -0.99609,0.42968 -2.96875,3.14453 -6.09375,6.17188 -8.92578,9.45313 v -15.23438 c 0.0195,-0.78125 -0.60547,-1.38672 -1.36719,-1.38672 -0.76172,0 -1.36719,0.625 -1.36719,1.36719 z"
         id="path1275"
         inkscape:connector-curvature="0" /><path
         d="m 192.53125,-109.74935 c -5.46875,0 -9.55078,4.90234 -9.55078,10.234376 0,5.351563 4.10156,10.175781 9.45312,10.175781 2.59766,0 5.0586,-1.796875 6.77735,-3.671875 v 2.226563 c 0,0.761719 0.60547,1.367187 1.36718,1.367187 0.76172,0 1.36719,-0.605468 1.36719,-1.367187 v -17.656255 c 0,-0.76171 -0.60547,-1.36718 -1.36719,-1.36718 -0.76171,0 -1.1914,0.625 -1.1914,1.36718 l -0.17578,2.46094 c -1.66016,-1.79687 -3.88672,-3.76953 -6.67969,-3.76953 z m 6.77734,10.117189 c 0,3.808593 -3.14453,7.363281 -6.875,7.363281 -3.71093,0 -6.52343,-3.496094 -6.52343,-7.246094 0,-3.789066 2.83203,-7.304686 6.64062,-7.304686 3.75,0 6.75781,3.41797 6.75781,7.187499 z"
         id="path1277"
         inkscape:connector-curvature="0" /></g><g
       aria-label="poligrafia"
       transform="matrix(0.49527061,0,0,-0.49527061,17.712572,25.085918)"
       style="font-style:normal;font-variant:normal;font-weight:normal;font-stretch:normal;font-size:40px;line-height:1.25;font-family:Manjari;-inkscape-font-specification:'Manjari, Normal';font-variant-ligatures:normal;font-variant-caps:normal;font-variant-numeric:normal;font-feature-settings:normal;text-align:start;letter-spacing:0px;word-spacing:0px;writing-mode:lr-tb;text-anchor:start;fill:#f9f9f9;fill-opacity:1;stroke:none"
       id="flowRoot1106-9-1"><path
         d="m 93.136719,-109.71029 c -2.734375,0 -4.960938,1.81641 -6.445313,3.32032 l -0.09766,-1.875 c 0,-0.80079 -0.566406,-1.46485 -1.367188,-1.46485 -0.800781,0 -1.464843,0.66406 -1.464843,1.46485 v 24.58984 c 0,0.800781 0.644531,1.464844 1.464843,1.464844 0.800782,0 1.464844,-0.664063 1.464844,-1.464844 v -8.828125 c 1.582031,1.660156 3.710938,3.164062 6.269531,3.164062 5.390625,0 9.277347,-5.019531 9.277347,-10.332031 0,-5.292966 -3.789065,-10.039066 -9.101565,-10.039066 z m -0.05859,2.92969 c 3.710937,0 6.191406,3.33984 6.191406,7.050782 0,3.75 -2.480469,7.460938 -6.269531,7.460938 -3.925781,0 -6.289063,-3.476563 -6.289063,-7.128906 0,-3.691404 2.402344,-7.382814 6.367188,-7.382814 z"
         id="path1280"
         inkscape:connector-curvature="0" /><path
         d="m 115.92969,-109.76888 c -5.44922,0 -9.7461,4.80469 -9.7461,10.234375 0,5.46875 4.27735,10.253906 9.82422,10.253906 5.46875,-0.03906 9.70703,-4.824219 9.70703,-10.253906 0,-5.449215 -4.3164,-10.234375 -9.78515,-10.234375 z m 0,2.92969 c 3.86719,0 6.85547,3.4375 6.85547,7.304685 0,3.867187 -2.94922,7.285156 -6.79688,7.324219 -3.92578,0 -6.875,-3.457032 -6.875,-7.363282 0,-3.847652 2.98828,-7.265622 6.81641,-7.265622 z"
         id="path1282"
         inkscape:connector-curvature="0" /><path
         d="m 131.37891,-116.76107 c -0.74219,0 -1.36719,0.76172 -1.36719,1.52344 v 24.550781 c 0,0.859375 0.68359,1.464844 1.58203,1.464844 0.56641,0 1.34766,-0.566406 1.34766,-1.25 v -24.804685 c 0,-0.70313 -0.60547,-1.48438 -1.5625,-1.48438 z"
         id="path1284"
         inkscape:connector-curvature="0" /><path
         d="m 139.38672,-112.7181 c 1.13281,0 2.10937,-0.91797 2.10937,-2.07031 0,-1.15235 -0.97656,-2.07031 -2.10937,-2.07031 -1.13281,0 -2.10938,0.91796 -2.10938,2.07031 0,1.15234 0.97657,2.07031 2.10938,2.07031 z m -1.42578,4.23828 0.0391,17.714846 c 0,0.820313 0.64453,1.484375 1.46484,1.484375 0.80078,0 1.46485,-0.664062 1.46485,-1.464844 l -0.0391,-17.519527 c 0,-0.87891 -0.66406,-1.48438 -1.58203,-1.48438 -0.54687,0 -1.34765,0.58594 -1.34765,1.26953 z"
         id="path1286"
         inkscape:connector-curvature="0" /><path
         d="m 155.28516,-109.61263 c -5.42969,0 -9.49219,4.86328 -9.49219,10.15625 0,5.332031 4.10156,10.15625 9.49219,10.15625 2.51953,0 4.88281,-1.640625 6.60156,-3.398438 l -0.0195,2.929688 c -0.0781,3.984375 -3.45703,7.34375 -7.5,7.34375 -2.22657,0 -4.49219,-1.09375 -5.87891,-2.832031 -0.23437,-0.3125 -0.78125,-0.585938 -1.17187,-0.585938 -0.80079,0 -1.46485,0.664063 -1.46485,1.464844 0,0.292969 0.15625,0.722656 0.33203,0.9375 1.97266,2.480469 5.01953,3.945312 8.1836,3.945312 5.625,0 10.39062,-4.648437 10.42968,-10.234375 l 0.13672,-18.437502 0.0195,-0.0391 c 0,-0.80078 -0.66406,-1.46484 -1.46484,-1.46484 -0.80078,0 -1.38672,0.66406 -1.38672,1.46484 l -0.0977,1.99219 c -1.69922,-1.81641 -4.00391,-3.39844 -6.71875,-3.39844 z m 6.54296,10.15625 c 0,3.769531 -2.8125,7.226562 -6.54296,7.226562 -3.75,0 -6.54297,-3.476562 -6.54297,-7.226562 0,-3.76953 2.7539,-7.22656 6.54297,-7.22656 3.75,0 6.54296,3.45703 6.54296,7.22656 z"
         id="path1288"
         inkscape:connector-curvature="0" /><path
         d="m 181.125,-107.87435 c 0,-1.46484 -1.66016,-1.89453 -3.65234,-1.89453 -2.12891,0 -4.35547,2.07031 -4.88282,3.84766 l -0.17578,-2.14844 c 0,-0.97656 -0.52734,-1.6211 -1.28906,-1.6211 -0.74219,0 -1.50391,0.66407 -1.50391,1.6211 v 17.324217 c 0,0.820313 0.48828,1.484375 1.46485,1.484375 0.97656,0 1.46484,-0.664062 1.46484,-1.484375 v -10.644527 c 0,-2.83204 1.19141,-5.625 5.01953,-5.625 1.01563,0 1.6211,0.5664 2.44141,0.5664 0.54687,0 1.11328,-0.72265 1.11328,-1.42578 z"
         id="path1290"
         inkscape:connector-curvature="0" /><path
         d="m 191.90625,-109.74935 c -5.46875,0 -9.55078,4.90234 -9.55078,10.234376 0,5.351563 4.10156,10.175781 9.45312,10.175781 2.59766,0 5.0586,-1.796875 6.77735,-3.671875 v 2.226563 c 0,0.761719 0.60547,1.367187 1.36718,1.367187 0.76172,0 1.36719,-0.605468 1.36719,-1.367187 v -17.656255 c 0,-0.76171 -0.60547,-1.36718 -1.36719,-1.36718 -0.76171,0 -1.1914,0.625 -1.1914,1.36718 l -0.17578,2.46094 c -1.66016,-1.79687 -3.88672,-3.76953 -6.67969,-3.76953 z m 6.77734,10.117189 c 0,3.808593 -3.14453,7.363281 -6.875,7.363281 -3.71093,0 -6.52343,-3.496094 -6.52343,-7.246094 0,-3.789066 2.83203,-7.304686 6.64062,-7.304686 3.75,0 6.75781,3.41797 6.75781,7.187499 z"
         id="path1292"
         inkscape:connector-curvature="0" /><path
         d="m 215.87109,-113.49935 c 0.9961,0 1.54297,-0.70312 1.54297,-1.58203 0,-1.36719 -2.79297,-1.75781 -3.78906,-1.75781 -3.94531,0 -5.42969,2.30468 -5.42969,6.40625 v 1.21093 l -2.98828,0.0586 c -0.48828,0 -1.09375,0.66406 -1.09375,1.1914 0,0.91797 0.56641,1.48438 1.36719,1.48438 h 2.71484 l 0.0391,15.722656 c 0,0.820313 0.64454,1.484375 1.46485,1.484375 0.80078,0 1.46484,-0.664062 1.46484,-1.464844 l -0.0391,-15.742187 h 4.23828 c 0.52734,0 1.17188,-0.70313 1.17188,-1.28906 0,-0.74219 -0.625,-1.44532 -1.36719,-1.44532 H 211.125 l -0.0195,-1.34765 c -0.0195,-2.32422 0.72265,-3.41797 2.38281,-3.4375 1.13281,-0.0195 1.60156,0.50781 2.38281,0.50781 z"
         id="path1294"
         inkscape:connector-curvature="0" /><path
         d="m 221.49609,-112.7181 c 1.13282,0 2.10938,-0.91797 2.10938,-2.07031 0,-1.15235 -0.97656,-2.07031 -2.10938,-2.07031 -1.13281,0 -2.10937,0.91796 -2.10937,2.07031 0,1.15234 0.97656,2.07031 2.10937,2.07031 z m -1.42578,4.23828 0.0391,17.714846 c 0,0.820313 0.64454,1.484375 1.46485,1.484375 0.80078,0 1.46484,-0.664062 1.46484,-1.464844 L 223,-108.26497 c 0,-0.87891 -0.66406,-1.48438 -1.58203,-1.48438 -0.54688,0 -1.34766,0.58594 -1.34766,1.26953 z"
         id="path1296"
         inkscape:connector-curvature="0" /><path
         d="m 237.45312,-109.74935 c -5.46875,0 -9.55078,4.90234 -9.55078,10.234376 0,5.351563 4.10157,10.175781 9.45313,10.175781 2.59765,0 5.05859,-1.796875 6.77734,-3.671875 v 2.226563 c 0,0.761719 0.60547,1.367187 1.36719,1.367187 0.76172,0 1.36719,-0.605468 1.36719,-1.367187 v -17.656255 c 0,-0.76171 -0.60547,-1.36718 -1.36719,-1.36718 -0.76172,0 -1.19141,0.625 -1.19141,1.36718 l -0.17578,2.46094 c -1.66015,-1.79687 -3.88672,-3.76953 -6.67969,-3.76953 z m 6.77735,10.117189 c 0,3.808593 -3.14453,7.363281 -6.875,7.363281 -3.71094,0 -6.52344,-3.496094 -6.52344,-7.246094 0,-3.789066 2.83203,-7.304686 6.64063,-7.304686 3.75,0 6.75781,3.41797 6.75781,7.187499 z"
         id="path1298"
         inkscape:connector-curvature="0" /></g><path
       inkscape:connector-curvature="0"
       id="path1218"
       style="font-style:normal;font-variant:normal;font-weight:bold;font-stretch:normal;font-size:39.99992371px;line-height:1.25;font-family:Manjari;-inkscape-font-specification:'Manjari, Bold';font-variant-ligatures:normal;font-variant-caps:normal;font-variant-numeric:normal;font-feature-settings:normal;text-align:start;letter-spacing:0px;word-spacing:0px;writing-mode:lr-tb;text-anchor:start;fill:#f9f9f9;fill-opacity:1;stroke:none;stroke-width:0.79837227"
       d="m 156.16567,104.1899 c -3.49288,0 -7.57829,-1.59051 -7.57829,-5.348464 0,-4.178971 4.72474,-4.631173 8.37355,-5.021002 1.43457,-0.155932 3.58642,-0.187119 3.58642,-1.559319 0,-1.777623 -2.47931,-2.338977 -4.3349,-2.338977 -2.35457,0 -4.10101,0.670507 -4.91185,2.245419 -0.23389,0.483389 -0.87322,0.873217 -1.40338,0.873217 -0.85763,0 -1.55933,-0.701694 -1.55933,-1.559317 0,-0.218305 0.0936,-0.545762 0.18712,-0.73288 1.32542,-2.572874 4.31932,-3.945074 7.70303,-3.945074 3.69559,0 7.43795,1.668471 7.43795,5.44202 0,3.524055 -3.32135,4.350498 -6.37761,4.677951 -1.5905,0.17153 -5.58235,0.311869 -5.58235,1.917962 0,1.637284 2.79117,2.229834 4.44406,2.229834 1.88676,0 3.30574,-0.65493 3.99184,-1.933559 0.2339,-0.467798 0.85762,-0.857627 1.38779,-0.857627 0.85762,0 1.55932,0.701689 1.55932,1.559317 0,0.218309 -0.078,0.561349 -0.18711,0.748469 -1.16949,2.19864 -3.77355,3.60203 -6.73626,3.60203 z" /><path
       inkscape:connector-curvature="0"
       id="path1220"
       style="font-style:normal;font-variant:normal;font-weight:bold;font-stretch:normal;font-size:39.99992371px;line-height:1.25;font-family:Manjari;-inkscape-font-specification:'Manjari, Bold';font-variant-ligatures:normal;font-variant-caps:normal;font-variant-numeric:normal;font-feature-settings:normal;text-align:start;letter-spacing:0px;word-spacing:0px;writing-mode:lr-tb;text-anchor:start;fill:#f9f9f9;fill-opacity:1;stroke:none;stroke-width:0.79837227"
       d="m 169.1392,106.94988 v -3.11863 h -2.02711 c -0.81085,0 -1.48136,-0.6705 -1.48136,-1.48135 0,-0.81084 0.67051,-1.48135 1.48136,-1.48135 h 2.01151 l -0.0155,-9.776923 v -0.140339 c 0,-2.416942 1.46574,-4.225751 4.0854,-4.225751 1.1539,0 2.19864,0.436609 2.9939,1.044743 0.37423,0.280678 0.62372,0.77966 0.62372,1.231861 0,0.842032 -0.70168,1.543725 -1.55932,1.543725 -0.34303,0 -0.71728,-0.155931 -0.96677,-0.327457 -0.31188,-0.218305 -0.7017,-0.358643 -1.18508,-0.358643 -0.71729,0 -0.87321,0.327456 -0.87321,1.341013 v 0.03119 l 0.0155,9.652181 h 2.10508 c 0.81086,0 1.48136,0.6705 1.48136,1.48135 0,0.81085 -0.6705,1.48135 -1.48136,1.48135 h -2.08948 v 3.10303 c 0,0.85764 -0.70169,1.55933 -1.55931,1.55933 -0.87323,0 -1.55932,-0.71728 -1.55932,-1.55933 z" /><path
       inkscape:connector-curvature="0"
       id="path1222"
       style="font-style:normal;font-variant:normal;font-weight:bold;font-stretch:normal;font-size:39.99992371px;line-height:1.25;font-family:Manjari;-inkscape-font-specification:'Manjari, Bold';font-variant-ligatures:normal;font-variant-caps:normal;font-variant-numeric:normal;font-feature-settings:normal;text-align:start;letter-spacing:0px;word-spacing:0px;writing-mode:lr-tb;text-anchor:start;fill:#f9f9f9;fill-opacity:1;stroke:none;stroke-width:0.79837227"
       d="m 189.11405,102.19397 c 0,1.66847 -1.52813,1.98034 -3.64879,1.98034 -1.73086,0 -3.39932,-1.57492 -3.80475,-2.44814 l -0.15593,1.12271 c -0.26508,0.98237 -1.01355,1.34102 -1.49694,1.34102 -0.81084,0 -1.30983,-0.67051 -1.30983,-1.6061 V 88.222483 c 0,-0.935591 0.59255,-1.51254 1.55932,-1.51254 0.96678,0 1.55932,0.576949 1.55932,1.496946 v 8.04608 c 0,2.884742 0.90441,5.176931 3.63321,5.176931 0.90441,0 1.87118,-0.68609 2.46372,-0.62373 0.74847,0.0936 1.20067,0.54577 1.20067,1.3878 z" /><path
       inkscape:connector-curvature="0"
       id="path1224"
       style="font-style:normal;font-variant:normal;font-weight:bold;font-stretch:normal;font-size:39.99992371px;line-height:1.25;font-family:Manjari;-inkscape-font-specification:'Manjari, Bold';font-variant-ligatures:normal;font-variant-caps:normal;font-variant-numeric:normal;font-feature-settings:normal;text-align:start;letter-spacing:0px;word-spacing:0px;writing-mode:lr-tb;text-anchor:start;fill:#f9f9f9;fill-opacity:1;stroke:none;stroke-width:0.79837227"
       d="m 198.08013,104.15872 c -4.69354,0 -8.54506,-4.00746 -8.54506,-8.732187 0,-4.771516 3.86712,-8.638622 8.54506,-8.638622 4.70915,0 8.56067,3.960666 8.56067,8.638622 0,4.740327 -3.78915,8.732187 -8.56067,8.732187 z m -5.39523,-8.763379 c 0,3.040673 2.30779,5.613549 5.39523,5.613549 3.05628,0 5.41084,-2.557283 5.41084,-5.582357 0,-2.962706 -2.40135,-5.488801 -5.39524,-5.488801 -2.94711,0 -5.41083,2.432536 -5.41083,5.457609 z" /><path
       inkscape:connector-curvature="0"
       id="path1226"
       style="font-style:normal;font-variant:normal;font-weight:bold;font-stretch:normal;font-size:39.99992371px;line-height:1.25;font-family:Manjari;-inkscape-font-specification:'Manjari, Bold';font-variant-ligatures:normal;font-variant-caps:normal;font-variant-numeric:normal;font-feature-settings:normal;text-align:start;letter-spacing:0px;word-spacing:0px;writing-mode:lr-tb;text-anchor:start;fill:#f9f9f9;fill-opacity:1;stroke:none;stroke-width:0.79837227"
       d="m 212.00484,101.69498 -0.26508,0.9356 c -0.2339,0.84203 -0.65491,1.55932 -1.51254,1.55932 -0.85762,0 -1.341,-0.7017 -1.341,-1.55932 l 0.0312,-14.330133 c 0,-0.873217 0.6861,-1.57491 1.55931,-1.57491 0.85763,0 1.55932,0.701693 1.55932,1.559318 l -0.0155,6.221679 c -0.0155,3.991857 1.69965,6.517946 4.77151,6.517946 1.27864,0 2.10508,-0.84203 2.5105,-1.762032 0.35865,-0.79525 0.43661,-1.855584 0.43661,-3.071848 v -7.874559 c 0,-0.857624 0.7017,-1.559318 1.55932,-1.559318 0.85763,0 1.55932,0.701694 1.55932,1.559318 V 96.1906 c 0,1.309825 -0.0313,2.837957 -0.70169,4.35049 -0.85763,1.91796 -2.66644,3.60203 -5.39525,3.60203 -2.08949,0 -3.6332,-1.35661 -4.75592,-2.44814 z" /><path
       inkscape:connector-curvature="0"
       id="path1228"
       style="font-style:normal;font-variant:normal;font-weight:bold;font-stretch:normal;font-size:39.99992371px;line-height:1.25;font-family:Manjari;-inkscape-font-specification:'Manjari, Bold';font-variant-ligatures:normal;font-variant-caps:normal;font-variant-numeric:normal;font-feature-settings:normal;text-align:start;letter-spacing:0px;word-spacing:0px;writing-mode:lr-tb;text-anchor:start;fill:#f9f9f9;fill-opacity:1;stroke:none;stroke-width:0.79837227"
       d="m 226.31939,104.25226 c -0.85762,0 -1.55932,-0.70168 -1.55932,-1.55931 0,-0.2183 0.0468,-0.4522 0.14035,-0.6705 l 6.54913,-14.688779 -0.74849,-1.902368 c -0.71728,-1.762028 -1.57489,-3.243381 -3.3993,-3.368126 -0.81086,-0.03119 -1.46577,-0.732879 -1.46577,-1.559318 0,-0.857625 0.6861,-1.590505 1.55932,-1.590505 1.6061,0 3.14983,0.82644 4.16338,1.886776 1.06035,1.075929 1.59051,2.354569 2.02712,3.446092 l 0.87322,2.183045 c 0.0936,0.155931 0.2183,0.374236 0.26508,0.639319 l 5.73829,14.969454 c 0.078,0.17152 0.12475,0.40542 0.12475,0.60814 0,0.85761 -0.7017,1.55931 -1.55932,1.55931 -0.63932,0 -1.23186,-0.42102 -1.45016,-0.98237 l -4.53762,-11.944374 -5.30168,12.053534 c -0.2339,0.51457 -0.81086,0.91998 -1.41898,0.91998 z" /><path
       inkscape:connector-curvature="0"
       id="path1230"
       style="font-style:normal;font-variant:normal;font-weight:bold;font-stretch:normal;font-size:39.99992371px;line-height:1.25;font-family:Manjari;-inkscape-font-specification:'Manjari, Bold';font-variant-ligatures:normal;font-variant-caps:normal;font-variant-numeric:normal;font-feature-settings:normal;text-align:start;letter-spacing:0px;word-spacing:0px;writing-mode:lr-tb;text-anchor:start;fill:#f9f9f9;fill-opacity:1;stroke:none;stroke-width:0.87836081"
       d="m 147.55825,84.954333 c 0,-0.240176 0.0171,-0.428887 0.0515,-0.600439 l 4.855,-15.988883 c 0.18871,-0.651909 0.82346,-1.132261 1.544,-1.132261 0.68621,0 1.32097,0.411732 1.56114,1.029328 l 4.22024,11.57993 4.15163,-11.476997 c 0.22301,-0.548974 0.82345,-1.012172 1.54399,-1.012172 0.75483,0 1.38959,0.583285 1.56114,1.166571 l 4.49473,15.851637 c 0.0515,0.171556 0.0686,0.360266 0.0686,0.600442 0,0.78915 -0.85778,1.406748 -1.57831,1.406748 -0.82345,0 -1.4239,-0.53182 -1.61262,-1.149416 l -3.17375,-11.35691 -3.94576,11.116734 v 0.01715 c -0.22301,0.446042 -0.85777,0.771996 -1.52683,0.771996 -0.66906,0 -1.26951,-0.325954 -1.5097,-0.75484 h -0.0172 l -4.06584,-11.425531 -3.4311,11.648553 c -0.1887,0.634751 -0.85777,1.132259 -1.62976,1.132259 -0.75484,0 -1.56115,-0.669062 -1.56115,-1.423903 z" /><path
       inkscape:connector-curvature="0"
       id="path1232"
       style="font-style:normal;font-variant:normal;font-weight:bold;font-stretch:normal;font-size:39.99992371px;line-height:1.25;font-family:Manjari;-inkscape-font-specification:'Manjari, Bold';font-variant-ligatures:normal;font-variant-caps:normal;font-variant-numeric:normal;font-feature-settings:normal;text-align:start;letter-spacing:0px;word-spacing:0px;writing-mode:lr-tb;text-anchor:start;fill:#f9f9f9;fill-opacity:1;stroke:none;stroke-width:0.87836081"
       d="m 173.36004,84.954333 c 0,-0.240176 0.0171,-0.428887 0.0515,-0.600439 l 4.85498,-15.988883 c 0.18872,-0.651909 0.82347,-1.132261 1.544,-1.132261 0.68622,0 1.32095,0.411732 1.56114,1.029328 l 4.22024,11.57993 4.15162,-11.476997 c 0.22303,-0.548974 0.82347,-1.012172 1.54398,-1.012172 0.75485,0 1.38961,0.583285 1.56115,1.166571 l 4.49473,15.851637 c 0.0515,0.171556 0.0686,0.360266 0.0686,0.600442 0,0.78915 -0.85778,1.406748 -1.5783,1.406748 -0.82346,0 -1.42391,-0.53182 -1.61261,-1.149416 l -3.17377,-11.35691 -3.94574,11.116734 v 0.01715 c -0.22304,0.446042 -0.85778,0.771996 -1.52683,0.771996 -0.66908,0 -1.2695,-0.325954 -1.50969,-0.75484 h -0.0171 L 179.9821,73.59742 176.551,85.245973 c -0.1887,0.634751 -0.85776,1.132259 -1.62976,1.132259 -0.75484,0 -1.56115,-0.669062 -1.56115,-1.423903 z" /><path
       inkscape:connector-curvature="0"
       id="path1234"
       style="font-style:normal;font-variant:normal;font-weight:bold;font-stretch:normal;font-size:39.99992371px;line-height:1.25;font-family:Manjari;-inkscape-font-specification:'Manjari, Bold';font-variant-ligatures:normal;font-variant-caps:normal;font-variant-numeric:normal;font-feature-settings:normal;text-align:start;letter-spacing:0px;word-spacing:0px;writing-mode:lr-tb;text-anchor:start;fill:#f9f9f9;fill-opacity:1;stroke:none;stroke-width:0.87836081"
       d="m 199.16183,84.954333 c 0,-0.240176 0.0171,-0.428887 0.0515,-0.600439 l 4.85499,-15.988883 c 0.18872,-0.651909 0.82345,-1.132261 1.54399,-1.132261 0.68622,0 1.32097,0.411732 1.56116,1.029328 l 4.22023,11.57993 4.15161,-11.476997 c 0.22304,-0.548974 0.82348,-1.012172 1.544,-1.012172 0.75484,0 1.38958,0.583285 1.56115,1.166571 l 4.49472,15.851637 c 0.0515,0.171556 0.0686,0.360266 0.0686,0.600442 0,0.78915 -0.85776,1.406748 -1.5783,1.406748 -0.82346,0 -1.42391,-0.53182 -1.61263,-1.149416 l -3.17373,-11.35691 -3.94576,11.116734 v 0.01715 c -0.22303,0.446042 -0.85778,0.771996 -1.52685,0.771996 -0.66906,0 -1.26949,-0.325954 -1.50968,-0.75484 h -0.0171 L 205.7839,73.59742 202.3528,85.245973 c -0.1887,0.634751 -0.85777,1.132259 -1.62976,1.132259 -0.75484,0 -1.56114,-0.669062 -1.56114,-1.423903 z" /></g></svg>