<?xml version="1.0" encoding="UTF-8"?>
<!DOCTYPE svg PUBLIC "-//W3C//DTD SVG 1.1//EN" "http://www.w3.org/Graphics/SVG/1.1/DTD/svg11.dtd">
<!-- Creator: CorelDRAW 2019 (64-Bit) -->
<svg xmlns="http://www.w3.org/2000/svg" xml:space="preserve" width="220mm" height="220mm" version="1.1" style="shape-rendering:geometricPrecision; text-rendering:geometricPrecision; image-rendering:optimizeQuality; fill-rule:evenodd; clip-rule:evenodd"
viewBox="0 0 22000 22000"
 xmlns:xlink="http://www.w3.org/1999/xlink"
 enable-background="new 0 0 64 64"
 xmlns:xodm="http://www.corel.com/coreldraw/odm/2003">
 <defs>
  <style type="text/css">
   <![CDATA[
    .fil0 {fill:#FEFEFE;fill-rule:nonzero}
   ]]>
  </style>
 </defs>
 <g id="Layer_x0020_1">
  <metadata id="CorelCorpID_0Corel-Layer"/>
  <g id="_1191029648">
   <g id="_1125059072">
    <g id="Page-1">
     <g id="_020---USB">
      <path id="Shape" class="fil0" d="M6312.92 20349.62c-1237.38,3.39 -2424.67,-488.45 -3297.18,-1365.87 -874.54,-874.45 -1365.87,-2060.5 -1365.87,-3297.23 0,-1236.72 491.33,-2422.79 1365.87,-3297.23l6509.03 -6509.01c369.22,-352.56 950.34,-352.63 1319.65,-0.15l5274.94 5275.09c363.76,364.61 363.76,954.87 0,1319.5l-6509.02 6509.02c-872.59,877.43 -2059.97,1369.28 -3297.42,1365.9l0 -0.02zm3871.65 -14120.01c-82.31,-0.19 -161.26,32.55 -219.28,90.94l-6509.08 6509.14c-757.68,757.66 -1183.36,1785.29 -1183.36,2856.81 0,1071.51 425.66,2099.14 1183.36,2856.8 757.69,757.71 1785.36,1183.4 2856.92,1183.4 1071.55,0 2099.21,-425.69 2856.91,-1183.4l6509.02 -6509.02c121.02,-121.2 121.02,-317.52 0,-438.72l-5274.89 -5275.01c-58.14,-58.39 -137.19,-91.12 -219.6,-90.94z"/>
      <path id="Shape_0" class="fil0" d="M16558.67 10587.76c-125.96,-0.01 -239.51,-75.89 -287.7,-192.27 -48.2,-116.38 -21.55,-250.32 67.52,-339.39l3296.83 -3296.83c55.53,-58.2 83.73,-137.24 77.55,-217.45 -5.97,-100.46 -49.37,-195.03 -121.65,-265.06l-3868.31 -3868.63c-123.17,-141.61 -336.09,-160.92 -482.74,-43.78l-3296.77 3296.83c-78.26,80.68 -193.9,112.93 -302.63,84.39 -108.71,-28.54 -193.61,-113.43 -222.15,-222.14 -28.54,-108.71 3.7,-224.36 84.38,-302.62l3296.83 -3297.03c389.07,-363.28 998.63,-343.62 1363.47,43.98l3868.32 3868.43c181.93,179.53 290.18,420.58 303.52,675.82 15.44,255.67 -78.94,505.79 -259.42,687.53l-3296.86 3296.96c-58.34,58.5 -137.57,91.34 -220.18,91.25l-0.01 0.01z"/>
      <path id="Shape_1" class="fil0" d="M15459.51 11247.11c-82.61,0.1 -161.86,-32.74 -220.18,-91.24l-4395.7 -4395.86c-118.47,-122.13 -116.98,-316.74 3.34,-437.06 120.32,-120.31 314.92,-121.78 437.05,-3.31l4395.67 4395.84c89.07,89.07 115.72,223 67.52,339.37 -48.2,116.38 -161.75,192.26 -287.7,192.28l0 -0.02z"/>
      <path id="Shape_2" class="fil0" d="M15899.29 11686.74c-82.6,0 -161.8,-32.82 -220.18,-91.25l-5274.94 -5274.94c-121.58,-121.62 -121.58,-318.75 0,-440.37l658.75 -659.08c243.49,-242.57 637.28,-242.57 880.77,0l4834.58 4834.57c242.99,243.38 242.99,637.56 0,880.94l-658.79 658.9c-58.37,58.43 -137.59,91.26 -220.18,91.24l-0.01 -0.01zm-4834.55 -5586.38l4834.55 4834.55 438.56 -438.71 -4834.55 -4834.71 -438.56 438.87z"/>
      <path id="Shape_3" class="fil0" d="M15459.51 5403.59c-165.29,0.44 -323.88,-65.27 -440.4,-182.51l-438.41 -438.71c-242.99,-243.32 -242.99,-637.46 0,-880.77l438.56 -438.72c116.54,-117.21 275.12,-182.91 440.4,-182.47l0.62 -0.01c165.23,-0.39 323.73,65.45 440.06,182.78l438.41 438.42c243.01,243.31 243.01,637.47 0,880.77l-438.84 438.71c-116.3,117.18 -274.68,182.91 -439.78,182.51l-0.62 0zm0 -622.88l0.32 0.32 438.56 -439.13 -438.88 -438.63 -438.56 438.71 438.56 438.73z"/>
      <path id="Shape_4" class="fil0" d="M17657.5 7601.11c-165.12,0.28 -323.56,-65.16 -440.37,-181.87l-438.88 -438.88c-242.33,-243.44 -242.47,-636.89 -0.32,-880.49l439.13 -439.13c243.32,-243.01 637.48,-243.01 880.77,0l438.89 438.71c116.83,116.81 182.46,275.26 182.46,440.47 0,165.21 -65.63,323.65 -182.46,440.47l-438.82 438.71c-116.76,116.8 -275.24,182.29 -440.4,182l0 0.01zm0 -622.56l0.32 0.32 438.57 -439.13 -438.89 -438.63 -438.93 438.71 438.93 438.73z"/>
      <path id="Shape_5" class="fil0" d="M5379.51 18816.92c-568.09,-37.74 -1099.83,-292.82 -1484.8,-712.29 -739.66,-739.66 -932.47,-1705.46 -439.48,-2198.74 492.38,-492.84 1458.93,-300.47 2198.89,439.65 739.66,739.66 932.5,1705.43 439.5,2198.74l0 0.15c-191.58,183.36 -449.08,281.62 -714.12,272.47l0.01 0.02zm-1209.86 -2562.18c-99.86,-6.85 -198.37,26.05 -274.06,91.53 -207.1,207.27 -63.26,815.1 439.5,1317.97 502.76,502.87 1110.7,646.45 1318.12,439.66 207.1,-207.45 63.26,-815.1 -439.47,-1318 -270.65,-299.72 -642.48,-488.87 -1044.09,-531.15l0 -0.01z"/>
      <path id="Shape_6" class="fil0" d="M6887.74 16044.42c-444.88,-0.28 -827.61,-314.75 -914.15,-751.13 -86.54,-436.39 147.22,-873.12 558.32,-1043.14 411.1,-170.03 885.06,-25.98 1132.04,344.05 246.98,370.02 198.18,862.99 -116.54,1177.4l0 0.16c-174.91,174.94 -412.28,273.05 -659.66,272.66l-0.01 0zm0 -1242.63c-140.37,0 -263.21,94.29 -299.55,229.87 -36.33,135.58 22.93,278.65 144.48,348.85 121.55,70.19 275.09,49.98 374.35,-49.26l0 -0.15c88.78,-88.67 115.36,-222.1 67.34,-338.02 -48.01,-115.93 -161.15,-191.49 -286.62,-191.42l0 0.13z"/>
      <path id="Shape_7" class="fil0" d="M8645.96 11648.71c-445,-0.29 -827.83,-314.86 -914.39,-751.34 -86.56,-436.5 147.25,-873.37 558.46,-1043.45 411.21,-170.08 885.31,-26.03 1132.37,344.09 247.07,370.11 198.3,863.19 -116.47,1177.73 -174.94,175.14 -412.43,273.38 -659.97,272.97zm0.27 -1242.99c-148.01,0 -275.41,104.56 -304.26,249.73 -28.86,145.16 48.84,290.5 185.59,347.11 136.76,56.61 294.46,8.75 376.66,-114.34 82.2,-123.08 65.99,-287.09 -38.71,-391.72 -58.11,-58.21 -137.02,-90.89 -219.28,-90.78z"/>
      <path id="Shape_8" class="fil0" d="M11942.83 13626.83c-444.99,-0.29 -827.83,-314.86 -914.38,-751.36 -86.55,-436.49 147.25,-873.36 558.46,-1043.44 411.21,-170.08 885.31,-26.03 1132.37,344.09 247.06,370.11 198.3,863.2 -116.48,1177.74 -174.92,175.16 -412.42,273.4 -659.97,272.97zm0.25 -1243.03c-148.01,0 -275.41,104.56 -304.27,249.73 -28.85,145.16 48.85,290.5 185.6,347.12 136.75,56.61 294.46,8.75 376.66,-114.35 82.2,-123.08 65.99,-287.09 -38.71,-391.72 -58.11,-58.21 -137.03,-90.87 -219.28,-90.75l0 -0.03z"/>
      <path id="Shape_9" class="fil0" d="M7327.37 14983.57c-125.94,-0.03 -239.48,-75.91 -287.68,-192.26 -48.19,-116.35 -21.56,-250.29 67.48,-339.36l4327.69 -4327.71 -90.01 17.94c-109.77,23.53 -223.72,-13.85 -298.24,-97.83 -74.51,-83.98 -98.05,-201.57 -61.61,-307.77 36.43,-106.2 127.2,-184.56 237.58,-205.1l1098.84 -219.91c134.56,-26.88 270.86,37.45 335.61,158.43 64.75,120.97 42.7,270.07 -54.3,367.12l-5055.35 5055.22c-58.29,58.46 -137.47,91.29 -220.03,91.22l0.02 0.01z"/>
      <path id="Shape_10" class="fil0" d="M12162.96 11027.36c-20.63,-0.07 -41.21,-2.15 -61.41,-6.23 -168.65,-33.77 -277.99,-197.84 -244.23,-366.5l219.88 -1098.99c35.09,-167.23 198.38,-274.95 365.94,-241.4 167.55,33.54 276.77,195.81 244.79,363.67l-219.91 1098.99c-29.05,145.49 -156.7,250.28 -305.05,250.45l-0.01 0.01z"/>
      <path id="Shape_11" class="fil0" d="M8426.73 13884.58c-118.08,0.14 -226.07,-66.53 -278.89,-172.13l-879.33 -1758.22c-59.94,-119.91 -36.42,-264.72 58.39,-359.5l659.38 -659.36c78.25,-80.68 193.9,-112.93 302.62,-84.39 108.71,28.54 193.61,113.42 222.15,222.12 28.54,108.71 -3.7,224.36 -84.38,302.63l-500.63 500.64 778.9 1557.45c48.26,96.51 43.13,211.11 -13.55,302.9 -56.68,91.82 -156.83,147.74 -264.73,147.83l0.07 0.03z"/>
      <path id="Shape_12" class="fil0" d="M10843.95 14104.48c-48.35,-0.01 -96.05,-11.27 -139.31,-32.85l-1758.21 -879.26c-153.86,-76.92 -216.23,-264.01 -139.31,-417.88 76.93,-153.86 264.02,-216.24 417.89,-139.31l1557.49 778.9 500.6 -500.63c122.05,-119 317.09,-117.76 437.62,2.77 120.53,120.53 121.78,315.58 2.78,437.63l-659.38 659.37c-58.42,58.38 -137.59,91.21 -220.17,91.25l0 0.01z"/>
     </g>
    </g>
   </g>
  </g>
 </g>
</svg>
