<?xml version="1.0" encoding="UTF-8"?>
<!DOCTYPE svg PUBLIC "-//W3C//DTD SVG 1.1//EN" "http://www.w3.org/Graphics/SVG/1.1/DTD/svg11.dtd">
<!-- Creator: CorelDRAW 2019 (64-Bit) -->
<svg xmlns="http://www.w3.org/2000/svg" xml:space="preserve" width="1.33333in" height="1.33333in" version="1.1" style="shape-rendering:geometricPrecision; text-rendering:geometricPrecision; image-rendering:optimizeQuality; fill-rule:evenodd; clip-rule:evenodd"
viewBox="0 0 1333.33 1333.33"
 xmlns:xlink="http://www.w3.org/1999/xlink"
 xmlns:xodm="http://www.corel.com/coreldraw/odm/2003">
 <defs>
  <style type="text/css">
   <![CDATA[
    .fil0 {fill:none}
    .fil1 {fill:#FEFEFE;fill-rule:nonzero;fill-opacity:0.529412}
   ]]>
  </style>
 </defs>
 <g id="Layer_x0020_1">
  <metadata id="CorelCorpID_0Corel-Layer"/>
  <rect class="fil0" width="1333.33" height="1333.33"/>
  <g id="_939431968">
   <polygon class="fil1" points="743.41,920.85 743.41,3.66 1000.45,3.66 1000.45,797.24 1333.33,797.24 1333.33,920.85 "/>
   <path class="fil1" d="M-0 920.85l0 -917.19 366.59 0c117.52,0 208.58,25.75 273.43,77.48 64.84,51.74 97.38,124.31 97.38,217.71 0,76.31 -25.98,137.18 -77.72,182.13 -51.97,45.18 -121.96,67.65 -209.98,67.65l-199.69 0 0 372.21 -250.01 0zm250.01 -803.42l0 317.43 57.59 0c61.33,0 106.51,-11.7 135.78,-35.11 29.26,-23.18 44.01,-59.46 44.01,-108.39 0,-51.97 -17.09,-93.87 -51.03,-125.94 -34.18,-32.07 -78.89,-47.99 -134.14,-47.99l-52.2 0z"/>
  </g>
 </g>
</svg>
