<?xml version="1.0" encoding="UTF-8" standalone="no"?>
<svg
   xmlns:dc="http://purl.org/dc/elements/1.1/"
   xmlns:cc="http://creativecommons.org/ns#"
   xmlns:rdf="http://www.w3.org/1999/02/22-rdf-syntax-ns#"
   xmlns:svg="http://www.w3.org/2000/svg"
   xmlns="http://www.w3.org/2000/svg"
   xmlns:sodipodi="http://sodipodi.sourceforge.net/DTD/sodipodi-0.dtd"
   xmlns:inkscape="http://www.inkscape.org/namespaces/inkscape"
   id="svg8"
   version="1.1"
   viewBox="0 0 95.456703 10.61434"
   height="10.61434mm"
   width="95.456703mm"
   sodipodi:docname="portfolio.svg"
   inkscape:version="0.92.3 (2405546, 2018-03-11)">
  <sodipodi:namedview
     pagecolor="#ffffff"
     bordercolor="#666666"
     borderopacity="1"
     objecttolerance="10"
     gridtolerance="10"
     guidetolerance="10"
     inkscape:pageopacity="0"
     inkscape:pageshadow="2"
     inkscape:window-width="1920"
     inkscape:window-height="1015"
     id="namedview276"
     showgrid="false"
     inkscape:zoom="4.9960692"
     inkscape:cx="35.817632"
     inkscape:cy="7.8147561"
     inkscape:window-x="0"
     inkscape:window-y="0"
     inkscape:window-maximized="1"
     inkscape:current-layer="layer1" />
  <defs
     id="defs2">
    <clipPath
       clipPathUnits="userSpaceOnUse"
       id="clipPath20">
      <path
         d="M 2880,0 H 0 V 2880 H 2880 V 0 M 857.059,468.371 835.051,466.18 v -30.149 l 314.979,31.301 1128.35,-4.004 32.55,119.363 136.29,13.539 86.88,547.66 -68.87,4.58 33.15,121.53 -929.08,-62.03 -311.75,20.71 v -30.07 l 86,-5.71 -1041.831,-69.55 96.66,-653.35 458.68,-1.629 m 0,1146.659 -22.008,-2.18 v -30.15 l 314.979,31.3 1128.35,-4 32.55,119.35 136.29,13.55 86.88,547.66 -68.87,4.57 33.15,121.53 -929.08,-62.02 -311.75,20.7 v -30.06 l 86,-5.71 -1041.831,-69.55 96.66,-653.36 458.68,-1.63 M 2319.38,613.68 l 137.8,505.26 42.15,-2.8 -78.12,-492.339 -101.83,-10.121 m 0,1146.67 137.8,505.25 42.15,-2.8 -78.12,-492.34 -101.83,-10.11"
         id="path18" />
    </clipPath>
    <linearGradient
       x1="0"
       y1="0"
       x2="1"
       y2="0"
       gradientUnits="userSpaceOnUse"
       gradientTransform="matrix(-3600.85,-3600.85,-3600.85,3600.85,3649.2,3649.18)"
       spreadMethod="pad"
       id="linearGradient26">
      <stop
         style="stop-opacity:1;stop-color:#ffffff"
         offset="0"
         id="stop22" />
      <stop
         style="stop-opacity:1;stop-color:#f6f8f9"
         offset="1"
         id="stop24" />
    </linearGradient>
    <clipPath
       clipPathUnits="userSpaceOnUse"
       id="clipPath38">
      <path
         d="m 2278.38,1610 -1128.35,4 1160.9,115.35 -32.55,-119.35 m -1421.321,5.03 -458.68,1.63 -96.66,653.36 1041.831,69.55 1113.63,-73.97 -137.8,-505.25 -1462.321,-145.32 m 1608.171,680.1 -895.93,59.51 929.08,62.02 -33.15,-121.53"
         id="path36" />
    </clipPath>
    <linearGradient
       x1="0"
       y1="0"
       x2="1"
       y2="0"
       gradientUnits="userSpaceOnUse"
       gradientTransform="matrix(-3600.85,-3600.85,-3600.85,3600.85,3649.2,3649.18)"
       spreadMethod="pad"
       id="linearGradient44">
      <stop
         style="stop-opacity:1;stop-color:#f9da08"
         offset="0"
         id="stop40" />
      <stop
         style="stop-opacity:1;stop-color:#f9d908"
         offset="1"
         id="stop42" />
    </linearGradient>
    <clipPath
       clipPathUnits="userSpaceOnUse"
       id="clipPath104">
      <path
         d="m 2278.38,463.328 -1128.35,4.004 1160.9,115.359 -32.55,-119.363 M 857.059,468.371 398.379,470 301.719,1123.35 1343.55,1192.9 2457.18,1118.94 2319.38,613.68 857.059,468.371 m 1608.171,680.099 -895.93,59.5 929.08,62.03 -33.15,-121.53"
         id="path102" />
    </clipPath>
    <linearGradient
       x1="0"
       y1="0"
       x2="1"
       y2="0"
       gradientUnits="userSpaceOnUse"
       gradientTransform="matrix(-3600.85,-3600.85,-3600.85,3600.85,3649.2,3649.18)"
       spreadMethod="pad"
       id="linearGradient110">
      <stop
         style="stop-opacity:1;stop-color:#5cc7a0"
         offset="0"
         id="stop106" />
      <stop
         style="stop-opacity:1;stop-color:#5cc79f"
         offset="1"
         id="stop108" />
    </linearGradient>
    <clipPath
       id="clipPath1050"
       clipPathUnits="userSpaceOnUse">
      <path
         style="clip-rule:evenodd"
         id="path1048"
         d="m 118.2634,472.4889 628.06,5.1804 V 315.2279 l -628.06,-5.1803 z" />
    </clipPath>
    <clipPath
       id="clipPath1060"
       clipPathUnits="userSpaceOnUse">
      <path
         style="clip-rule:evenodd"
         id="path1058"
         d="m 118.2634,310.0476 h 628.06 v 167.6217 h -628.06 z" />
    </clipPath>
    <clipPath
       id="clipPath1398"
       clipPathUnits="userSpaceOnUse">
      <path
         style="clip-rule:evenodd"
         id="path1396"
         d="m 118.2634,472.4889 628.06,5.1804 V 315.2279 l -628.06,-5.1803 z" />
    </clipPath>
    <clipPath
       id="clipPath1408"
       clipPathUnits="userSpaceOnUse">
      <path
         style="clip-rule:evenodd"
         id="path1406"
         d="m 118.2634,310.0476 h 628.06 v 167.6217 h -628.06 z" />
    </clipPath>
  </defs>
  <metadata
     id="metadata5">
    <rdf:RDF>
      <cc:Work
         rdf:about="">
        <dc:format>image/svg+xml</dc:format>
        <dc:type
           rdf:resource="http://purl.org/dc/dcmitype/StillImage" />
        <dc:title />
      </cc:Work>
    </rdf:RDF>
  </metadata>
  <g
     transform="translate(21.712293,-146.42318)"
     id="layer1">
    <g
       id="flowRoot180"
       style="font-style:normal;font-variant:normal;font-weight:500;font-stretch:normal;font-size:40px;line-height:1.25;font-family:'HK Nova';-inkscape-font-specification:'HK Nova, Medium';font-variant-ligatures:normal;font-variant-caps:normal;font-variant-numeric:normal;font-feature-settings:normal;text-align:start;letter-spacing:0px;word-spacing:0px;writing-mode:lr-tb;text-anchor:start;fill:#000000;fill-opacity:1;stroke:none"
       transform="matrix(0.26458333,0,0,0.26458333,28.833458,101.70291)"
       aria-label="ostatnie realizacje">
      <path
         id="path188"
         style="fill:#ffffff;fill-opacity:1"
         d="m -179.98437,199.80273 c 6.21093,0 11.05468,-4.64843 11.05468,-10.74218 0,-6.07422 -4.84375,-10.72266 -11.05468,-10.72266 -6.21094,0 -11.05469,4.64844 -11.05469,10.72266 0,6.09375 4.84375,10.74218 11.05469,10.74218 z m -0.0195,-3.90625 c -3.78906,0 -6.8164,-2.92968 -6.8164,-6.83593 0,-3.86719 3.02734,-6.81641 6.8164,-6.81641 3.78907,0 6.83594,2.96875 6.83594,6.81641 0,3.86718 -3.04687,6.83593 -6.83594,6.83593 z" />
      <path
         id="path190"
         style="fill:#ffffff;fill-opacity:1"
         d="m -157.93359,199.80273 c 4.51172,0 7.7539,-2.26562 7.7539,-6.5039 0,-4.1211 -3.14453,-5.33203 -6.01562,-6.21094 -2.5,-0.76172 -4.84375,-1.26953 -4.84375,-3.04687 0,-1.44532 1.30859,-2.2461 3.16406,-2.2461 1.52344,0 3.4375,0.56641 5.01953,1.71875 l 2.14844,-3.0664 c -1.99219,-1.34766 -4.47266,-2.10938 -6.95313,-2.10938 -4.02343,0 -7.53906,2.03125 -7.53906,6.11328 0,4.0625 3.37891,5.11719 6.32813,6.03516 2.36328,0.72265 4.41406,1.28906 4.41406,3.14453 0,1.66016 -1.38672,2.57812 -3.45703,2.57812 -2.20703,0 -4.64844,-1.09375 -6.19141,-2.42187 l -2.08984,3.32031 c 1.97265,1.44531 4.86328,2.69531 8.26172,2.69531 z" />
      <path
         id="path192"
         style="fill:#ffffff;fill-opacity:1"
         d="m -135.14062,182.06836 v -3.33984 h -5.09766 v -5.72266 h -4.35547 v 5.72266 h -3.37891 v 3.33984 h 3.37891 v 11.28906 c 0,3.92578 2.5,6.05469 6.28906,6.05469 h 3.125 v -3.49609 h -2.24609 c -1.66016,0 -2.8125,-1.05469 -2.8125,-3.06641 v -10.78125 z" />
      <path
         id="path194"
         style="fill:#ffffff;fill-opacity:1"
         d="m -122.19141,199.80273 c 3.28125,0 5.82032,-1.32812 7.46094,-3.39843 v 3.00781 h 4.35547 v -20.68359 h -4.33594 v 3.00781 c -1.66015,-2.08985 -4.19922,-3.39844 -7.48047,-3.39844 -5.50781,0 -10.21484,4.62891 -10.21484,10.70313 0,6.09375 4.70703,10.76171 10.21484,10.76171 z m 0.95703,-3.86718 c -3.78906,0 -6.83593,-2.94922 -6.83593,-6.89453 0,-3.92579 3.04687,-6.85547 6.83593,-6.85547 3.8086,0 6.79688,2.92968 6.79688,6.85547 0,3.94531 -2.98828,6.89453 -6.79688,6.89453 z" />
      <path
         id="path196"
         style="fill:#ffffff;fill-opacity:1"
         d="m -93.578125,182.06836 v -3.33984 h -5.097656 v -5.72266 h -4.355469 v 5.72266 h -3.37891 v 3.33984 h 3.37891 v 11.28906 c 0,3.92578 2.5,6.05469 6.289063,6.05469 h 3.125 v -3.49609 h -2.246094 c -1.660156,0 -2.8125,-1.05469 -2.8125,-3.06641 v -10.78125 z" />
      <path
         id="path198"
         style="fill:#ffffff;fill-opacity:1"
         d="m -78.246094,178.33789 c -2.734375,0 -4.882812,1.23047 -6.210937,3.33984 v -2.94921 H -88.8125 v 20.68359 h 4.355469 V 187.5957 c 0.01953,-3.67187 2.148437,-5.48828 4.941406,-5.48828 2.675781,0 4.628906,1.34766 4.628906,5.35156 v 11.95313 h 4.355469 v -12.57813 c 0,-5.64453 -3.203125,-8.49609 -7.714844,-8.49609 z" />
      <path
         id="path200"
         style="fill:#ffffff;fill-opacity:1"
         d="m -62.308594,174.43164 c 1.464844,0 2.714844,-1.21094 2.714844,-2.69531 0,-1.54297 -1.25,-2.71485 -2.714844,-2.71485 -1.484375,0 -2.734375,1.17188 -2.734375,2.71485 0,1.48437 1.25,2.69531 2.734375,2.69531 z m -2.207031,24.98047 h 4.335938 v -20.68359 h -4.335938 z" />
      <path
         id="path202"
         style="fill:#ffffff;fill-opacity:1"
         d="m -33.851562,188.82617 c -0.136719,-6.13281 -4.765625,-10.50781 -10.683594,-10.50781 -6.191406,0 -10.878906,4.78516 -10.878906,10.74219 0,5.97656 4.609375,10.74218 10.976562,10.74218 4.160156,0 7.578125,-2.03125 9.355469,-5.33203 l -3.535156,-1.5039 c -1.269532,2.05078 -3.4375,3.20312 -5.839844,3.20312 -3.59375,0 -6.5625,-2.63672 -6.757813,-6.48437 h 17.324219 z m -10.664063,-7.05078 c 3.105469,0 5.566406,1.93359 6.191406,4.94141 h -12.636718 c 0.800781,-2.98828 3.28125,-4.94141 6.445312,-4.94141 z" />
      <path
         id="path204"
         style="fill:#4da6dd;fill-opacity:0.92156863"
         d="m -13.558594,182.40039 v -3.67187 h -4.238281 v 20.68359 h 4.355469 v -10.60547 c 0,-4.57031 2.832031,-6.11328 7.050781,-6.11328 v -4.16016 c -3.4765625,0.0977 -5.957031,1.81641 -7.167969,3.86719 z" />
      <path
         id="path206"
         style="fill:#4da6dd;fill-opacity:0.92156863"
         d="m 17.007812,188.82617 c -0.136718,-6.13281 -4.765624,-10.50781 -10.6835933,-10.50781 -6.1914062,0 -10.8789062,4.78516 -10.8789062,10.74219 0,5.97656 4.609375,10.74218 10.9765625,10.74218 4.160156,0 7.578125,-2.03125 9.355469,-5.33203 l -3.535156,-1.5039 c -1.269532,2.05078 -3.4375005,3.20312 -5.8398443,3.20312 -3.5937499,0 -6.56249995,-2.63672 -6.75781245,-6.48437 H 16.96875 Z M 6.34375,181.77539 c 3.1054688,0 5.566406,1.93359 6.191406,4.94141 H -0.1015625 c 0.80078125,-2.98828 3.28125,-4.94141 6.4453125,-4.94141 z" />
      <path
         id="path208"
         style="fill:#4da6dd;fill-opacity:0.92156863"
         d="m 30.074219,199.80273 c 3.28125,0 5.820312,-1.32812 7.460937,-3.39843 v 3.00781 h 4.355469 v -20.68359 h -4.335938 v 3.00781 c -1.660156,-2.08985 -4.199218,-3.39844 -7.480468,-3.39844 -5.507813,0 -10.214844,4.62891 -10.214844,10.70313 0,6.09375 4.707031,10.76171 10.214844,10.76171 z m 0.957031,-3.86718 c -3.789063,0 -6.835938,-2.94922 -6.835938,-6.89453 0,-3.92579 3.046875,-6.85547 6.835938,-6.85547 3.808594,0 6.796875,2.92968 6.796875,6.85547 0,3.94531 -2.988281,6.89453 -6.796875,6.89453 z" />
      <path
         id="path210"
         style="fill:#4da6dd;fill-opacity:0.92156863"
         d="m 48.453125,199.41211 h 4.355469 v -30 h -4.355469 z" />
      <path
         id="path212"
         style="fill:#4da6dd;fill-opacity:0.92156863"
         d="m 61.519531,174.43164 c 1.464844,0 2.714844,-1.21094 2.714844,-2.69531 0,-1.54297 -1.25,-2.71485 -2.714844,-2.71485 -1.484375,0 -2.734375,1.17188 -2.734375,2.71485 0,1.48437 1.25,2.69531 2.734375,2.69531 z M 59.3125,199.41211 h 4.335937 V 178.72852 H 59.3125 Z" />
      <path
         id="path214"
         style="fill:#4da6dd;fill-opacity:0.92156863"
         d="M 86.128906,178.72852 H 68.589844 v 3.63281 H 79 l -11.191406,17.05078 h 18.203125 v -3.63281 h -11.09375 z" />
      <path
         id="path216"
         style="fill:#4da6dd;fill-opacity:0.92156863"
         d="m 98.277344,199.80273 c 3.281246,0 5.820316,-1.32812 7.460936,-3.39843 v 3.00781 h 4.35547 v -20.68359 h -4.33594 v 3.00781 c -1.66015,-2.08985 -4.19922,-3.39844 -7.480466,-3.39844 -5.507813,0 -10.214844,4.62891 -10.214844,10.70313 0,6.09375 4.707031,10.76171 10.214844,10.76171 z m 0.957031,-3.86718 c -3.789063,0 -6.835938,-2.94922 -6.835938,-6.89453 0,-3.92579 3.046875,-6.85547 6.835938,-6.85547 3.808595,0 6.796875,2.92968 6.796875,6.85547 0,3.94531 -2.98828,6.89453 -6.796875,6.89453 z" />
      <path
         id="path218"
         style="fill:#4da6dd;fill-opacity:0.92156863"
         d="m 125.95313,199.76367 c 3.65234,0 6.85546,-1.64062 8.84765,-4.21875 l -3.26172,-2.61719 c -1.21094,1.81641 -3.20312,2.94922 -5.60547,2.94922 -3.84765,0 -6.8164,-2.91015 -6.8164,-6.8164 0,-3.92578 2.96875,-6.81641 6.8164,-6.81641 2.40235,0 4.39453,1.11328 5.60547,2.92969 l 3.26172,-2.61719 c -1.99219,-2.57812 -5.19531,-4.21875 -8.84765,-4.21875 -6.21094,0 -11.05469,4.62891 -11.05469,10.72266 0,6.07422 4.84375,10.70312 11.05469,10.70312 z" />
      <path
         id="path220"
         style="fill:#4da6dd;fill-opacity:0.92156863"
         d="m 141.20703,174.43164 c 1.46484,0 2.71484,-1.21094 2.71484,-2.69531 0,-1.54297 -1.25,-2.71485 -2.71484,-2.71485 -1.48437,0 -2.73437,1.17188 -2.73437,2.71485 0,1.48437 1.25,2.69531 2.73437,2.69531 z m -8.55469,34.70703 c 6.85547,0 10.70313,-4.16015 10.70313,-10.33203 V 178.72852 H 139 v 20.33203 c 0,3.80859 -2.12891,6.30859 -6.34766,6.30859 z" />
      <path
         id="path222"
         style="fill:#4da6dd;fill-opacity:0.92156863"
         d="m 169.74219,188.82617 c -0.13672,-6.13281 -4.76563,-10.50781 -10.6836,-10.50781 -6.1914,0 -10.8789,4.78516 -10.8789,10.74219 0,5.97656 4.60937,10.74218 10.97656,10.74218 4.16016,0 7.57812,-2.03125 9.35547,-5.33203 l -3.53516,-1.5039 c -1.26953,2.05078 -3.4375,3.20312 -5.83984,3.20312 -3.59375,0 -6.5625,-2.63672 -6.75781,-6.48437 h 17.32421 z m -10.66407,-7.05078 c 3.10547,0 5.56641,1.93359 6.19141,4.94141 h -12.63672 c 0.80078,-2.98828 3.28125,-4.94141 6.44531,-4.94141 z" />
    </g>
  </g>
</svg>
