<?xml version="1.0" encoding="UTF-8"?>
<!DOCTYPE svg PUBLIC "-//W3C//DTD SVG 1.1//EN" "http://www.w3.org/Graphics/SVG/1.1/DTD/svg11.dtd">
<!-- Creator: CorelDRAW 2019 (64-Bit) -->
<svg xmlns="http://www.w3.org/2000/svg" xml:space="preserve" width="220mm" height="220mm" version="1.1" style="shape-rendering:geometricPrecision; text-rendering:geometricPrecision; image-rendering:optimizeQuality; fill-rule:evenodd; clip-rule:evenodd"
viewBox="0 0 22000 22000"
 xmlns:xlink="http://www.w3.org/1999/xlink"
 enable-background="new 0 0 64 64"
 xmlns:xodm="http://www.corel.com/coreldraw/odm/2003">
 <defs>
  <style type="text/css">
   <![CDATA[
    .fil0 {fill:#FEFEFE;fill-rule:nonzero}
   ]]>
  </style>
 </defs>
 <g id="Layer_x0020_1">
  <metadata id="CorelCorpID_0Corel-Layer"/>
  <g id="_1191039152">
   <g id="_1130790016">
    <g>
     <path class="fil0" d="M17993.33 11706.67c964.95,0 1750,-785.05 1750,-1750 0,-964.95 -785.05,-1750 -1750,-1750 -964.95,0 -1750,785.05 -1750,1750 0,964.95 785.05,1750 1750,1750zm0 -2800c578.9,0 1050,471.1 1050,1050 0,578.9 -471.1,1050 -1050,1050 -578.9,0 -1050,-471.1 -1050,-1050 0,-578.9 471.1,-1050 1050,-1050z"/>
     <path class="fil0" d="M15193.33 15556.67l-8400 0c-193.55,0 -350,156.45 -350,350 0,193.55 156.45,350 350,350l8400 0c193.55,0 350,-156.45 350,-350 0,-193.55 -156.45,-350 -350,-350z"/>
     <path class="fil0" d="M15193.33 17306.67l-8400 0c-193.55,0 -350,156.45 -350,350 0,193.55 156.45,350 350,350l8400 0c193.55,0 350,-156.45 350,-350 0,-193.55 -156.45,-350 -350,-350z"/>
     <path class="fil0" d="M18343.33 6456.67l0 -5950 -14700 0 0 5950 -3150 0 0 11900 2100 0 0 1050 1050 0 0 2100 14700 0 0 -2100 1050 0 0 -1050 2100 0 0 -11900 -3150 0zm-14000 -5250l13300 0 0 5250 -13300 0 0 -5250zm-700 5950l14700 0 2450 0 0 5600 -19600 0 0 -5600 2450 0zm-350 11550l0 -700 0 -350 0 -1400c0,-193.55 -156.45,-350 -350,-350 -193.55,0 -350,156.45 -350,350l0 1400 -1400 0 0 -4200 2450 0 0 5250 -350 0zm14350 2100l-13300 0 0 -1400 0 -5950 13300 0 0 5950 0 1400zm1750 -3150l0 -1400c0,-193.55 -156.45,-350 -350,-350 -193.55,0 -350,156.45 -350,350l0 1400 0 350 0 700 -350 0 0 -5250 2450 0 0 4200 -1400 0z"/>
    </g>
    <g>
    </g>
    <g>
    </g>
    <g>
    </g>
    <g>
    </g>
    <g>
    </g>
    <g>
    </g>
    <g>
    </g>
    <g>
    </g>
    <g>
    </g>
    <g>
    </g>
    <g>
    </g>
    <g>
    </g>
    <g>
    </g>
    <g>
    </g>
    <g>
    </g>
   </g>
  </g>
 </g>
</svg>
