<?xml version="1.0" encoding="UTF-8" standalone="no"?>
<svg
   xmlns:dc="http://purl.org/dc/elements/1.1/"
   xmlns:cc="http://creativecommons.org/ns#"
   xmlns:rdf="http://www.w3.org/1999/02/22-rdf-syntax-ns#"
   xmlns:svg="http://www.w3.org/2000/svg"
   xmlns="http://www.w3.org/2000/svg"
   xmlns:sodipodi="http://sodipodi.sourceforge.net/DTD/sodipodi-0.dtd"
   xmlns:inkscape="http://www.inkscape.org/namespaces/inkscape"
   id="svg8"
   version="1.1"
   viewBox="0 0 59.458904 10.583333"
   height="10.583333mm"
   width="59.458904mm"
   sodipodi:docname="team.svg"
   inkscape:version="0.92.3 (2405546, 2018-03-11)">
  <sodipodi:namedview
     pagecolor="#ffffff"
     bordercolor="#666666"
     borderopacity="1"
     objecttolerance="10"
     gridtolerance="10"
     guidetolerance="10"
     inkscape:pageopacity="0"
     inkscape:pageshadow="2"
     inkscape:window-width="1920"
     inkscape:window-height="1015"
     id="namedview142"
     showgrid="false"
     inkscape:zoom="6.0517989"
     inkscape:cx="75.100211"
     inkscape:cy="19.999999"
     inkscape:window-x="0"
     inkscape:window-y="0"
     inkscape:window-maximized="1"
     inkscape:current-layer="svg8" />
  <defs
     id="defs2">
    <clipPath
       clipPathUnits="userSpaceOnUse"
       id="clipPath20">
      <path
         d="M 2880,0 H 0 V 2880 H 2880 V 0 M 857.059,468.371 835.051,466.18 v -30.149 l 314.979,31.301 1128.35,-4.004 32.55,119.363 136.29,13.539 86.88,547.66 -68.87,4.58 33.15,121.53 -929.08,-62.03 -311.75,20.71 v -30.07 l 86,-5.71 -1041.831,-69.55 96.66,-653.35 458.68,-1.629 m 0,1146.659 -22.008,-2.18 v -30.15 l 314.979,31.3 1128.35,-4 32.55,119.35 136.29,13.55 86.88,547.66 -68.87,4.57 33.15,121.53 -929.08,-62.02 -311.75,20.7 v -30.06 l 86,-5.71 -1041.831,-69.55 96.66,-653.36 458.68,-1.63 M 2319.38,613.68 l 137.8,505.26 42.15,-2.8 -78.12,-492.339 -101.83,-10.121 m 0,1146.67 137.8,505.25 42.15,-2.8 -78.12,-492.34 -101.83,-10.11"
         id="path18" />
    </clipPath>
    <linearGradient
       x1="0"
       y1="0"
       x2="1"
       y2="0"
       gradientUnits="userSpaceOnUse"
       gradientTransform="matrix(-3600.85,-3600.85,-3600.85,3600.85,3649.2,3649.18)"
       spreadMethod="pad"
       id="linearGradient26">
      <stop
         style="stop-opacity:1;stop-color:#ffffff"
         offset="0"
         id="stop22" />
      <stop
         style="stop-opacity:1;stop-color:#f6f8f9"
         offset="1"
         id="stop24" />
    </linearGradient>
    <clipPath
       clipPathUnits="userSpaceOnUse"
       id="clipPath38">
      <path
         d="m 2278.38,1610 -1128.35,4 1160.9,115.35 -32.55,-119.35 m -1421.321,5.03 -458.68,1.63 -96.66,653.36 1041.831,69.55 1113.63,-73.97 -137.8,-505.25 -1462.321,-145.32 m 1608.171,680.1 -895.93,59.51 929.08,62.02 -33.15,-121.53"
         id="path36" />
    </clipPath>
    <linearGradient
       x1="0"
       y1="0"
       x2="1"
       y2="0"
       gradientUnits="userSpaceOnUse"
       gradientTransform="matrix(-3600.85,-3600.85,-3600.85,3600.85,3649.2,3649.18)"
       spreadMethod="pad"
       id="linearGradient44">
      <stop
         style="stop-opacity:1;stop-color:#f9da08"
         offset="0"
         id="stop40" />
      <stop
         style="stop-opacity:1;stop-color:#f9d908"
         offset="1"
         id="stop42" />
    </linearGradient>
    <clipPath
       clipPathUnits="userSpaceOnUse"
       id="clipPath104">
      <path
         d="m 2278.38,463.328 -1128.35,4.004 1160.9,115.359 -32.55,-119.363 M 857.059,468.371 398.379,470 301.719,1123.35 1343.55,1192.9 2457.18,1118.94 2319.38,613.68 857.059,468.371 m 1608.171,680.099 -895.93,59.5 929.08,62.03 -33.15,-121.53"
         id="path102" />
    </clipPath>
    <linearGradient
       x1="0"
       y1="0"
       x2="1"
       y2="0"
       gradientUnits="userSpaceOnUse"
       gradientTransform="matrix(-3600.85,-3600.85,-3600.85,3600.85,3649.2,3649.18)"
       spreadMethod="pad"
       id="linearGradient110">
      <stop
         style="stop-opacity:1;stop-color:#5cc7a0"
         offset="0"
         id="stop106" />
      <stop
         style="stop-opacity:1;stop-color:#5cc79f"
         offset="1"
         id="stop108" />
    </linearGradient>
    <clipPath
       id="clipPath1050"
       clipPathUnits="userSpaceOnUse">
      <path
         style="clip-rule:evenodd"
         id="path1048"
         d="m 118.2634,472.4889 628.06,5.1804 V 315.2279 l -628.06,-5.1803 z" />
    </clipPath>
    <clipPath
       id="clipPath1060"
       clipPathUnits="userSpaceOnUse">
      <path
         style="clip-rule:evenodd"
         id="path1058"
         d="m 118.2634,310.0476 h 628.06 v 167.6217 h -628.06 z" />
    </clipPath>
    <clipPath
       id="clipPath1398"
       clipPathUnits="userSpaceOnUse">
      <path
         style="clip-rule:evenodd"
         id="path1396"
         d="m 118.2634,472.4889 628.06,5.1804 V 315.2279 l -628.06,-5.1803 z" />
    </clipPath>
    <clipPath
       id="clipPath1408"
       clipPathUnits="userSpaceOnUse">
      <path
         style="clip-rule:evenodd"
         id="path1406"
         d="m 118.2634,310.0476 h 628.06 v 167.6217 h -628.06 z" />
    </clipPath>
  </defs>
  <metadata
     id="metadata5">
    <rdf:RDF>
      <cc:Work
         rdf:about="">
        <dc:format>image/svg+xml</dc:format>
        <dc:type
           rdf:resource="http://purl.org/dc/dcmitype/StillImage" />
        <dc:title />
      </cc:Work>
    </rdf:RDF>
  </metadata>
  <g
     transform="translate(-28.833458,-101.70291)"
     id="layer1">
    <g
       id="flowRoot10"
       style="font-style:normal;font-variant:normal;font-weight:500;font-stretch:normal;font-size:40px;line-height:1.25;font-family:'HK Nova';-inkscape-font-specification:'HK Nova, Medium';font-variant-ligatures:normal;font-variant-caps:normal;font-variant-numeric:normal;font-feature-settings:normal;text-align:start;letter-spacing:0px;word-spacing:0px;writing-mode:lr-tb;text-anchor:start;fill:#005585;fill-opacity:1;stroke:none"
       transform="matrix(0.26458333,0,0,0.26458333,110.36905,4.5357143)"
       aria-label="nasz zespół">
      <path
         id="path94"
         d="m -297.59961,376.44531 c -2.73437,0 -4.88281,1.23047 -6.21094,3.33985 v -2.94922 h -4.35547 v 20.68359 h 4.35547 v -11.81641 c 0.0195,-3.67187 2.14844,-5.48828 4.94141,-5.48828 2.67578,0 4.62891,1.34766 4.62891,5.35157 v 11.95312 h 4.35546 v -12.57812 c 0,-5.64454 -3.20312,-8.4961 -7.71484,-8.4961 z"
         style="fill:#ffffff" />
      <path
         id="path96"
         d="m -275.37305,397.91016 c 3.28125,0 5.82032,-1.32813 7.46094,-3.39844 v 3.00781 h 4.35547 v -20.68359 h -4.33594 v 3.00781 c -1.66015,-2.08984 -4.19922,-3.39844 -7.48047,-3.39844 -5.50781,0 -10.21484,4.62891 -10.21484,10.70313 0,6.09375 4.70703,10.76172 10.21484,10.76172 z m 0.95703,-3.86719 c -3.78906,0 -6.83593,-2.94922 -6.83593,-6.89453 0,-3.92578 3.04687,-6.85547 6.83593,-6.85547 3.8086,0 6.79688,2.92969 6.79688,6.85547 0,3.94531 -2.98828,6.89453 -6.79688,6.89453 z"
         style="fill:#ffffff" />
      <path
         id="path98"
         d="m -250.80273,397.91016 c 4.51171,0 7.7539,-2.26563 7.7539,-6.50391 0,-4.12109 -3.14453,-5.33203 -6.01562,-6.21094 -2.5,-0.76172 -4.84375,-1.26953 -4.84375,-3.04687 0,-1.44532 1.30859,-2.2461 3.16406,-2.2461 1.52344,0 3.4375,0.56641 5.01953,1.71875 l 2.14844,-3.0664 c -1.99219,-1.34766 -4.47266,-2.10938 -6.95313,-2.10938 -4.02343,0 -7.53906,2.03125 -7.53906,6.11328 0,4.0625 3.37891,5.11719 6.32813,6.03516 2.36328,0.72266 4.41406,1.28906 4.41406,3.14453 0,1.66016 -1.38672,2.57813 -3.45703,2.57813 -2.20703,0 -4.64844,-1.09375 -6.19141,-2.42188 l -2.08984,3.32031 c 1.97265,1.44532 4.86328,2.69532 8.26172,2.69532 z"
         style="fill:#ffffff" />
      <path
         id="path100"
         d="m -222.28711,376.83594 h -17.53906 v 3.63281 h 10.41015 l -11.1914,17.05078 h 18.20312 v -3.63281 h -11.09375 z"
         style="fill:#ffffff" />
      <path
         style="fill:#4da6dd;fill-opacity:0.92156863"
         id="path103"
         d="m -190.41211,376.83594 h -17.53906 v 3.63281 h 10.41015 l -11.1914,17.05078 h 18.20312 v -3.63281 h -11.09375 z" />
      <path
         style="fill:#4da6dd;fill-opacity:0.92156863"
         id="path105"
         d="m -166.95508,386.93359 c -0.13672,-6.13281 -4.76562,-10.50781 -10.68359,-10.50781 -6.19141,0 -10.87891,4.78516 -10.87891,10.74219 0,5.97656 4.60938,10.74219 10.97656,10.74219 4.16016,0 7.57813,-2.03125 9.35547,-5.33204 l -3.53515,-1.5039 c -1.26953,2.05078 -3.4375,3.20312 -5.83985,3.20312 -3.59375,0 -6.5625,-2.63672 -6.75781,-6.48437 h 17.32422 z m -10.66406,-7.05078 c 3.10547,0 5.56641,1.9336 6.19141,4.94141 h -12.63672 c 0.80078,-2.98828 3.28125,-4.94141 6.44531,-4.94141 z" />
      <path
         style="fill:#4da6dd;fill-opacity:0.92156863"
         id="path107"
         d="m -156.19336,397.91016 c 4.51172,0 7.75391,-2.26563 7.75391,-6.50391 0,-4.12109 -3.14453,-5.33203 -6.01563,-6.21094 -2.5,-0.76172 -4.84375,-1.26953 -4.84375,-3.04687 0,-1.44532 1.3086,-2.2461 3.16406,-2.2461 1.52344,0 3.4375,0.56641 5.01954,1.71875 l 2.14843,-3.0664 c -1.99218,-1.34766 -4.47265,-2.10938 -6.95312,-2.10938 -4.02344,0 -7.53906,2.03125 -7.53906,6.11328 0,4.0625 3.3789,5.11719 6.32812,6.03516 2.36328,0.72266 4.41406,1.28906 4.41406,3.14453 0,1.66016 -1.38672,2.57813 -3.45703,2.57813 -2.20703,0 -4.64844,-1.09375 -6.1914,-2.42188 l -2.08985,3.32031 c 1.97266,1.44532 4.86328,2.69532 8.26172,2.69532 z" />
      <path
         style="fill:#4da6dd;fill-opacity:0.92156863"
         id="path109"
         d="m -143.63477,407.24609 h 4.35547 v -12.73437 c 1.67969,2.1289 4.27735,3.39844 7.44141,3.39844 5.56641,0 10.23437,-4.62891 10.23437,-10.72266 0,-6.07422 -4.6875,-10.74219 -10.23437,-10.74219 -3.28125,0 -5.83984,1.38672 -7.44141,3.41797 v -3.02734 h -4.35547 z m 10.87891,-13.16406 c -3.80859,0 -6.81641,-2.94922 -6.81641,-6.89453 0,-3.92578 3.00782,-6.875 6.81641,-6.875 3.78906,0 6.81641,2.94922 6.81641,6.875 0,3.94531 -3.02735,6.89453 -6.81641,6.89453 z" />
      <path
         style="fill:#4da6dd;fill-opacity:0.92156863"
         id="path111"
         d="m -105.91992,373.94531 4.49219,-4.92187 -2.40235,-1.77735 -5.15625,6.69922 z m -1.54297,23.96485 c 6.21094,0 11.054687,-4.64844 11.054687,-10.74219 0,-6.07422 -4.843747,-10.72266 -11.054687,-10.72266 -6.21094,0 -11.05469,4.64844 -11.05469,10.72266 0,6.09375 4.84375,10.74219 11.05469,10.74219 z m -0.0195,-3.90625 c -3.78906,0 -6.81641,-2.92969 -6.81641,-6.83594 0,-3.86719 3.02735,-6.81641 6.81641,-6.81641 3.78906,0 6.83594,2.96875 6.83594,6.81641 0,3.86719 -3.04688,6.83594 -6.83594,6.83594 z" />
      <path
         style="fill:#4da6dd;fill-opacity:0.92156863"
         id="path113"
         d="m -83.439453,376.07422 -3.808594,2.83203 v -11.38672 h -4.355469 v 14.62891 L -95.451172,385 v 3.37891 l 3.847656,-2.85157 v 11.99219 h 4.355469 v -15.23437 l 3.808594,-2.83204 z" />
    </g>
  </g>
</svg>
